<svg width="165" height="174" fill="none" xmlns="http://www.w3.org/2000/svg">
    <g clip-path="url(#a)">
        <g clip-path="url(#b)">
            <path d="M68.333 40.702c0 11.063 0 22.157.065 33.22 0 9.546-3.096 18.834-11.965 23.736-10.353 5.677-25.06 4.225-36.606 3.032-.452 0-.839-.097-1.258-.129.387-7.966.226-16.029-.161-23.963-.484-10.772 6.031-23.608 17.61-25.414 12.545-1.967 23.478-3.322 29.413-10.256.193-.194.387-.42.548-.645.87-1.193 1.806-2.322 2.741-3.483-.29 1.258-.387 2.58-.387 3.87v.032ZM30.38 172.836c8.643.549 17.351.42 25.995.581 10.094.161 20.447 1.419 30.187-.355 13.997-2.548 29.736-11.675 34.928-25.188 4.806-12.514 2.548-27.446-5.74-37.96a37.137 37.137 0 0 0-1.871-2.129c-8.385-9.16-21.383-13.965-33.767-12.32-15.384 2.032-28.93 14.126-32.93 29.123-2.482 9.353-.322 19.287-1.773 28.801-1.193 7.869-7.934 15.932-15.061 19.447h.032ZM116.86 5c-.774 2.354.161 4.902 1.161 7.16 12.836 28.607 47.216 47.958 46.023 82.338-.549 15.545-8.289 33.799-21.286 43.023-.936.678-1.807 1.258-2.903 1.581-2.483-4.644-2.741-11.417-4.838-16.513-2.644-6.418-6.128-12.707-10.998-17.674-4.676-4.741-10.514-7.482-15.19-12.126-9.804-9.805-15.997-23.222-16.803-37.09-1.161-19.738 8.708-39.346 24.866-50.634L116.86 5Z" fill="#fff" fill-opacity=".1"/>
            <path d="M27.57 74.018s-.451-8.61 8.386-8.192c0 0 3.225 9.418-8.386 8.192Z" fill="#8807F7" stroke="#fff" stroke-opacity=".1" stroke-width="1.356" stroke-miterlimit="10"/>
            <path d="M24.642 147.034c8.087 0 14.642-6.555 14.642-14.642 0-8.086-6.555-14.642-14.642-14.642S10 124.306 10 132.392c0 8.087 6.555 14.642 14.642 14.642Z" fill="#fff" fill-opacity=".1"/>
        </g>
        <g clip-path="url(#c)">
            <path d="M58.333 35.702c0 11.063 0 22.157.065 33.22 0 9.546-3.096 18.834-11.966 23.736-10.352 5.677-25.059 4.225-36.605 3.032-.451 0-.838-.097-1.258-.129.387-7.966.226-16.029-.161-23.963-.484-10.772 6.031-23.608 17.61-25.414 12.545-1.967 23.478-3.322 29.413-10.256.193-.194.387-.42.548-.645.87-1.193 1.806-2.322 2.741-3.483-.29 1.258-.387 2.58-.387 3.87v.032ZM20.38 167.836c8.643.549 17.351.42 25.995.581 10.094.161 20.447 1.419 30.187-.355 13.997-2.548 29.736-11.675 34.928-25.188 4.806-12.514 2.548-27.446-5.74-37.96a37.137 37.137 0 0 0-1.871-2.129c-8.385-9.16-21.383-13.965-33.767-12.32-15.384 2.032-28.93 14.126-32.93 29.123-2.482 9.353-.322 19.287-1.773 28.801-1.193 7.869-7.934 15.932-15.061 19.447h.032ZM106.86 0c-.774 2.354.161 4.902 1.161 7.16 12.836 28.607 47.216 47.958 46.023 82.338-.549 15.545-8.289 33.799-21.286 43.023-.936.678-1.807 1.258-2.903 1.581-2.483-4.644-2.741-11.417-4.838-16.513-2.644-6.418-6.128-12.707-10.998-17.674-4.676-4.74-10.514-7.482-15.19-12.126-9.804-9.805-15.997-23.222-16.803-37.09-1.161-19.738 8.708-39.346 24.866-50.634L106.86 0Z" fill="#fff"/>
            <path d="M17.57 69.018s-.451-8.61 8.386-8.192c0 0 3.225 9.418-8.386 8.192Z" fill="#8807F7" stroke="#fff" stroke-width="1.356" stroke-miterlimit="10"/>
            <path d="M14.642 142.034c8.087 0 14.642-6.555 14.642-14.642 0-8.086-6.555-14.642-14.642-14.642C6.556 112.75 0 119.306 0 127.392c0 8.087 6.556 14.642 14.642 14.642Z" fill="#fff"/>
        </g>
    </g>
    <defs>
        <clipPath id="a">
            <path fill="#fff" d="M0 0h164.074v174H0z"/>
        </clipPath>
        <clipPath id="b">
            <path fill="#fff" transform="translate(10 5)" d="M0 0h154.074v169H0z"/>
        </clipPath>
        <clipPath id="c">
            <path fill="#fff" d="M0 0h154.074v169H0z"/>
        </clipPath>
    </defs>
</svg>
