<svg width="28" height="28" viewBox="0 0 28 28" fill="none" xmlns="http://www.w3.org/2000/svg">
<path d="M14 25.7601C13.65 25.7601 13.3 25.6784 13.0083 25.5151C10.8267 24.3251 6.98833 23.0651 4.585 22.7501L4.24667 22.7034C2.71833 22.5168 1.45833 21.0818 1.45833 19.5301V5.43676C1.45833 4.51509 1.82 3.67509 2.485 3.06842C3.15 2.46176 4.01333 2.17009 4.92333 2.25176C7.49 2.45009 11.3633 3.73342 13.5567 5.11009L13.8367 5.27342C13.9183 5.32009 14.0933 5.32009 14.1633 5.28509L14.35 5.16842C16.5433 3.79176 20.4167 2.48509 22.995 2.26342C23.0183 2.26342 23.1117 2.26342 23.135 2.26342C23.9867 2.18176 24.8617 2.48509 25.515 3.09176C26.18 3.69842 26.5417 4.53842 26.5417 5.46009V19.5418C26.5417 21.1051 25.2817 22.5284 23.7417 22.7151L23.3567 22.7618C20.9533 23.0768 17.1033 24.3484 14.9683 25.5268C14.6883 25.6901 14.35 25.7601 14 25.7601ZM4.64333 3.99009C4.27 3.99009 3.93167 4.11842 3.66333 4.36342C3.37167 4.63176 3.20833 5.01676 3.20833 5.43676V19.5301C3.20833 20.2184 3.80333 20.8834 4.46833 20.9768L4.81833 21.0234C7.44333 21.3734 11.4683 22.6918 13.8017 23.9634C13.9067 24.0101 14.0583 24.0218 14.1167 23.9984C16.45 22.7034 20.4983 21.3734 23.135 21.0234L23.5317 20.9768C24.1967 20.8951 24.7917 20.2184 24.7917 19.5301V5.44842C24.7917 5.01676 24.6283 4.64342 24.3367 4.36342C24.0333 4.09509 23.6483 3.96676 23.2167 3.99009C23.1933 3.99009 23.1 3.99009 23.0767 3.99009C20.8483 4.18842 17.255 5.39009 15.295 6.61509L15.1083 6.74342C14.4667 7.14009 13.5567 7.14009 12.9383 6.75509L12.6583 6.59176C10.6633 5.36676 7.07 4.17676 4.78333 3.99009C4.73667 3.99009 4.69 3.99009 4.64333 3.99009Z" fill="white"/>
<path d="M14 24.7803C13.5217 24.7803 13.125 24.3836 13.125 23.9053V6.40527C13.125 5.92694 13.5217 5.53027 14 5.53027C14.4783 5.53027 14.875 5.92694 14.875 6.40527V23.9053C14.875 24.3953 14.4783 24.7803 14 24.7803Z" fill="white"/>
<path d="M9.04167 10.7803H6.41667C5.93833 10.7803 5.54167 10.3836 5.54167 9.90527C5.54167 9.42694 5.93833 9.03027 6.41667 9.03027H9.04167C9.52 9.03027 9.91667 9.42694 9.91667 9.90527C9.91667 10.3836 9.52 10.7803 9.04167 10.7803Z" fill="white"/>
<path d="M9.91667 14.2803H6.41667C5.93833 14.2803 5.54167 13.8836 5.54167 13.4053C5.54167 12.9269 5.93833 12.5303 6.41667 12.5303H9.91667C10.395 12.5303 10.7917 12.9269 10.7917 13.4053C10.7917 13.8836 10.395 14.2803 9.91667 14.2803Z" fill="white"/>
</svg>
