<svg width="16" height="15" viewBox="0 0 16 15" fill="none" xmlns="http://www.w3.org/2000/svg">
<path d="M10.478 1.14709C10.4973 1.08432 10.5041 1.01836 10.4979 0.952981C10.4917 0.8876 10.4727 0.824077 10.442 0.766041C10.4112 0.708004 10.3694 0.65659 10.3188 0.614733C10.2682 0.572876 10.2098 0.541397 10.147 0.522093C10.0843 0.502789 10.0183 0.496037 9.95293 0.502224C9.88755 0.508411 9.82402 0.527415 9.76599 0.558151C9.70795 0.588887 9.65654 0.630754 9.61468 0.68136C9.57282 0.731966 9.54134 0.790321 9.52204 0.853093L5.52204 13.8531C5.48305 13.9799 5.49602 14.1169 5.5581 14.2341C5.62017 14.3514 5.72627 14.4391 5.85304 14.4781C5.97981 14.5171 6.11688 14.5041 6.23409 14.442C6.3513 14.38 6.43905 14.2739 6.47804 14.1471L10.478 1.14709ZM4.85404 3.64609C4.9006 3.69254 4.93755 3.74771 4.96275 3.80846C4.98796 3.8692 5.00093 3.93433 5.00093 4.00009C5.00093 4.06586 4.98796 4.13098 4.96275 4.19173C4.93755 4.25247 4.9006 4.30765 4.85404 4.35409L1.70704 7.50009L4.85404 10.6461C4.94793 10.74 5.00067 10.8673 5.00067 11.0001C5.00067 11.1329 4.94793 11.2602 4.85404 11.3541C4.76015 11.448 4.63281 11.5007 4.50004 11.5007C4.36726 11.5007 4.23993 11.448 4.14604 11.3541L0.646039 7.85409C0.599476 7.80765 0.562533 7.75247 0.537327 7.69173C0.51212 7.63098 0.499146 7.56586 0.499146 7.50009C0.499146 7.43433 0.51212 7.3692 0.537327 7.30846C0.562533 7.24771 0.599476 7.19254 0.646039 7.14609L4.14604 3.64609C4.19248 3.59953 4.24766 3.56259 4.30841 3.53738C4.36915 3.51217 4.43427 3.4992 4.50004 3.4992C4.56581 3.4992 4.63093 3.51217 4.69167 3.53738C4.75242 3.56259 4.80759 3.59953 4.85404 3.64609ZM11.146 3.64609C11.0995 3.69254 11.0625 3.74771 11.0373 3.80846C11.0121 3.8692 10.9991 3.93433 10.9991 4.00009C10.9991 4.06586 11.0121 4.13098 11.0373 4.19173C11.0625 4.25247 11.0995 4.30765 11.146 4.35409L14.293 7.50009L11.146 10.6461C11.0996 10.6926 11.0627 10.7478 11.0375 10.8085C11.0124 10.8692 10.9994 10.9344 10.9994 11.0001C10.9994 11.0658 11.0124 11.1309 11.0375 11.1917C11.0627 11.2524 11.0996 11.3076 11.146 11.3541C11.1925 11.4006 11.2477 11.4375 11.3085 11.4626C11.3692 11.4878 11.4343 11.5007 11.5 11.5007C11.5658 11.5007 11.6309 11.4878 11.6916 11.4626C11.7524 11.4375 11.8076 11.4006 11.854 11.3541L15.354 7.85409C15.4006 7.80765 15.4375 7.75247 15.4628 7.69173C15.488 7.63098 15.5009 7.56586 15.5009 7.50009C15.5009 7.43433 15.488 7.3692 15.4628 7.30846C15.4375 7.24771 15.4006 7.19254 15.354 7.14609L11.854 3.64609C11.8076 3.59953 11.7524 3.56259 11.6917 3.53738C11.6309 3.51217 11.5658 3.4992 11.5 3.4992C11.4343 3.4992 11.3692 3.51217 11.3084 3.53738C11.2477 3.56259 11.1925 3.59953 11.146 3.64609Z" fill="#9CA3AF"/>
</svg>
