<svg width="23" height="23" viewBox="0 0 23 23" fill="none" xmlns="http://www.w3.org/2000/svg">
<path d="M11.5014 1.86182C6.36196 1.86182 2.19083 6.03295 2.19083 11.1724C2.19083 16.3118 6.36196 20.4829 11.5014 20.4829C16.6408 20.4829 20.812 16.3118 20.812 11.1724C20.812 6.03295 16.6408 1.86182 11.5014 1.86182ZM11.5014 18.6208C7.39543 18.6208 4.05294 15.2783 4.05294 11.1724C4.05294 7.06642 7.39543 3.72393 11.5014 3.72393C15.6074 3.72393 18.9498 7.06642 18.9498 11.1724C18.9498 15.2783 15.6074 18.6208 11.5014 18.6208ZM6.38058 16.2932L13.3728 13.0438L16.6222 6.05157L9.62997 9.30096L6.38058 16.2932ZM11.5014 10.1482C12.0693 10.1482 12.5256 10.6044 12.5256 11.1724C12.5256 11.7403 12.0693 12.1965 11.5014 12.1965C10.9334 12.1965 10.4772 11.7403 10.4772 11.1724C10.4772 10.6044 10.9334 10.1482 11.5014 10.1482Z" fill="#6B7280"/>
</svg>
