<svg width="116" height="97" viewBox="0 0 116 97" fill="none" xmlns="http://www.w3.org/2000/svg">
<path d="M97.3674 0.129055H7.10951C6.14521 0.123085 5.18977 0.296606 4.30211 0.638922C3.41445 0.981237 2.61338 1.48509 1.94828 2.11942C1.28318 2.75376 0.768151 3.50512 0.434942 4.32719C0.101733 5.14927 -0.0425975 6.02463 0.0108574 6.89931L8.47583 166.322C8.59643 168.138 9.46896 169.846 10.9182 171.101C12.3674 172.357 14.286 173.068 16.2887 173.092H106.547C107.511 173.098 108.466 172.925 109.353 172.582C110.24 172.24 111.041 171.736 111.706 171.102C112.37 170.467 112.885 169.716 113.217 168.894C113.55 168.072 113.693 167.196 113.639 166.322L105.18 6.89931C105.06 5.08317 104.187 3.37572 102.738 2.11989C101.289 0.864048 99.37 0.152825 97.3674 0.129055Z" fill="#3D0072"/>
<path d="M100.703 0.129058H10.4201C9.45602 0.12304 8.50084 0.296574 7.61349 0.63895C6.72614 0.981326 5.92545 1.48528 5.26084 2.1197C4.59622 2.75413 4.08179 3.50555 3.74929 4.32761C3.41679 5.14967 3.27329 6.02491 3.32762 6.89931L11.7864 166.322C11.907 168.138 12.7795 169.846 14.2287 171.101C15.678 172.357 17.5966 173.068 19.5992 173.092H109.857C110.821 173.098 111.776 172.925 112.664 172.582C113.551 172.24 114.352 171.736 115.016 171.102C115.681 170.467 116.195 169.716 116.528 168.894C116.86 168.072 117.004 167.196 116.95 166.322L108.491 6.89931C108.371 5.087 107.501 3.38274 106.058 2.12747C104.614 0.872199 102.701 0.158469 100.703 0.129058Z" fill="#263238"/>
<path d="M19.3442 168.579C18.6793 168.563 18.0445 168.324 17.5635 167.907C17.0824 167.49 16.7896 166.925 16.7419 166.322L8.2956 6.89933C8.28049 6.60835 8.33047 6.31761 8.44252 6.04467C8.55457 5.77173 8.72637 5.52226 8.94753 5.31133C9.16869 5.1004 9.43463 4.93239 9.72927 4.81745C10.0239 4.70251 10.3412 4.64302 10.6618 4.64258H100.92C101.585 4.6553 102.222 4.89403 102.703 5.31172C103.185 5.72942 103.477 6.2958 103.522 6.89933L111.981 166.322C111.996 166.612 111.946 166.903 111.834 167.175C111.723 167.448 111.551 167.697 111.331 167.908C111.11 168.119 110.845 168.287 110.551 168.402C110.257 168.518 109.941 168.578 109.621 168.579H19.3442Z" fill="#8807F7"/>
<path opacity="0.1" d="M19.3028 167.451C18.9709 167.441 18.6547 167.32 18.4142 167.112C18.1738 166.904 18.0258 166.623 17.9986 166.323L9.53986 6.89986C9.53405 6.75499 9.56014 6.61053 9.61661 6.47494C9.67307 6.33936 9.75877 6.21538 9.86868 6.11028C9.97859 6.00518 10.1105 5.92107 10.2567 5.8629C10.4028 5.80472 10.5603 5.77364 10.7199 5.77148H100.978C101.31 5.78031 101.627 5.90041 101.868 6.1087C102.108 6.31698 102.256 6.59876 102.282 6.89986L110.741 166.323C110.746 166.467 110.72 166.612 110.664 166.747C110.607 166.883 110.522 167.007 110.412 167.112C110.302 167.217 110.17 167.301 110.024 167.359C109.878 167.418 109.72 167.449 109.561 167.451H19.3028Z" fill="#3D0072"/>
<g opacity="0.3">
<path d="M57.8134 67.8097L45.5352 69.5925C45.0613 68.5311 44.4348 67.5313 43.672 66.6193C42.9371 65.9185 42.0679 65.345 41.1071 64.9267L41.5667 73.6716C48.3941 75.304 52.9878 77.0266 55.3479 78.8396C56.8524 79.9786 58.0734 81.395 58.93 82.995C59.7865 84.595 60.259 86.342 60.3163 88.1205C60.4806 90.2018 60.0596 92.287 59.0928 94.1798C58.1732 95.9456 56.85 97.5132 55.2112 98.778C53.6847 99.9658 51.9195 100.874 50.013 101.452C47.7751 102.063 45.4557 102.394 43.1193 102.434L43.2 103.974C43.2188 104.259 43.1728 104.545 43.0649 104.813C42.9569 105.081 42.7894 105.326 42.5727 105.533C42.356 105.74 42.0948 105.904 41.8053 106.016C41.5157 106.127 41.2041 106.183 40.8897 106.18C40.2366 106.174 39.6104 105.943 39.1377 105.533C38.665 105.124 38.3811 104.567 38.3434 103.974L38.2627 102.434C35.5369 102.275 32.8457 101.793 30.2573 101.001C28.2744 100.35 26.4406 99.3727 24.8479 98.1179C23.394 96.9902 22.1632 95.6449 21.2085 94.1403C20.2512 92.5221 19.5547 90.7874 19.1404 88.9893L32.4993 87.5732C33.0044 89.5629 33.6254 91.0016 34.3624 91.8892C35.2884 92.9205 36.4782 93.7302 37.8279 94.2475L37.2628 83.5731C33.9544 82.825 30.7151 81.8441 27.5743 80.6393C25.5424 79.7189 23.7961 78.3516 22.4941 76.6618C20.9723 74.7086 20.1307 72.3855 20.0782 69.9931C19.9338 68.3423 20.1868 66.6828 20.8196 65.1298C21.4523 63.5768 22.4497 62.1675 23.7424 60.9999C26.3757 58.589 30.4125 57.2537 35.853 56.9942L35.8095 56.21C35.7907 55.9249 35.8367 55.6394 35.9447 55.3711C36.0526 55.1029 36.2201 54.8577 36.4368 54.6508C36.6535 54.4439 36.9147 54.2797 37.2043 54.1684C37.4938 54.0571 37.8054 54.0012 38.1198 54.004C38.7729 54.0102 39.3991 54.2414 39.8718 54.6509C40.3445 55.0604 40.6284 55.6176 40.6661 56.21L40.7096 56.9942C45.678 57.2763 49.5306 58.3445 52.2674 60.1988C55.0202 62.0846 56.9778 64.771 57.8134 67.8097ZM36.2629 64.7913C35.1555 65.0492 34.1558 65.5965 33.3874 66.3654C32.8646 67.0028 32.6111 67.7897 32.6732 68.5826C32.706 69.4331 33.0465 70.2501 33.642 70.9071C34.4711 71.6974 35.5207 72.2687 36.679 72.5602L36.2629 64.7913ZM42.7032 94.5353C44.5663 94.1592 45.912 93.5273 46.74 92.6396C47.1376 92.2403 47.4442 91.7736 47.6425 91.2662C47.8407 90.7588 47.9266 90.2209 47.8952 89.6833C47.8319 88.7037 47.3924 87.7752 46.6531 87.0598C45.8706 86.2643 44.38 85.5196 42.1939 84.8369L42.7032 94.5353Z" fill="#FAFAFA"/>
</g>
<path d="M99.245 74.2022H64.6006C64.3577 74.1985 64.1249 74.0675 63.9491 73.8355C63.7734 73.6035 63.6678 73.2878 63.6537 72.9522C63.6472 72.7908 63.6646 72.6292 63.7049 72.4775C63.7452 72.3258 63.8075 72.1871 63.888 72.0699C63.9686 71.9528 64.0656 71.8598 64.173 71.7965C64.2805 71.7333 64.3962 71.7012 64.513 71.7022H99.1574C99.4031 71.7002 99.6399 71.8287 99.819 72.0613C99.9982 72.2939 100.106 72.6128 100.12 72.9522C100.127 73.1154 100.109 73.2789 100.068 73.4321C100.026 73.5854 99.9627 73.7251 99.8804 73.8426C99.7982 73.96 99.6993 74.0526 99.5899 74.1145C99.4805 74.1764 99.3631 74.2062 99.245 74.2022Z" fill="#8807F7"/>
<path d="M99.2684 82.3285H64.9358C64.6951 82.3245 64.4644 82.177 64.2902 81.916C64.116 81.6549 64.0114 81.2997 63.9974 80.9221C63.991 80.7405 64.0082 80.5587 64.0482 80.388C64.0881 80.2173 64.1499 80.0612 64.2297 79.9295C64.3095 79.7977 64.4056 79.693 64.5121 79.6218C64.6186 79.5507 64.7333 79.5145 64.849 79.5157H99.1856C99.4255 79.5213 99.6553 79.6694 99.8286 79.9303C100.002 80.1912 100.106 80.5455 100.12 80.9221C100.126 81.1037 100.109 81.2855 100.069 81.4562C100.029 81.6269 99.9675 81.783 99.8877 81.9147C99.8079 82.0465 99.7118 82.1512 99.6053 82.2224C99.4988 82.2935 99.3841 82.3297 99.2684 82.3285Z" fill="#8807F7"/>
<path d="M99.589 90.1415H65.275C65.0345 90.1378 64.8039 90.0068 64.6298 89.7748C64.4558 89.5428 64.3512 89.2271 64.3373 88.8916C64.3308 88.7302 64.3481 88.5686 64.388 88.4169C64.4279 88.2652 64.4896 88.1265 64.5694 88.0094C64.6491 87.8923 64.7452 87.7992 64.8516 87.736C64.9581 87.6727 65.0726 87.6406 65.1883 87.6416H99.5221C99.7626 87.6452 99.9932 87.7763 100.167 88.0083C100.341 88.2403 100.446 88.556 100.46 88.8916C100.466 89.0553 100.449 89.2192 100.407 89.3728C100.366 89.5264 100.303 89.6664 100.221 89.7839C100.139 89.9015 100.041 89.9939 99.9319 90.0555C99.8231 90.117 99.7064 90.1463 99.589 90.1415Z" fill="#8807F7"/>
<path d="M99.9441 98.2689H65.2846C65.0419 98.264 64.8095 98.1325 64.6338 97.9007C64.4582 97.6689 64.3523 97.3539 64.3373 97.0188C64.3307 96.8573 64.3482 96.6958 64.3885 96.544C64.4288 96.3923 64.4912 96.2535 64.5717 96.1364C64.6523 96.0193 64.7493 95.9262 64.8569 95.8629C64.9644 95.7997 65.0801 95.7676 65.197 95.7686H99.8566C100.1 95.7722 100.332 95.9033 100.508 96.1353C100.684 96.3674 100.79 96.6831 100.804 97.0188C100.81 97.1802 100.793 97.3417 100.753 97.4935C100.712 97.6452 100.65 97.784 100.569 97.9011C100.489 98.0182 100.392 98.1113 100.284 98.1745C100.177 98.2378 100.061 98.2699 99.9441 98.2689Z" fill="#8807F7"/>
<path d="M100.056 61.4159C106.456 55.4605 106.066 45.6868 99.1867 39.5858C92.3071 33.4848 81.542 33.3668 75.1423 39.3222C68.7426 45.2776 69.1318 55.0513 76.0115 61.1523C82.8911 67.2533 93.6562 67.3713 100.056 61.4159Z" fill="#8807F7"/>
<path d="M101.618 50.3581C101.736 52.4547 101.263 54.5439 100.246 56.4288C99.1428 58.4498 97.4348 60.1475 95.3181 61.327C93.2013 62.5066 90.7614 63.1202 88.2782 63.0975C85.7094 63.0799 83.1897 62.4559 80.9664 61.2868C78.7431 60.1177 76.8925 58.4436 75.5963 56.4288C74.3868 54.5857 73.6938 52.5012 73.5779 50.3581C73.4705 48.7116 73.737 47.0627 74.3608 45.5137C74.9847 43.9648 75.9525 42.5489 77.2042 41.3541C78.4559 40.1594 79.9647 39.2112 81.6369 38.5686C83.309 37.926 85.1088 37.6027 86.9243 37.6187C90.6927 37.6613 94.3035 38.999 97.0299 41.3627C99.7563 43.7263 101.396 46.9405 101.618 50.3581Z" fill="white"/>
<path opacity="0.4" d="M92.626 55.0535C94.9788 52.864 94.8368 49.2716 92.3088 47.0297C89.7808 44.7878 85.824 44.7454 83.4712 46.9349C81.1183 49.1244 81.2603 52.7168 83.7883 54.9587C86.3164 57.2006 90.2731 57.2431 92.626 55.0535Z" fill="#8807F7"/>
</svg>
