<svg width="25" height="25" viewBox="0 0 25 25" fill="none" xmlns="http://www.w3.org/2000/svg">
<g clip-path="url(#clip0_5_7242)">
<path d="M11.2425 2.75862C11.5791 2.49675 11.9889 2.34625 12.415 2.32804C12.8411 2.30984 13.2623 2.42483 13.62 2.65703L13.7626 2.75964L22.3656 9.44994C23.1055 10.0256 22.7453 11.1861 21.8536 11.2816L21.7346 11.2877H20.7115V19.4967C20.7117 20.0144 20.5161 20.5131 20.1641 20.8928C19.812 21.2724 19.3295 21.505 18.8132 21.5438L18.6593 21.5489H6.34585C5.82827 21.5488 5.32984 21.3532 4.95041 21.0011C4.57098 20.6491 4.33858 20.1667 4.29976 19.6506L4.29361 19.4967V11.2877H3.27057C2.33372 11.2877 1.90377 10.1508 2.5492 9.52793L2.6395 9.44994L11.2425 2.75964V2.75862ZM12.5026 4.37886L5.96105 9.46636C6.19603 9.65619 6.34585 9.94658 6.34585 10.2719V19.4967H9.4242V14.3661C9.4242 13.5496 9.74853 12.7667 10.3258 12.1894C10.9031 11.612 11.6861 11.2877 12.5026 11.2877C13.319 11.2877 14.102 11.612 14.6793 12.1894C15.2566 12.7667 15.5809 13.5496 15.5809 14.3661V19.4967H18.6593V10.2719C18.6593 9.94658 18.8091 9.65619 19.0441 9.46636L12.5026 4.37886ZM12.5026 13.34C12.2304 13.34 11.9694 13.4481 11.777 13.6405C11.5846 13.8329 11.4764 14.0939 11.4764 14.3661V19.4967H13.5287V14.3661C13.5287 14.0939 13.4206 13.8329 13.2281 13.6405C13.0357 13.4481 12.7747 13.34 12.5026 13.34Z" fill="#8807F7"/>
</g>
<defs>
<clipPath id="clip0_5_7242">
<rect width="24.6269" height="24.6269" fill="white" transform="translate(0.186569)"/>
</clipPath>
</defs>
</svg>
