<svg width="101" height="65" viewBox="0 0 101 65" fill="none" xmlns="http://www.w3.org/2000/svg">
<path d="M60.5654 0.652832H37.3608V61.7151H60.5654V0.652832Z" fill="#8807F7"/>
<path opacity="0.5" d="M60.6394 0.652832H43.3362V61.7151H60.6394V0.652832Z" fill="black"/>
<path d="M90.8815 21.4707H67.6769V61.7114H90.8815V21.4707Z" fill="#8807F7"/>
<path opacity="0.3" d="M90.8802 21.376H73.577V61.7151H90.8802V21.376Z" fill="black"/>
<path d="M30.104 11.5415H6.8994V61.7115H30.104V11.5415Z" fill="#8807F7"/>
<path opacity="0.4" d="M30.1045 11.4185H12.8012V61.7114H30.1045V11.4185Z" fill="black"/>
<path d="M15.9322 61.7779C15.9006 62.5266 18.266 63.233 21.2044 63.3596C24.1427 63.4861 26.5714 62.98 26.6031 62.2313C26.6347 61.4827 24.2693 60.7797 21.3309 60.6532C18.3926 60.5267 15.9638 61.0328 15.9322 61.7779Z" fill="#8807F7"/>
<path d="M15.9893 60.4215L15.9319 61.7734L26.6142 62.2268L26.6716 60.8748L15.9893 60.4215Z" fill="#8807F7"/>
<path d="M15.9878 60.4249C15.9562 61.1735 18.3216 61.88 21.26 62.0065C24.1983 62.1331 26.627 61.6269 26.6587 60.8783C26.6903 60.1296 24.3248 59.4267 21.3865 59.3002C18.4481 59.1736 16.0194 59.6798 15.9878 60.4249Z" fill="#8807F7"/>
<path opacity="0.4" d="M15.9878 60.4249C15.9562 61.1735 18.3216 61.88 21.26 62.0065C24.1983 62.1331 26.627 61.6269 26.6587 60.8783C26.6903 60.1296 24.3248 59.4267 21.3865 59.3002C18.4481 59.1736 16.0194 59.6798 15.9878 60.4249Z" fill="white"/>
<path d="M16.6707 60.4036C16.6707 60.452 16.6868 60.499 16.7164 60.5372C17.0679 60.0978 19.0256 59.8342 21.3595 59.9362C23.6933 60.0381 25.6229 60.4599 25.9287 60.9273C25.9635 60.8929 25.9836 60.8463 25.9849 60.7973C26.006 60.2912 23.9393 59.785 21.363 59.6761C18.7866 59.5671 16.6918 59.8975 16.6707 60.4036Z" fill="#8807F7"/>
<path opacity="0.4" d="M16.6707 60.4036C16.6707 60.452 16.6868 60.499 16.7164 60.5372C17.0679 60.0978 19.0256 59.8342 21.3595 59.9362C23.6933 60.0381 25.6229 60.4599 25.9287 60.9273C25.9635 60.8929 25.9836 60.8463 25.9849 60.7973C26.006 60.2912 23.9393 59.785 21.363 59.6761C18.7866 59.5671 16.6918 59.8975 16.6707 60.4036Z" fill="#8807F7"/>
<path opacity="0.4" d="M16.7156 60.5369C17.0354 61.0044 18.958 61.4262 21.2848 61.5246C23.6116 61.623 25.5763 61.3664 25.9278 60.9271C25.615 60.4596 23.6924 60.0379 21.3586 59.9359C19.0248 59.834 17.0741 60.0976 16.7156 60.5369Z" fill="#8807F7"/>
<path d="M14.797 59.7286C14.7654 60.4772 17.1308 61.1837 20.0692 61.3102C23.0076 61.4368 25.4363 60.9306 25.4679 60.1855C25.4995 59.4404 23.1341 58.7304 20.1957 58.6039C17.2574 58.4773 14.8427 58.9835 14.797 59.7286Z" fill="#8807F7"/>
<path d="M14.8702 58.3795L14.8129 59.7314L25.4952 60.1848L25.5526 58.8328L14.8702 58.3795Z" fill="#8807F7"/>
<path d="M14.867 58.3796C14.8353 59.1247 17.2008 59.8312 20.1391 59.9577C23.0775 60.0842 25.5062 59.5781 25.5378 58.833C25.5695 58.0878 23.204 57.3779 20.2657 57.2513C17.3273 57.1248 14.8986 57.6309 14.867 58.3796Z" fill="#8807F7"/>
<path opacity="0.4" d="M14.867 58.3796C14.8353 59.1247 17.2008 59.8312 20.1391 59.9577C23.0775 60.0842 25.5062 59.5781 25.5378 58.833C25.5695 58.0878 23.204 57.3779 20.2657 57.2513C17.3273 57.1248 14.8986 57.6309 14.867 58.3796Z" fill="white"/>
<path d="M15.55 58.3543C15.5485 58.4029 15.5648 58.4504 15.5957 58.4879C15.9472 58.0485 17.9049 57.7849 20.2387 57.8904C22.5725 57.9958 24.5021 58.4106 24.8079 58.878C24.8399 58.8431 24.8597 58.7987 24.8642 58.7515C24.8853 58.2454 22.8186 57.7357 20.2422 57.6268C17.6659 57.5178 15.5711 57.8482 15.55 58.3543Z" fill="#8807F7"/>
<path opacity="0.4" d="M15.55 58.3543C15.5485 58.4029 15.5648 58.4504 15.5957 58.4879C15.9472 58.0485 17.9049 57.7849 20.2387 57.8904C22.5725 57.9958 24.5021 58.4106 24.8079 58.878C24.8399 58.8431 24.8597 58.7987 24.8642 58.7515C24.8853 58.2454 22.8186 57.7357 20.2422 57.6268C17.6659 57.5178 15.5711 57.8482 15.55 58.3543Z" fill="#8807F7"/>
<path opacity="0.4" d="M15.5947 58.4881C15.9111 58.9556 17.8372 59.3773 20.164 59.4757C22.4907 59.5742 24.4555 59.3176 24.807 58.8782C24.4942 58.4108 22.5716 57.989 20.2378 57.8906C17.9039 57.7922 15.9497 58.0487 15.5947 58.4881Z" fill="#8807F7"/>
<path d="M14.9548 57.2613C14.9232 58.01 17.2887 58.7164 20.227 58.843C23.1654 58.9695 25.5941 58.4634 25.6257 57.7147C25.6573 56.9661 23.2919 56.2631 20.3535 56.1366C17.4152 56.01 14.9865 56.5162 14.9548 57.2613Z" fill="#8807F7"/>
<path d="M15.0137 55.9093L14.9563 57.2612L25.6387 57.7146L25.696 56.3626L15.0137 55.9093Z" fill="#8807F7"/>
<path d="M15.0122 55.9083C14.9806 56.6569 17.346 57.3634 20.2844 57.4899C23.2228 57.6165 25.648 57.1103 25.6796 56.3652C25.7112 55.6201 23.3458 54.9101 20.4074 54.7836C17.4691 54.657 15.0439 55.1632 15.0122 55.9083Z" fill="#8807F7"/>
<path opacity="0.4" d="M15.0122 55.9083C14.9806 56.6569 17.346 57.3634 20.2844 57.4899C23.2228 57.6165 25.648 57.1103 25.6796 56.3652C25.7112 55.6201 23.3458 54.9101 20.4074 54.7836C17.4691 54.657 15.0439 55.1632 15.0122 55.9083Z" fill="white"/>
<path d="M15.6934 55.887C15.6934 55.9354 15.7094 55.9824 15.7391 56.0206C16.0905 55.5812 18.0483 55.3176 20.3821 55.4231C22.7159 55.5285 24.6455 55.9433 24.9513 56.4107C24.9859 56.3776 25.0061 56.3321 25.0075 56.2842C25.0286 55.7781 22.9619 55.2684 20.3856 55.1595C17.8093 55.0505 15.7145 55.3809 15.6934 55.887Z" fill="#8807F7"/>
<path opacity="0.4" d="M15.6934 55.887C15.6934 55.9354 15.7094 55.9824 15.7391 56.0206C16.0905 55.5812 18.0483 55.3176 20.3821 55.4231C22.7159 55.5285 24.6455 55.9433 24.9513 56.4107C24.9859 56.3776 25.0061 56.3321 25.0075 56.2842C25.0286 55.7781 22.9619 55.2684 20.3856 55.1595C17.8093 55.0505 15.7145 55.3809 15.6934 55.887Z" fill="#8807F7"/>
<path opacity="0.4" d="M15.74 56.0204C16.0599 56.4879 17.9824 56.9097 20.3092 57.0081C22.636 57.1065 24.6008 56.8499 24.9522 56.4106C24.6394 55.9431 22.7168 55.5213 20.383 55.4229C18.0492 55.3245 16.0985 55.5881 15.74 56.0204Z" fill="#8807F7"/>
<path d="M13.834 55.216C13.8024 55.9611 16.1678 56.6676 19.1062 56.7941C22.0445 56.9207 24.4733 56.4145 24.5049 55.6694C24.5365 54.9243 22.1711 54.2143 19.2327 54.0877C16.2944 53.9612 13.8656 54.4673 13.834 55.216Z" fill="#8807F7"/>
<path d="M13.8893 53.8531L13.8319 55.2051L24.5142 55.6584L24.5716 54.3064L13.8893 53.8531Z" fill="#8807F7"/>
<path d="M13.8896 53.8626C13.858 54.6077 16.2234 55.3142 19.1618 55.4407C22.1001 55.5672 24.5288 55.0611 24.5605 54.316C24.5921 53.5708 22.2267 52.8609 19.2883 52.7343C16.35 52.6078 13.9212 53.128 13.8896 53.8626Z" fill="#8807F7"/>
<path opacity="0.4" d="M13.8896 53.8626C13.858 54.6077 16.2234 55.3142 19.1618 55.4407C22.1001 55.5672 24.5288 55.0611 24.5605 54.316C24.5921 53.5708 22.2267 52.8609 19.2883 52.7343C16.35 52.6078 13.9212 53.128 13.8896 53.8626Z" fill="white"/>
<path d="M14.5709 53.8311C14.5688 53.8798 14.5851 53.9275 14.6166 53.9646C14.9681 53.5253 16.9258 53.2617 19.2597 53.3671C21.5935 53.4726 23.5231 53.8873 23.8289 54.3548C23.8609 54.3198 23.8806 54.2754 23.8851 54.2282C23.9062 53.7221 21.8395 53.2125 19.2632 53.1035C16.6868 52.9945 14.592 53.332 14.5709 53.8311Z" fill="#8807F7"/>
<path opacity="0.4" d="M14.5709 53.8311C14.5688 53.8798 14.5851 53.9275 14.6166 53.9646C14.9681 53.5253 16.9258 53.2617 19.2597 53.3671C21.5935 53.4726 23.5231 53.8873 23.8289 54.3548C23.8609 54.3198 23.8806 54.2754 23.8851 54.2282C23.9062 53.7221 21.8395 53.2125 19.2632 53.1035C16.6868 52.9945 14.592 53.332 14.5709 53.8311Z" fill="#8807F7"/>
<path opacity="0.4" d="M14.6174 53.9715C14.9337 54.4389 16.8598 54.8607 19.1866 54.9591C21.5134 55.0575 23.4781 54.801 23.8296 54.3616C23.5168 53.8942 21.5942 53.4724 19.2604 53.374C16.9266 53.2756 14.9724 53.5321 14.6174 53.9715Z" fill="#8807F7"/>
<path d="M15.5448 53.4797C15.5132 54.2248 17.8787 54.9313 20.817 55.0578C23.7554 55.1843 26.1841 54.6782 26.2157 53.9331C26.2473 53.1879 23.8819 52.478 20.9435 52.3514C18.0052 52.2249 15.5765 52.731 15.5448 53.4797Z" fill="#8807F7"/>
<path d="M15.6055 52.1261L15.5481 53.478L26.2305 53.9314L26.2878 52.5794L15.6055 52.1261Z" fill="#8807F7"/>
<path d="M15.604 52.1263C15.5724 52.8715 17.9378 53.578 20.8762 53.7045C23.8146 53.831 26.2433 53.3249 26.2749 52.5798C26.3065 51.8346 23.9411 51.1246 21.0027 50.9981C18.0644 50.8716 15.6357 51.3707 15.604 52.1263Z" fill="#8807F7"/>
<path opacity="0.4" d="M15.604 52.1263C15.5724 52.8715 17.9378 53.578 20.8762 53.7045C23.8146 53.831 26.2433 53.3249 26.2749 52.5798C26.3065 51.8346 23.9411 51.1246 21.0027 50.9981C18.0644 50.8716 15.6357 51.3707 15.604 52.1263Z" fill="white"/>
<path d="M16.2834 52.1014C16.2846 52.1495 16.3005 52.1961 16.3291 52.2349C16.6806 51.7956 18.6418 51.532 20.9721 51.6374C23.3024 51.7429 25.239 52.1576 25.5413 52.6251C25.5755 52.5913 25.5967 52.5465 25.6011 52.4985C25.6222 51.9924 23.5555 51.4828 20.9791 51.3738C18.4028 51.2649 16.308 51.5952 16.2834 52.1014Z" fill="#8807F7"/>
<path opacity="0.4" d="M16.2834 52.1014C16.2846 52.1495 16.3005 52.1961 16.3291 52.2349C16.6806 51.7956 18.6418 51.532 20.9721 51.6374C23.3024 51.7429 25.239 52.1576 25.5413 52.6251C25.5755 52.5913 25.5967 52.5465 25.6011 52.4985C25.6222 51.9924 23.5555 51.4828 20.9791 51.3738C18.4028 51.2649 16.308 51.5952 16.2834 52.1014Z" fill="#8807F7"/>
<path opacity="0.4" d="M16.33 52.2352C16.6499 52.7026 18.5724 53.1244 20.8992 53.2228C23.226 53.3212 25.1943 53.0646 25.5422 52.6253C25.2329 52.1578 23.3068 51.7361 20.973 51.6376C18.6392 51.5392 16.6885 51.7958 16.33 52.2352Z" fill="#8807F7"/>
<path d="M14.424 51.4303C14.3924 52.1754 16.7578 52.8854 19.6962 53.0084C22.6345 53.1314 25.0633 52.6288 25.0949 51.8837C25.1265 51.1385 22.7611 50.4286 19.8227 50.302C16.8844 50.1755 14.4451 50.6676 14.424 51.4303Z" fill="#8807F7"/>
<path d="M14.4793 50.0728L14.4219 51.4248L25.1043 51.8781L25.1616 50.5262L14.4793 50.0728Z" fill="#8807F7"/>
<path d="M14.4796 50.0773C14.448 50.8225 16.8134 51.5324 19.7518 51.6555C22.6901 51.7785 25.1188 51.2794 25.1505 50.5307C25.1821 49.7821 22.8167 49.0756 19.8783 48.9491C16.94 48.8225 14.5112 49.3287 14.4796 50.0773Z" fill="#8807F7"/>
<path opacity="0.4" d="M14.4796 50.0773C14.448 50.8225 16.8134 51.5324 19.7518 51.6555C22.6901 51.7785 25.1188 51.2794 25.1505 50.5307C25.1821 49.7821 22.8167 49.0756 19.8783 48.9491C16.94 48.8225 14.5112 49.3287 14.4796 50.0773Z" fill="white"/>
<path d="M15.1483 50.0526C15.1471 50.1012 15.1633 50.1485 15.194 50.1862C15.5454 49.7468 17.5032 49.4832 19.837 49.5887C22.1708 49.6941 24.1004 50.1089 24.4062 50.5798C24.4404 50.545 24.4605 50.4986 24.4624 50.4498C24.4835 49.9437 22.4168 49.4375 19.8405 49.3251C17.2642 49.2126 15.1834 49.5465 15.1483 50.0526Z" fill="#8807F7"/>
<path opacity="0.4" d="M15.1483 50.0526C15.1471 50.1012 15.1633 50.1485 15.194 50.1862C15.5454 49.7468 17.5032 49.4832 19.837 49.5887C22.1708 49.6941 24.1004 50.1089 24.4062 50.5798C24.4404 50.545 24.4605 50.4986 24.4624 50.4498C24.4835 49.9437 22.4168 49.4375 19.8405 49.3251C17.2642 49.2126 15.1834 49.5465 15.1483 50.0526Z" fill="#8807F7"/>
<path opacity="0.4" d="M15.2074 50.1863C15.5272 50.6538 17.4498 51.0756 19.7766 51.1775C22.1034 51.2794 24.0681 51.0193 24.4196 50.58C24.1068 50.109 22.1842 49.6872 19.8504 49.5888C17.5166 49.4904 15.5659 49.747 15.2074 50.1863Z" fill="#8807F7"/>
<path d="M0.00397249 61.1243C-0.0311753 61.873 2.33427 62.5794 5.27614 62.7024C8.21801 62.8255 10.6397 62.3264 10.6713 61.5777C10.703 60.8291 8.34103 60.1226 5.39916 59.9996C2.45729 59.8766 0.0356055 60.3757 0.00397249 61.1243Z" fill="#8807F7"/>
<path d="M0.0573736 59.7642L0 61.1162L10.6823 61.5695L10.7397 60.2176L0.0573736 59.7642Z" fill="#8807F7"/>
<path d="M0.0594948 59.7708C0.0278618 60.5194 2.39331 61.2259 5.33166 61.3524C8.27002 61.479 10.6987 60.9728 10.7304 60.2242C10.762 59.4755 8.39655 58.7691 5.4582 58.6461C2.51984 58.523 0.0911278 59.0221 0.0594948 59.7708Z" fill="#8807F7"/>
<path opacity="0.4" d="M0.0594948 59.7708C0.0278618 60.5194 2.39331 61.2259 5.33166 61.3524C8.27002 61.479 10.6987 60.9728 10.7304 60.2242C10.762 59.4755 8.39655 58.7691 5.4582 58.6461C2.51984 58.523 0.0911278 59.0221 0.0594948 59.7708Z" fill="white"/>
<path d="M0.737377 59.7465C0.734496 59.7953 0.750906 59.8432 0.783068 59.88C1.13455 59.4407 3.09228 59.1771 5.42609 59.2825C7.75991 59.388 9.68952 59.8062 9.99531 60.2737C10.0274 60.2374 10.0471 60.1919 10.0515 60.1436C10.0726 59.6375 8.00594 59.1314 5.42961 59.0224C2.85327 58.9135 0.76198 59.2403 0.737377 59.7465Z" fill="#8807F7"/>
<path opacity="0.4" d="M0.737377 59.7465C0.734496 59.7953 0.750906 59.8432 0.783068 59.88C1.13455 59.4407 3.09228 59.1771 5.42609 59.2825C7.75991 59.388 9.68952 59.8062 9.99531 60.2737C10.0274 60.2374 10.0471 60.1919 10.0515 60.1436C10.0726 59.6375 8.00594 59.1314 5.42961 59.0224C2.85327 58.9135 0.76198 59.2403 0.737377 59.7465Z" fill="#8807F7"/>
<path opacity="0.4" d="M0.78727 59.8799C1.1036 60.3474 3.0297 60.7727 5.35648 60.8711C7.68327 60.9695 9.64803 60.7129 9.99951 60.2736C9.68669 59.8061 7.76411 59.3808 5.43029 59.2824C3.09648 59.184 1.14226 59.4546 0.78727 59.8799Z" fill="#8807F7"/>
<path d="M4.651 59.8062C4.47526 60.5337 6.66497 61.676 9.53654 62.3579C12.4081 63.0398 14.879 63.0046 15.0512 62.2771C15.2235 61.5495 13.0337 60.4072 10.1622 59.7253C7.2906 59.0435 4.82323 59.0786 4.651 59.8062Z" fill="#8807F7"/>
<path d="M4.96143 58.4965L4.64829 59.813L15.05 62.2872L15.3632 60.9707L4.96143 58.4965Z" fill="#8807F7"/>
<path d="M4.95586 58.4876C4.78013 59.2152 6.96983 60.3575 9.84141 61.0429C12.713 61.7283 15.1839 61.6896 15.3561 60.962C15.5283 60.2345 13.3492 59.1027 10.4741 58.3998C7.59898 57.6968 5.13512 57.7601 4.95586 58.4876Z" fill="#8807F7"/>
<path opacity="0.4" d="M4.95586 58.4876C4.78013 59.2152 6.96983 60.3575 9.84141 61.0429C12.713 61.7283 15.1839 61.6896 15.3561 60.962C15.5283 60.2345 13.3492 59.1027 10.4741 58.3998C7.59898 57.6968 5.13512 57.7601 4.95586 58.4876Z" fill="white"/>
<path d="M5.6338 58.5935C5.62341 58.6414 5.63091 58.6914 5.65489 58.7341C6.08721 58.3826 8.05549 58.4881 10.326 59.0293C12.5966 59.5706 14.4137 60.3509 14.6316 60.8676C14.6713 60.8396 14.6999 60.7985 14.7125 60.7516C14.8285 60.2595 12.8953 59.3703 10.3858 58.7728C7.87623 58.1753 5.75331 58.1014 5.6338 58.5935Z" fill="#8807F7"/>
<path opacity="0.4" d="M5.6338 58.5935C5.62341 58.6414 5.63091 58.6914 5.65489 58.7341C6.08721 58.3826 8.05549 58.4881 10.326 59.0293C12.5966 59.5706 14.4137 60.3509 14.6316 60.8676C14.6713 60.8396 14.6999 60.7985 14.7125 60.7516C14.8285 60.2595 12.8953 59.3703 10.3858 58.7728C7.87623 58.1753 5.75331 58.1014 5.6338 58.5935Z" fill="#8807F7"/>
<path opacity="0.4" d="M5.65794 58.7515C5.88288 59.2717 7.68948 60.052 9.96354 60.5897C12.2376 61.1275 14.2059 61.2505 14.6347 60.885C14.4168 60.3683 12.6067 59.588 10.3291 59.0467C8.0515 58.5055 6.08674 58.3684 5.65794 58.7515Z" fill="#8807F7"/>
<path d="M18.206 50.984C20.8654 50.984 23.0212 48.8282 23.0212 46.1688C23.0212 43.5094 20.8654 41.3535 18.206 41.3535C15.5466 41.3535 13.3907 43.5094 13.3907 46.1688C13.3907 48.8282 15.5466 50.984 18.206 50.984Z" fill="#8807F7"/>
<path d="M18.7817 50.984C21.441 50.984 23.5969 48.8282 23.5969 46.1688C23.5969 43.5094 21.441 41.3535 18.7817 41.3535C16.1223 41.3535 13.9664 43.5094 13.9664 46.1688C13.9664 48.8282 16.1223 50.984 18.7817 50.984Z" fill="#8807F7"/>
<path opacity="0.5" d="M18.7817 50.984C21.441 50.984 23.5969 48.8282 23.5969 46.1688C23.5969 43.5094 21.441 41.3535 18.7817 41.3535C16.1223 41.3535 13.9664 43.5094 13.9664 46.1688C13.9664 48.8282 16.1223 50.984 18.7817 50.984Z" fill="white"/>
<path d="M21.3329 48.7184C22.7412 47.3101 22.7412 45.0268 21.3329 43.6185C19.9246 42.2102 17.6413 42.2102 16.233 43.6185C14.8247 45.0268 14.8247 47.3101 16.233 48.7184C17.6413 50.1267 19.9246 50.1267 21.3329 48.7184Z" fill="#8807F7"/>
<path d="M86.2414 62.4384C86.2133 63.1836 83.8022 63.7037 80.8498 63.5983C77.8974 63.4929 75.5319 62.8004 75.5565 62.0553C75.5811 61.3102 77.9993 60.7865 80.9482 60.8919C83.8971 60.9974 86.2696 61.6898 86.2414 62.4384Z" fill="#8807F7"/>
<path d="M75.6011 60.6906L75.5527 62.043L86.2379 62.4254L86.2863 61.0731L75.6011 60.6906Z" fill="#8807F7"/>
<path d="M86.2917 61.0854C86.2635 61.8305 83.8524 62.3507 80.9 62.2453C77.9476 62.1398 75.5821 61.4474 75.6067 60.7023C75.6313 59.9572 78.046 59.4335 80.9984 59.5389C83.9508 59.6443 86.3198 60.3368 86.2917 61.0854Z" fill="#8807F7"/>
<path opacity="0.4" d="M86.2917 61.0854C86.2635 61.8305 83.8524 62.3507 80.9 62.2453C77.9476 62.1398 75.5821 61.4474 75.6067 60.7023C75.6313 59.9572 78.046 59.4335 80.9984 59.5389C83.9508 59.6443 86.3198 60.3368 86.2917 61.0854Z" fill="white"/>
<path d="M85.6129 61.0082C85.611 61.057 85.5909 61.1034 85.5567 61.1382C85.2368 60.6708 83.3107 60.2595 80.9875 60.1787C78.6642 60.0979 76.6959 60.365 76.348 60.8043C76.3171 60.7679 76.2997 60.722 76.2988 60.6743C76.3198 60.1682 78.4076 59.8237 80.9945 59.9151C83.5814 60.0065 85.6305 60.5091 85.6129 61.0082Z" fill="#8807F7"/>
<path opacity="0.4" d="M85.6129 61.0082C85.611 61.057 85.5909 61.1034 85.5567 61.1382C85.2368 60.6708 83.3107 60.2595 80.9875 60.1787C78.6642 60.0979 76.6959 60.365 76.348 60.8043C76.3171 60.7679 76.2997 60.722 76.2988 60.6743C76.3198 60.1682 78.4076 59.8237 80.9945 59.9151C83.5814 60.0065 85.6305 60.5091 85.6129 61.0082Z" fill="#8807F7"/>
<path opacity="0.4" d="M85.5577 61.138C85.2062 61.5773 83.252 61.8409 80.9182 61.7636C78.5844 61.6863 76.6512 61.2715 76.349 60.8041C76.7004 60.3647 78.6476 60.1011 80.9885 60.1784C83.3293 60.2558 85.2378 60.6705 85.5577 61.138Z" fill="#8807F7"/>
<path d="M87.5219 60.4845C87.4938 61.2296 85.0826 61.7498 82.1302 61.6444C79.1778 61.5389 76.8123 60.8465 76.8369 60.0978C76.8615 59.3492 79.2797 58.8325 82.2286 58.938C85.1775 59.0434 87.5535 59.7358 87.5219 60.4845Z" fill="#8807F7"/>
<path d="M76.8926 58.7561L76.8439 60.1084L87.529 60.4927L87.5776 59.1404L76.8926 58.7561Z" fill="#8807F7"/>
<path d="M87.5704 59.1314C87.5422 59.8766 85.1311 60.3968 82.1787 60.2913C79.2263 60.1859 76.8573 59.4935 76.8854 58.7448C76.9135 57.9962 79.3247 57.4795 82.2771 57.5849C85.2295 57.6904 87.595 58.4004 87.5704 59.1314Z" fill="#8807F7"/>
<path opacity="0.4" d="M87.5704 59.1314C87.5422 59.8766 85.1311 60.3968 82.1787 60.2913C79.2263 60.1859 76.8573 59.4935 76.8854 58.7448C76.9135 57.9962 79.3247 57.4795 82.2771 57.5849C85.2295 57.6904 87.595 58.4004 87.5704 59.1314Z" fill="white"/>
<path d="M86.8934 59.0541C86.8919 59.102 86.8717 59.1475 86.8371 59.1806C86.5173 58.7167 84.5912 58.3054 82.2679 58.2246C79.9446 58.1438 77.9729 58.4109 77.6284 58.8502C77.5975 58.8138 77.5801 58.7679 77.5792 58.7202C77.6003 58.2141 79.6881 57.8696 82.2749 57.961C84.8618 58.0524 86.9109 58.548 86.8934 59.0541Z" fill="#8807F7"/>
<path opacity="0.4" d="M86.8934 59.0541C86.8919 59.102 86.8717 59.1475 86.8371 59.1806C86.5173 58.7167 84.5912 58.3054 82.2679 58.2246C79.9446 58.1438 77.9729 58.4109 77.6284 58.8502C77.5975 58.8138 77.5801 58.7679 77.5792 58.7202C77.6003 58.2141 79.6881 57.8696 82.2749 57.961C84.8618 58.0524 86.9109 58.548 86.8934 59.0541Z" fill="#8807F7"/>
<path opacity="0.4" d="M86.8507 59.1804C86.4992 59.6232 84.545 59.8833 82.2112 59.8095C79.8774 59.7357 77.9442 59.3174 77.642 58.85C77.9934 58.4106 79.9406 58.147 82.2815 58.2243C84.6223 58.3017 86.5168 58.7164 86.8507 59.1804Z" fill="#8807F7"/>
<path d="M87.5704 58.0103C87.5422 58.7589 85.1276 59.2791 82.1787 59.1736C79.2298 59.0682 76.8573 58.3758 76.8854 57.6271C76.9135 56.8785 79.3247 56.3618 82.2771 56.4673C85.2295 56.5727 87.595 57.2651 87.5704 58.0103Z" fill="#8807F7"/>
<path d="M76.9374 56.2839L76.8888 57.6362L87.5738 58.0206L87.6225 56.6682L76.9374 56.2839Z" fill="#8807F7"/>
<path d="M87.6188 56.6426C87.5906 57.3912 85.176 57.9114 82.2271 57.806C79.2782 57.7005 76.9057 57.0081 76.9338 56.2595C76.962 55.5108 79.3731 54.9941 82.322 55.0996C85.2709 55.205 87.6434 55.9115 87.6188 56.6426Z" fill="#8807F7"/>
<path opacity="0.4" d="M87.6188 56.6426C87.5906 57.3912 85.176 57.9114 82.2271 57.806C79.2782 57.7005 76.9057 57.0081 76.9338 56.2595C76.962 55.5108 79.3731 54.9941 82.322 55.0996C85.2709 55.205 87.6434 55.9115 87.6188 56.6426Z" fill="white"/>
<path d="M86.9419 56.583C86.9374 56.6302 86.9177 56.6746 86.8857 56.7095C86.5623 56.2456 84.6362 55.8344 82.3165 55.75C79.9967 55.6657 78.0249 55.9363 77.6769 56.3792C77.6463 56.3415 77.6301 56.2941 77.6313 56.2456C77.6313 55.7395 79.7401 55.3985 82.327 55.4899C84.9139 55.5813 86.9595 56.0769 86.9419 56.583Z" fill="#8807F7"/>
<path opacity="0.4" d="M86.9419 56.583C86.9374 56.6302 86.9177 56.6746 86.8857 56.7095C86.5623 56.2456 84.6362 55.8344 82.3165 55.75C79.9967 55.6657 78.0249 55.9363 77.6769 56.3792C77.6463 56.3415 77.6301 56.2941 77.6313 56.2456C77.6313 55.7395 79.7401 55.3985 82.327 55.4899C84.9139 55.5813 86.9595 56.0769 86.9419 56.583Z" fill="#8807F7"/>
<path opacity="0.4" d="M86.8848 56.7098C86.5333 57.1526 84.5791 57.4127 82.2452 57.3389C79.9114 57.2651 77.9783 56.8469 77.676 56.3794C78.0275 55.9365 79.9747 55.6764 82.3155 55.7502C84.6564 55.8241 86.5614 56.2458 86.8848 56.7098Z" fill="#8807F7"/>
<path d="M88.849 56.0557C88.8209 56.8043 86.4062 57.3245 83.4573 57.2191C80.5084 57.1136 78.1359 56.4212 78.1641 55.6725C78.1922 54.9239 80.6033 54.4072 83.5557 54.5127C86.5081 54.6181 88.8736 55.3105 88.849 56.0557Z" fill="#8807F7"/>
<path d="M78.205 54.3132L78.1566 55.6655L88.8418 56.048L88.8902 54.6957L78.205 54.3132Z" fill="#8807F7"/>
<path d="M88.8957 54.7026C88.8711 55.4513 86.4564 55.9715 83.5075 55.866C80.5586 55.7606 78.1862 55.0682 78.2143 54.3195C78.2424 53.5709 80.6535 53.0542 83.6024 53.1596C86.5513 53.2651 88.9238 53.9575 88.8957 54.7026Z" fill="#8807F7"/>
<path opacity="0.4" d="M88.8957 54.7026C88.8711 55.4513 86.4564 55.9715 83.5075 55.866C80.5586 55.7606 78.1862 55.0682 78.2143 54.3195C78.2424 53.5709 80.6535 53.0542 83.6024 53.1596C86.5513 53.2651 88.9238 53.9575 88.8957 54.7026Z" fill="white"/>
<path d="M88.2205 54.6289C88.216 54.6761 88.1963 54.7205 88.1643 54.7554C87.8409 54.2915 85.9148 53.8803 83.5951 53.7959C81.2753 53.7116 79.3036 53.9822 78.9556 54.4251C78.9249 54.3874 78.9087 54.34 78.9099 54.2915C78.9275 53.7854 81.0188 53.4444 83.6056 53.5358C86.1925 53.6272 88.2557 54.1228 88.2205 54.6289Z" fill="#8807F7"/>
<path opacity="0.4" d="M88.2205 54.6289C88.216 54.6761 88.1963 54.7205 88.1643 54.7554C87.8409 54.2915 85.9148 53.8803 83.5951 53.7959C81.2753 53.7116 79.3036 53.9822 78.9556 54.4251C78.9249 54.3874 78.9087 54.34 78.9099 54.2915C78.9275 53.7854 81.0188 53.4444 83.6056 53.5358C86.1925 53.6272 88.2557 54.1228 88.2205 54.6289Z" fill="#8807F7"/>
<path opacity="0.4" d="M88.1652 54.7557C87.8137 55.1985 85.8595 55.4586 83.5257 55.3848C81.1919 55.311 79.2587 54.8928 78.9565 54.4253C79.3079 53.9824 81.2551 53.7223 83.596 53.7961C85.9368 53.87 87.8418 54.2917 88.1652 54.7557Z" fill="#8807F7"/>
<path d="M46.4313 60.9343C46.3996 61.6829 48.7616 62.3894 51.7034 62.5159C54.6453 62.6424 57.067 62.1363 57.0986 61.3877C57.1302 60.639 54.7683 59.9326 51.8264 59.8095C48.8846 59.6865 46.4523 60.1891 46.4313 60.9343Z" fill="#8807F7"/>
<path d="M46.4704 59.5767L46.413 60.9287L57.0954 61.382L57.1527 60.0301L46.4704 59.5767Z" fill="#8807F7"/>
<path d="M46.4761 59.5807C46.4445 60.3294 48.8099 61.0359 51.7483 61.1624C54.6866 61.2889 57.1153 60.7828 57.147 60.0342C57.1786 59.2855 54.8131 58.579 51.8748 58.456C48.9364 58.333 46.5077 58.8356 46.4761 59.5807Z" fill="#8807F7"/>
<path opacity="0.4" d="M46.4761 59.5807C46.4445 60.3294 48.8099 61.0359 51.7483 61.1624C54.6866 61.2889 57.1153 60.7828 57.147 60.0342C57.1786 59.2855 54.8131 58.579 51.8748 58.456C48.9364 58.333 46.5077 58.8356 46.4761 59.5807Z" fill="white"/>
<path d="M47.1574 59.5599C47.1554 59.6075 47.1718 59.654 47.2031 59.6899C47.5546 59.2506 49.5123 58.987 51.8461 59.0924C54.1799 59.1979 56.1095 59.6161 56.4153 60.0836C56.4474 60.0473 56.4671 60.0018 56.4716 59.9535C56.4927 59.4474 54.426 58.9413 51.8496 58.8323C49.2733 58.7234 47.1785 59.0537 47.1574 59.5599Z" fill="#8807F7"/>
<path opacity="0.4" d="M47.1574 59.5599C47.1554 59.6075 47.1718 59.654 47.2031 59.6899C47.5546 59.2506 49.5123 58.987 51.8461 59.0924C54.1799 59.1979 56.1095 59.6161 56.4153 60.0836C56.4474 60.0473 56.4671 60.0018 56.4716 59.9535C56.4927 59.4474 54.426 58.9413 51.8496 58.8323C49.2733 58.7234 47.1785 59.0537 47.1574 59.5599Z" fill="#8807F7"/>
<path opacity="0.4" d="M47.2039 59.6899C47.5202 60.1609 49.4463 60.5826 51.7731 60.6811C54.0999 60.7795 56.0646 60.5229 56.4161 60.0835C56.1033 59.6161 54.1807 59.1943 51.8469 59.0924C49.5131 58.9904 47.5589 59.2505 47.2039 59.6899Z" fill="#8807F7"/>
<path d="M45.2961 58.885C45.2645 59.6336 47.6299 60.3401 50.5683 60.4666C53.5066 60.5931 55.9353 60.087 55.967 59.3384C55.9986 58.5897 53.6331 57.8832 50.6948 57.7602C47.7564 57.6372 45.3277 58.1398 45.2961 58.885Z" fill="#8807F7"/>
<path d="M45.3531 57.5382L45.2958 58.8901L55.9781 59.3435L56.0355 57.9915L45.3531 57.5382Z" fill="#8807F7"/>
<path d="M45.3535 57.5323C45.3218 58.281 47.6873 58.9874 50.6256 59.114C53.564 59.2405 55.9927 58.7344 56.0243 57.9857C56.056 57.2371 53.6905 56.5341 50.7522 56.4076C47.8138 56.281 45.3746 56.7872 45.3535 57.5323Z" fill="#8807F7"/>
<path opacity="0.4" d="M45.3535 57.5323C45.3218 58.281 47.6873 58.9874 50.6256 59.114C53.564 59.2405 55.9927 58.7344 56.0243 57.9857C56.056 57.2371 53.6905 56.5341 50.7522 56.4076C47.8138 56.281 45.3746 56.7872 45.3535 57.5323Z" fill="white"/>
<path d="M46.0328 57.5105C46.0347 57.5586 46.0506 57.605 46.0785 57.6441C46.43 57.2048 48.3913 56.9412 50.7215 57.0431C53.0518 57.145 54.9885 57.5668 55.2908 58.0342C55.3252 57.9992 55.3464 57.9532 55.3505 57.9042C55.3716 57.3981 53.3049 56.8919 50.7286 56.783C48.1522 56.674 46.0574 56.9939 46.0328 57.5105Z" fill="#8807F7"/>
<path opacity="0.4" d="M46.0328 57.5105C46.0347 57.5586 46.0506 57.605 46.0785 57.6441C46.43 57.2048 48.3913 56.9412 50.7215 57.0431C53.0518 57.145 54.9885 57.5668 55.2908 58.0342C55.3252 57.9992 55.3464 57.9532 55.3505 57.9042C55.3716 57.3981 53.3049 56.8919 50.7286 56.783C48.1522 56.674 46.0574 56.9939 46.0328 57.5105Z" fill="#8807F7"/>
<path opacity="0.4" d="M46.0777 57.6444C46.3975 58.1118 48.3201 58.5336 50.6469 58.632C52.9737 58.7304 54.9419 58.4739 55.2899 58.0345C54.9806 57.567 53.0545 57.1453 50.7207 57.0433C48.3869 56.9414 46.4291 57.205 46.0777 57.6444Z" fill="#8807F7"/>
<path d="M45.4431 56.4181C45.4115 57.1668 47.777 57.8733 50.7153 57.9998C53.6537 58.1263 56.0824 57.6202 56.114 56.8716C56.1456 56.1229 53.7802 55.4164 50.8418 55.2934C47.9035 55.1704 45.4748 55.673 45.4431 56.4181Z" fill="#8807F7"/>
<path d="M45.4966 55.064L45.4392 56.416L56.1216 56.8693L56.179 55.5174L45.4966 55.064Z" fill="#8807F7"/>
<path d="M45.4987 55.0646C45.4671 55.8133 47.8325 56.5198 50.7709 56.6463C53.7093 56.7728 56.138 56.2667 56.1696 55.518C56.2012 54.7694 53.8358 54.0629 50.8974 53.9399C47.9591 53.8169 45.5304 54.3195 45.4987 55.0646Z" fill="#8807F7"/>
<path opacity="0.4" d="M45.4987 55.0646C45.4671 55.8133 47.8325 56.5198 50.7709 56.6463C53.7093 56.7728 56.138 56.2667 56.1696 55.518C56.2012 54.7694 53.8358 54.0629 50.8974 53.9399C47.9591 53.8169 45.5304 54.3195 45.4987 55.0646Z" fill="white"/>
<path d="M46.18 55.0434C46.1781 55.091 46.1944 55.1376 46.2257 55.1735C46.5772 54.7376 48.5349 54.4705 50.8688 54.576C53.2026 54.6814 55.1322 55.0997 55.438 55.5671C55.47 55.5308 55.4897 55.4853 55.4942 55.4371C55.5153 54.931 53.4486 54.4248 50.8723 54.3159C48.2959 54.2069 46.2011 54.5338 46.18 55.0434Z" fill="#8807F7"/>
<path opacity="0.4" d="M46.18 55.0434C46.1781 55.091 46.1944 55.1376 46.2257 55.1735C46.5772 54.7376 48.5349 54.4705 50.8688 54.576C53.2026 54.6814 55.1322 55.0997 55.438 55.5671C55.47 55.5308 55.4897 55.4853 55.4942 55.4371C55.5153 54.931 53.4486 54.4248 50.8723 54.3159C48.2959 54.2069 46.2011 54.5338 46.18 55.0434Z" fill="#8807F7"/>
<path opacity="0.4" d="M46.2247 55.1736C46.541 55.6446 48.4671 56.0663 50.7939 56.1648C53.1207 56.2632 55.0855 56.0066 55.437 55.5672C55.1241 55.0998 53.2016 54.678 50.8677 54.5761C48.5339 54.4741 46.5797 54.7378 46.2247 55.1736Z" fill="#8807F7"/>
<path d="M44.3205 54.3687C44.2889 55.1174 46.6543 55.8239 49.5927 55.9504C52.531 56.0769 54.9598 55.5708 54.9914 54.8221C55.023 54.0735 52.6576 53.3705 49.7192 53.244C46.7809 53.1175 44.3486 53.6236 44.3205 54.3687Z" fill="#8807F7"/>
<path d="M44.3722 53.0118L44.3148 54.3638L54.9972 54.8171L55.0545 53.4651L44.3722 53.0118Z" fill="#8807F7"/>
<path d="M44.3779 53.0157C44.3463 53.7643 46.7117 54.4708 49.6501 54.5973C52.5884 54.7239 55.0171 54.2178 55.0488 53.4691C55.0804 52.7205 52.715 52.0175 49.7766 51.891C46.8383 51.7644 44.4095 52.2706 44.3779 53.0157Z" fill="#8807F7"/>
<path opacity="0.4" d="M44.3779 53.0157C44.3463 53.7643 46.7117 54.4708 49.6501 54.5973C52.5884 54.7239 55.0171 54.2178 55.0488 53.4691C55.0804 52.7205 52.715 52.0175 49.7766 51.891C46.8383 51.7644 44.4095 52.2706 44.3779 53.0157Z" fill="white"/>
<path d="M45.0591 52.9945C45.0578 53.0424 45.0727 53.0895 45.1013 53.128C45.4528 52.6887 47.414 52.4251 49.7478 52.5305C52.0817 52.6359 54.0113 53.0507 54.3171 53.5182C54.3498 53.4823 54.3696 53.4365 54.3733 53.3881C54.3944 52.8855 52.3277 52.3759 49.7514 52.2669C47.175 52.1579 45.0802 52.4883 45.0591 52.9945Z" fill="#8807F7"/>
<path opacity="0.4" d="M45.0591 52.9945C45.0578 53.0424 45.0727 53.0895 45.1013 53.128C45.4528 52.6887 47.414 52.4251 49.7478 52.5305C52.0817 52.6359 54.0113 53.0507 54.3171 53.5182C54.3498 53.4823 54.3696 53.4365 54.3733 53.3881C54.3944 52.8855 52.3277 52.3759 49.7514 52.2669C47.175 52.1579 45.0802 52.4883 45.0591 52.9945Z" fill="#8807F7"/>
<path opacity="0.4" d="M45.1003 53.1277C45.4201 53.5952 47.3427 54.017 49.6695 54.1154C51.9963 54.2138 53.9646 53.9572 54.3161 53.5179C54.0032 53.0504 52.0771 52.6286 49.7468 52.5302C47.4165 52.4318 45.4588 52.6884 45.1003 53.1277Z" fill="#8807F7"/>
<path d="M46.0331 52.6329C46.0015 53.3815 48.367 54.088 51.3053 54.2145C54.2437 54.3411 56.6724 53.8349 56.704 53.0863C56.7357 52.3376 54.3702 51.6347 51.4318 51.5082C48.4935 51.3816 46.0788 51.8878 46.0331 52.6329Z" fill="#8807F7"/>
<path d="M46.092 51.2808L46.0346 52.6328L56.717 53.0861L56.7743 51.7342L46.092 51.2808Z" fill="#8807F7"/>
<path d="M46.078 51.2794C46.0463 52.028 48.4118 52.7345 51.3501 52.861C54.2885 52.9876 56.7172 52.4814 56.7488 51.7328C56.7805 50.9841 54.415 50.2812 51.4767 50.1546C48.5383 50.0281 46.1202 50.5342 46.078 51.2794Z" fill="#8807F7"/>
<path opacity="0.4" d="M46.078 51.2794C46.0463 52.028 48.4118 52.7345 51.3501 52.861C54.2885 52.9876 56.7172 52.4814 56.7488 51.7328C56.7805 50.9841 54.415 50.2812 51.4767 50.1546C48.5383 50.0281 46.1202 50.5342 46.078 51.2794Z" fill="white"/>
<path d="M46.7824 51.2581C46.7824 51.3065 46.7985 51.3535 46.8281 51.3917C47.1796 50.9523 49.1373 50.6887 51.4712 50.7942C53.805 50.8996 55.7346 51.3144 56.0404 51.7818C56.0579 51.765 56.0719 51.7448 56.0816 51.7225C56.0913 51.7001 56.0964 51.6761 56.0966 51.6518C56.1177 51.1492 54.051 50.6395 51.4747 50.5306C48.8983 50.4216 46.7824 50.752 46.7824 51.2581Z" fill="#8807F7"/>
<path opacity="0.4" d="M46.7824 51.2581C46.7824 51.3065 46.7985 51.3535 46.8281 51.3917C47.1796 50.9523 49.1373 50.6887 51.4712 50.7942C53.805 50.8996 55.7346 51.3144 56.0404 51.7818C56.0579 51.765 56.0719 51.7448 56.0816 51.7225C56.0913 51.7001 56.0964 51.6761 56.0966 51.6518C56.1177 51.1492 54.051 50.6395 51.4747 50.5306C48.8983 50.4216 46.7824 50.752 46.7824 51.2581Z" fill="#8807F7"/>
<path opacity="0.4" d="M46.8165 51.3919C47.1364 51.8594 49.0589 52.2811 51.3857 52.3796C53.7125 52.478 55.6773 52.2214 56.0287 51.782C55.7159 51.3146 53.7933 50.8928 51.4595 50.7944C49.1257 50.696 47.175 50.9526 46.8165 51.3919Z" fill="#8807F7"/>
<path d="M44.9123 50.5871C44.8807 51.3322 47.2461 52.0387 50.1845 52.1652C53.1228 52.2918 55.548 51.7856 55.5832 51.0405C55.6183 50.2954 53.2494 49.5854 50.311 49.4588C47.3727 49.3323 44.9439 49.8384 44.9123 50.5871Z" fill="#8807F7"/>
<path d="M44.964 49.2281L44.9066 50.5801L55.589 51.0334L55.6463 49.6814L44.964 49.2281Z" fill="#8807F7"/>
<path d="M44.9679 49.2341C44.9363 49.9792 47.3017 50.6857 50.2401 50.8122C53.1784 50.9387 55.6072 50.4326 55.6388 49.6875C55.6704 48.9423 53.305 48.2323 50.3666 48.1058C47.4283 47.9793 44.9995 48.4854 44.9679 49.2341Z" fill="#8807F7"/>
<path opacity="0.4" d="M44.9679 49.2341C44.9363 49.9792 47.3017 50.6857 50.2401 50.8122C53.1784 50.9387 55.6072 50.4326 55.6388 49.6875C55.6704 48.9423 53.305 48.2323 50.3666 48.1058C47.4283 47.9793 44.9995 48.4854 44.9679 49.2341Z" fill="white"/>
<path d="M45.6492 49.2088C45.6471 49.2575 45.6634 49.3052 45.6949 49.3424C46.0464 48.903 48.0041 48.6394 50.338 48.7449C52.6718 48.8503 54.6014 49.265 54.9072 49.7325C54.9392 49.6976 54.9589 49.6532 54.9634 49.606C54.9845 49.0999 52.9178 48.5902 50.3415 48.4812C47.7651 48.3723 45.6703 48.7027 45.6492 49.2088Z" fill="#8807F7"/>
<path opacity="0.4" d="M45.6492 49.2088C45.6471 49.2575 45.6634 49.3052 45.6949 49.3424C46.0464 48.903 48.0041 48.6394 50.338 48.7449C52.6718 48.8503 54.6014 49.265 54.9072 49.7325C54.9392 49.6976 54.9589 49.6532 54.9634 49.606C54.9845 49.0999 52.9178 48.5902 50.3415 48.4812C47.7651 48.3723 45.6703 48.7027 45.6492 49.2088Z" fill="#8807F7"/>
<path opacity="0.4" d="M45.6957 49.3427C46.012 49.8102 47.9381 50.2319 50.2649 50.3304C52.5917 50.4288 54.5564 50.1722 54.9079 49.7328C54.5951 49.2654 52.6725 48.8436 50.3387 48.7452C48.0049 48.6468 46.0507 48.9104 45.6957 49.3427Z" fill="#8807F7"/>
<path d="M56.7114 49.1315C56.743 49.8767 54.3776 50.5866 51.4392 50.7096C48.5009 50.8327 46.0792 50.316 46.03 49.5849C45.9808 48.8539 48.3603 48.1298 51.3022 48.0033C54.244 47.8767 56.6763 48.3829 56.7114 49.1315Z" fill="#8807F7"/>
<path d="M56.4145 48.1309L45.7226 48.5586L45.7767 49.9118L56.4687 49.4841L56.4145 48.1309Z" fill="#8807F7"/>
<path d="M56.6502 47.7785C56.6818 48.5236 54.3164 49.2336 51.378 49.3566C48.4397 49.4796 46.011 48.9805 45.9793 48.2319C45.9477 47.4833 48.3132 46.7768 51.2515 46.6502C54.1899 46.5237 56.6221 47.0298 56.6502 47.7785Z" fill="#8807F7"/>
<path opacity="0.4" d="M56.6502 47.7785C56.6818 48.5236 54.3164 49.2336 51.378 49.3566C48.4397 49.4796 46.011 48.9805 45.9793 48.2319C45.9477 47.4833 48.3132 46.7768 51.2515 46.6502C54.1899 46.5237 56.6221 47.0298 56.6502 47.7785Z" fill="white"/>
<path d="M55.9694 47.7538C55.9723 47.8026 55.9559 47.8506 55.9237 47.8874C55.5723 47.448 53.6145 47.1844 51.2807 47.2899C48.9469 47.3953 47.0173 47.81 46.7115 48.281C46.6801 48.2443 46.6604 48.199 46.6553 48.151C46.6342 47.6448 48.7009 47.1387 51.2772 47.0297C53.8535 46.9208 55.9484 47.2477 55.9694 47.7538Z" fill="#8807F7"/>
<path opacity="0.4" d="M55.9694 47.7538C55.9723 47.8026 55.9559 47.8506 55.9237 47.8874C55.5723 47.448 53.6145 47.1844 51.2807 47.2899C48.9469 47.3953 47.0173 47.81 46.7115 48.281C46.6801 48.2443 46.6604 48.199 46.6553 48.151C46.6342 47.6448 48.7009 47.1387 51.2772 47.0297C53.8535 46.9208 55.9484 47.2477 55.9694 47.7538Z" fill="#8807F7"/>
<path opacity="0.4" d="M55.9194 47.8875C55.603 48.355 53.6769 48.7767 51.3501 48.8787C49.0234 48.9806 47.0586 48.7205 46.7071 48.2811C47.0199 47.8102 48.9425 47.3884 51.2763 47.29C53.6102 47.1916 55.5679 47.4481 55.9194 47.8875Z" fill="#8807F7"/>
<path d="M57.832 47.0823C57.8636 47.831 55.4982 48.5374 52.5598 48.6605C49.6215 48.7835 47.1928 48.2844 47.1611 47.5357C47.1295 46.7871 49.495 46.0806 52.4333 45.9576C55.3717 45.8346 57.8004 46.3337 57.832 47.0823Z" fill="#8807F7"/>
<path d="M57.775 45.7264L47.0927 46.1797L47.1501 47.5317L57.8324 47.0783L57.775 45.7264Z" fill="#8807F7"/>
<path d="M57.7711 45.7469C57.8027 46.4955 55.4408 47.202 52.4989 47.3285C49.5571 47.4551 47.1354 46.9489 47.1038 46.2003C47.0721 45.4516 49.4341 44.7452 52.3759 44.6222C55.3178 44.4991 57.7395 44.9807 57.7711 45.7469Z" fill="#8807F7"/>
<path opacity="0.4" d="M57.7711 45.7469C57.8027 46.4955 55.4408 47.202 52.4989 47.3285C49.5571 47.4551 47.1354 46.9489 47.1038 46.2003C47.0721 45.4516 49.4341 44.7452 52.3759 44.6222C55.3178 44.4991 57.7395 44.9807 57.7711 45.7469Z" fill="white"/>
<path d="M57.0939 45.705C57.0932 45.7532 57.0772 45.7999 57.0482 45.8385C56.6967 45.3992 54.7355 45.1356 52.4052 45.241C50.0749 45.3465 48.1383 45.7647 47.836 46.2322C47.8012 46.1977 47.781 46.1511 47.7797 46.1021C47.7551 45.596 49.8254 45.0899 52.3982 44.9809C54.971 44.872 57.0693 45.1988 57.0939 45.705Z" fill="#8807F7"/>
<path opacity="0.4" d="M57.0939 45.705C57.0932 45.7532 57.0772 45.7999 57.0482 45.8385C56.6967 45.3992 54.7355 45.1356 52.4052 45.241C50.0749 45.3465 48.1383 45.7647 47.836 46.2322C47.8012 46.1977 47.781 46.1511 47.7797 46.1021C47.7551 45.596 49.8254 45.0899 52.3982 44.9809C54.971 44.872 57.0693 45.1988 57.0939 45.705Z" fill="#8807F7"/>
<path opacity="0.4" d="M57.0474 45.8384C56.7275 46.3058 54.8049 46.7311 52.4781 46.8295C50.1514 46.9279 48.1831 46.6714 47.8351 46.232C48.1444 45.7646 50.0705 45.3393 52.4043 45.2409C54.7381 45.1424 56.6888 45.3955 57.0474 45.8384Z" fill="#8807F7"/>
<path d="M57.6779 44.6149C57.7095 45.36 55.3476 46.07 52.4057 46.193C49.4638 46.3161 47.0421 45.817 47.0105 45.0683C46.9789 44.3197 49.3408 43.6132 52.2827 43.4867C55.2245 43.3601 57.6533 43.8663 57.6779 44.6149Z" fill="#8807F7"/>
<path d="M57.628 43.2635L46.9456 43.7168L47.003 45.0688L57.6853 44.6154L57.628 43.2635Z" fill="#8807F7"/>
<path d="M57.6276 43.2625C57.6592 44.0111 55.2938 44.7176 52.3554 44.8406C49.417 44.9636 46.9883 44.4645 46.9567 43.7159C46.9251 42.9672 49.2905 42.2608 52.2289 42.1378C55.1672 42.0147 57.5959 42.5138 57.6276 43.2625Z" fill="#8807F7"/>
<path opacity="0.4" d="M57.6276 43.2625C57.6592 44.0111 55.2938 44.7176 52.3554 44.8406C49.417 44.9636 46.9883 44.4645 46.9567 43.7159C46.9251 42.9672 49.2905 42.2608 52.2289 42.1378C55.1672 42.0147 57.5959 42.5138 57.6276 43.2625Z" fill="white"/>
<path d="M56.9468 43.2372C56.9497 43.286 56.9333 43.334 56.9011 43.3708C56.5496 42.9314 54.5919 42.6678 52.2581 42.7732C49.9243 42.8787 47.9947 43.2969 47.6889 43.7644C47.6574 43.7277 47.6378 43.6824 47.6326 43.6344C47.6115 43.1282 49.6782 42.6221 52.2546 42.5131C54.8309 42.4042 56.9257 42.7311 56.9468 43.2372Z" fill="#8807F7"/>
<path opacity="0.4" d="M56.9468 43.2372C56.9497 43.286 56.9333 43.334 56.9011 43.3708C56.5496 42.9314 54.5919 42.6678 52.2581 42.7732C49.9243 42.8787 47.9947 43.2969 47.6889 43.7644C47.6574 43.7277 47.6378 43.6824 47.6326 43.6344C47.6115 43.1282 49.6782 42.6221 52.2546 42.5131C54.8309 42.4042 56.9257 42.7311 56.9468 43.2372Z" fill="#8807F7"/>
<path opacity="0.4" d="M56.9003 43.3712C56.584 43.8387 54.6579 44.264 52.3311 44.3624C50.0043 44.4608 48.0395 44.2042 47.6881 43.7649C48.0009 43.2974 49.9235 42.8721 52.2573 42.7737C54.5911 42.6753 56.5453 42.9354 56.9003 43.3712Z" fill="#8807F7"/>
<path d="M58.8094 42.5838C58.841 43.3324 56.4756 44.0389 53.5372 44.1655C50.5989 44.292 48.1701 43.7859 48.1385 43.0372C48.1069 42.2886 50.4723 41.5821 53.4107 41.4591C56.349 41.336 58.7777 41.8176 58.8094 42.5838Z" fill="#8807F7"/>
<path d="M58.7416 41.2176L48.0593 41.6709L48.1167 43.0229L58.799 42.5695L58.7416 41.2176Z" fill="#8807F7"/>
<path d="M58.7502 41.2129C58.7818 41.9615 56.4164 42.668 53.478 42.7945C50.5397 42.9211 48.111 42.4149 48.0793 41.6663C48.0477 40.9176 50.4131 40.2112 53.3515 40.0882C56.2899 39.9651 58.7326 40.4748 58.7502 41.2129Z" fill="#8807F7"/>
<path opacity="0.4" d="M58.7502 41.2129C58.7818 41.9615 56.4164 42.668 53.478 42.7945C50.5397 42.9211 48.111 42.4149 48.0793 41.6663C48.0477 40.9176 50.4131 40.2112 53.3515 40.0882C56.2899 39.9651 58.7326 40.4748 58.7502 41.2129Z" fill="white"/>
<path d="M58.0711 41.1779C58.0699 41.225 58.0539 41.2705 58.0254 41.308C57.674 40.8686 55.7127 40.605 53.3824 40.7105C51.0521 40.8159 49.1155 41.2342 48.8132 41.7016C48.7787 41.6666 48.7576 41.6206 48.7535 41.5716C48.7324 41.0655 50.7991 40.5593 53.3754 40.4504C55.9517 40.3414 58.0465 40.6859 58.0711 41.1779Z" fill="#8807F7"/>
<path opacity="0.4" d="M58.0711 41.1779C58.0699 41.225 58.0539 41.2705 58.0254 41.308C57.674 40.8686 55.7127 40.605 53.3824 40.7105C51.0521 40.8159 49.1155 41.2342 48.8132 41.7016C48.7787 41.6666 48.7576 41.6206 48.7535 41.5716C48.7324 41.0655 50.7991 40.5593 53.3754 40.4504C55.9517 40.3414 58.0465 40.6859 58.0711 41.1779Z" fill="#8807F7"/>
<path opacity="0.4" d="M58.0283 41.3221C57.7085 41.7931 55.7859 42.2148 53.4591 42.3132C51.1323 42.4117 49.164 42.1551 48.8161 41.7157C49.1254 41.2483 51.0515 40.823 53.3853 40.7246C55.7191 40.6261 57.6768 40.8827 58.0283 41.3221Z" fill="#8807F7"/>
<path d="M57.0948 40.8263C57.1264 41.5749 54.761 42.2814 51.8226 42.4079C48.8843 42.5344 46.4309 42.0318 46.4309 41.2832C46.4309 40.5345 48.7648 39.8281 51.7031 39.7051C54.6415 39.582 57.0632 40.0846 57.0948 40.8263Z" fill="#8807F7"/>
<path d="M57.0398 39.4749L46.3574 39.9282L46.4148 41.2802L57.0971 40.8269L57.0398 39.4749Z" fill="#8807F7"/>
<path d="M57.0376 39.4767C57.0692 40.2253 54.7038 40.9318 51.7654 41.0583C48.827 41.1848 46.3983 40.6787 46.3667 39.9301C46.3351 39.1814 48.7005 38.4749 51.6389 38.3519C54.5772 38.2289 57.0059 38.7175 57.0376 39.4767Z" fill="#8807F7"/>
<path opacity="0.4" d="M57.0376 39.4767C57.0692 40.2253 54.7038 40.9318 51.7654 41.0583C48.827 41.1848 46.3983 40.6787 46.3667 39.9301C46.3351 39.1814 48.7005 38.4749 51.6389 38.3519C54.5772 38.2289 57.0059 38.7175 57.0376 39.4767Z" fill="white"/>
<path d="M56.355 39.4554C56.357 39.503 56.3406 39.5495 56.3093 39.5854C55.9578 39.1461 54.0001 38.8825 51.6663 38.9879C49.3325 39.0934 47.4029 39.5116 47.0971 39.9791C47.0636 39.9437 47.0437 39.8977 47.0408 39.849C47.0198 39.3429 49.0864 38.8368 51.6628 38.7278C54.2391 38.6189 56.3339 38.9493 56.355 39.4554Z" fill="#8807F7"/>
<path opacity="0.4" d="M56.355 39.4554C56.357 39.503 56.3406 39.5495 56.3093 39.5854C55.9578 39.1461 54.0001 38.8825 51.6663 38.9879C49.3325 39.0934 47.4029 39.5116 47.0971 39.9791C47.0636 39.9437 47.0437 39.8977 47.0408 39.849C47.0198 39.3429 49.0864 38.8368 51.6628 38.7278C54.2391 38.6189 56.3339 38.9493 56.355 39.4554Z" fill="#8807F7"/>
<path opacity="0.4" d="M56.3103 39.5854C55.9905 40.0564 54.0679 40.4782 51.7411 40.5766C49.4143 40.675 47.4495 40.4184 47.0981 39.9791C47.4109 39.5116 49.3335 39.0898 51.6673 38.9879C54.0011 38.886 55.9518 39.1461 56.3103 39.5854Z" fill="#8807F7"/>
<path d="M58.2194 38.7805C58.2511 39.5291 55.8856 40.2356 52.9473 40.3621C50.0089 40.4886 47.5837 39.9825 47.5521 39.2339C47.5205 38.4852 49.8824 37.7787 52.8243 37.6557C55.7661 37.5327 58.1843 38.0353 58.2194 38.7805Z" fill="#8807F7"/>
<path d="M58.157 37.4329L47.4747 37.8862L47.532 39.2382L58.2144 38.7849L58.157 37.4329Z" fill="#8807F7"/>
<path d="M58.1584 37.4278C58.19 38.1765 55.8246 38.8829 52.8862 39.0095C49.9479 39.136 47.5192 38.6299 47.4875 37.8812C47.4559 37.1326 49.8213 36.4296 52.7597 36.3031C55.6981 36.1766 58.1268 36.6827 58.1584 37.4278Z" fill="#8807F7"/>
<path opacity="0.4" d="M58.1584 37.4278C58.19 38.1765 55.8246 38.8829 52.8862 39.0095C49.9479 39.136 47.5192 38.6299 47.4875 37.8812C47.4559 37.1326 49.8213 36.4296 52.7597 36.3031C55.6981 36.1766 58.1268 36.6827 58.1584 37.4278Z" fill="white"/>
<path d="M57.4758 37.4066C57.4773 37.4551 57.4611 37.5026 57.4301 37.5401C57.0787 37.1008 55.1209 36.8372 52.7871 36.9391C50.4533 37.041 48.5237 37.4628 48.2179 37.9303C48.1859 37.894 48.1662 37.8484 48.1617 37.8002C48.1406 37.2941 50.2073 36.788 52.7836 36.679C55.3599 36.57 57.4547 36.9004 57.4758 37.4066Z" fill="#8807F7"/>
<path opacity="0.4" d="M57.4758 37.4066C57.4773 37.4551 57.4611 37.5026 57.4301 37.5401C57.0787 37.1008 55.1209 36.8372 52.7871 36.9391C50.4533 37.041 48.5237 37.4628 48.2179 37.9303C48.1859 37.894 48.1662 37.8484 48.1617 37.8002C48.1406 37.2941 50.2073 36.788 52.7836 36.679C55.3599 36.57 57.4547 36.9004 57.4758 37.4066Z" fill="#8807F7"/>
<path opacity="0.4" d="M57.4311 37.5399C57.1148 38.0073 55.1887 38.4291 52.8619 38.5275C50.5351 38.6259 48.5704 38.3694 48.2189 37.93C48.5317 37.4626 50.4543 37.0408 52.7881 36.9389C55.1219 36.8369 57.0761 37.1005 57.4311 37.5399Z" fill="#8807F7"/>
<path d="M53.7662 37.2493C56.2563 36.3158 57.5183 33.5403 56.5848 31.0502C55.6512 28.56 52.8758 27.2981 50.3856 28.2316C47.8955 29.1651 46.6336 31.9406 47.5671 34.4307C48.5006 36.9209 51.276 38.1828 53.7662 37.2493Z" fill="#8807F7"/>
<path d="M56.2743 36.0991C57.9979 34.0739 57.7534 31.0349 55.7281 29.3113C53.7029 27.5877 50.6639 27.8322 48.9403 29.8574C47.2167 31.8826 47.4612 34.9217 49.4864 36.6453C51.5116 38.3689 54.5507 38.1244 56.2743 36.0991Z" fill="#8807F7"/>
<path opacity="0.4" d="M56.2743 36.0991C57.9979 34.0739 57.7534 31.0349 55.7281 29.3113C53.7029 27.5877 50.6639 27.8322 48.9403 29.8574C47.2167 31.8826 47.4612 34.9217 49.4864 36.6453C51.5116 38.3689 54.5507 38.1244 56.2743 36.0991Z" fill="white"/>
<path d="M55.8876 34.4613C55.5924 35.1096 55.1116 35.6559 54.506 36.031C53.9004 36.4062 53.1971 36.5933 52.4852 36.5689C51.7732 36.5444 51.0845 36.3095 50.506 35.8937C49.9276 35.4778 49.4854 34.8999 49.2353 34.2328C48.9853 33.5657 48.9387 32.8395 49.1013 32.1459C49.2639 31.4523 49.6285 30.8226 50.149 30.3362C50.6695 29.8498 51.3225 29.5286 52.0255 29.4133C52.7285 29.2979 53.4499 29.3936 54.0986 29.6882C54.9684 30.0843 55.6455 30.8095 55.9809 31.7045C56.3164 32.5994 56.2828 33.591 55.8876 34.4613Z" fill="#8807F7"/>
<path d="M97.991 60.2353C97.882 60.6746 96.3918 60.6781 94.6625 60.2353C92.9332 59.7924 91.6187 59.093 91.7277 58.6572C91.8366 58.2213 93.3304 58.2143 95.0597 58.6572C96.7889 59.1 98.0964 59.8065 97.991 60.2353Z" fill="#8807F7"/>
<path d="M91.9311 57.876L91.7321 58.6704L97.9953 60.239L98.1943 59.4446L91.9311 57.876Z" fill="#8807F7"/>
<path d="M98.1919 59.4544C98.0794 59.8937 96.5891 59.8972 94.8598 59.4544C93.1306 59.0115 91.8196 58.3156 91.9285 57.8762C92.0375 57.4369 93.5277 57.4334 95.257 57.8762C96.9863 58.3191 98.3008 59.0045 98.1919 59.4544Z" fill="#8807F7"/>
<path opacity="0.4" d="M98.1919 59.4544C98.0794 59.8937 96.5891 59.8972 94.8598 59.4544C93.1306 59.0115 91.8196 58.3156 91.9285 57.8762C92.0375 57.4369 93.5277 57.4334 95.257 57.8762C96.9863 58.3191 98.3008 59.0045 98.1919 59.4544Z" fill="white"/>
<path d="M97.7985 59.3106C97.7955 59.3251 97.7896 59.3388 97.7811 59.3508C97.7727 59.3629 97.7619 59.3732 97.7493 59.3809C97.6193 59.0646 96.5332 58.5796 95.166 58.2386C93.7987 57.8977 92.6072 57.8098 92.3541 58.0278C92.3473 58.0001 92.3473 57.9711 92.3541 57.9434C92.4315 57.6446 93.7144 57.7079 95.2257 58.084C96.7371 58.4601 97.8759 59.0154 97.7985 59.3106Z" fill="#8807F7"/>
<path opacity="0.4" d="M97.7985 59.3106C97.7955 59.3251 97.7896 59.3388 97.7811 59.3508C97.7727 59.3629 97.7619 59.3732 97.7493 59.3809C97.6193 59.0646 96.5332 58.5796 95.166 58.2386C93.7987 57.8977 92.6072 57.8098 92.3541 58.0278C92.3473 58.0001 92.3473 57.9711 92.3541 57.9434C92.4315 57.6446 93.7144 57.7079 95.2257 58.084C96.7371 58.4601 97.8759 59.0154 97.7985 59.3106Z" fill="#8807F7"/>
<path opacity="0.4" d="M97.7459 59.3808C97.4823 59.5952 96.2978 59.5108 94.9341 59.1699C93.5704 58.829 92.4737 58.3404 92.3472 58.0276C92.6108 57.8097 93.7953 57.894 95.159 58.2385C96.5228 58.5829 97.6194 59.0645 97.7459 59.3808Z" fill="#8807F7"/>
<path d="M100.999 61.6756C101.02 62.1255 99.5933 62.5543 97.8078 62.6281C96.0223 62.7019 94.5672 62.3996 94.5496 61.9497C94.532 61.4998 95.9555 61.071 97.741 60.9937C99.5265 60.9164 100.982 61.2116 100.999 61.6756Z" fill="#8807F7"/>
<path d="M100.959 60.8649L94.5082 61.1387L94.5429 61.9569L100.994 61.6831L100.959 60.8649Z" fill="#8807F7"/>
<path d="M100.965 60.8604C100.986 61.3138 99.5593 61.7391 97.7773 61.8165C95.9953 61.8938 94.5367 61.588 94.5156 61.1346C94.4945 60.6812 95.9215 60.2559 97.707 60.1821C99.4925 60.1083 100.948 60.407 100.965 60.8604Z" fill="#8807F7"/>
<path opacity="0.4" d="M100.965 60.8604C100.986 61.3138 99.5593 61.7391 97.7773 61.8165C95.9953 61.8938 94.5367 61.588 94.5156 61.1346C94.4945 60.6812 95.9215 60.2559 97.707 60.1821C99.4925 60.1083 100.948 60.407 100.965 60.8604Z" fill="white"/>
<path d="M100.557 60.8605C100.558 60.8752 100.556 60.8901 100.551 60.904C100.547 60.918 100.539 60.9307 100.528 60.9414C100.314 60.6778 99.1225 60.5196 97.7166 60.5899C96.3107 60.6602 95.1403 60.9062 94.9505 61.1874C94.931 61.1663 94.9197 61.1388 94.9188 61.1101C94.9188 60.8043 96.1525 60.4985 97.7096 60.4317C99.2666 60.3649 100.557 60.5372 100.557 60.8605Z" fill="#8807F7"/>
<path opacity="0.4" d="M100.557 60.8605C100.558 60.8752 100.556 60.8901 100.551 60.904C100.547 60.918 100.539 60.9307 100.528 60.9414C100.314 60.6778 99.1225 60.5196 97.7166 60.5899C96.3107 60.6602 95.1403 60.9062 94.9505 61.1874C94.931 61.1663 94.9197 61.1388 94.9188 61.1101C94.9188 60.8043 96.1525 60.4985 97.7096 60.4317C99.2666 60.3649 100.557 60.5372 100.557 60.8605Z" fill="#8807F7"/>
<path opacity="0.4" d="M100.526 60.9238C100.336 61.2049 99.1724 61.4615 97.7629 61.5213C96.3535 61.581 95.1725 61.4264 94.9511 61.1698C95.1409 60.8886 96.3043 60.632 97.7173 60.5723C99.1302 60.5125 100.311 60.6602 100.526 60.9238Z" fill="#8807F7"/>
<path d="M97.6068 60.0652C99.0661 57.8419 98.4468 54.8566 96.2235 53.3973C94.0003 51.9381 91.015 52.5574 89.5557 54.7806C88.0964 57.0039 88.7157 59.9891 90.939 61.4484C93.1622 62.9077 96.1475 62.2884 97.6068 60.0652Z" fill="#8807F7"/>
<path d="M97.6118 61.0292C96.9782 61.7402 96.1479 62.2474 95.226 62.4865C94.304 62.7256 93.3319 62.686 92.4325 62.3726C91.5331 62.0592 90.7469 61.4861 90.1732 60.7259C89.5995 59.9656 89.2642 59.0523 89.2096 58.1014C89.1551 57.1506 89.3837 56.2049 89.8666 55.384C90.3495 54.563 91.0651 53.9038 91.9227 53.4895C92.7803 53.0753 93.7415 52.9247 94.6848 53.0568C95.628 53.1889 96.5109 53.5977 97.2217 54.2316C98.1747 55.0814 98.7511 56.2749 98.8243 57.5496C98.8975 58.8243 98.4613 60.0759 97.6118 61.0292Z" fill="#8807F7"/>
<path opacity="0.4" d="M97.6118 61.0292C96.9782 61.7402 96.1479 62.2474 95.226 62.4865C94.304 62.7256 93.3319 62.686 92.4325 62.3726C91.5331 62.0592 90.7469 61.4861 90.1732 60.7259C89.5995 59.9656 89.2642 59.0523 89.2096 58.1014C89.1551 57.1506 89.3837 56.2049 89.8666 55.384C90.3495 54.563 91.0651 53.9038 91.9227 53.4895C92.7803 53.0753 93.7415 52.9247 94.6848 53.0568C95.628 53.1889 96.5109 53.5977 97.2217 54.2316C98.1747 55.0814 98.7511 56.2749 98.8243 57.5496C98.8975 58.8243 98.4613 60.0759 97.6118 61.0292Z" fill="white"/>
<path d="M96.6913 60.2241C96.2168 60.7568 95.595 61.1367 94.9045 61.3159C94.214 61.4951 93.4859 61.4655 92.8123 61.2308C92.1386 60.9961 91.5497 60.5669 91.12 59.9975C90.6904 59.428 90.4392 58.744 90.3984 58.0318C90.3576 57.3196 90.5289 56.6113 90.8907 55.9965C91.2525 55.3817 91.7885 54.888 92.4309 54.5778C93.0733 54.2677 93.7933 54.1551 94.4997 54.2542C95.2062 54.3533 95.8674 54.6598 96.3996 55.1347C96.7532 55.4496 97.0412 55.8311 97.2472 56.2573C97.4533 56.6836 97.5733 57.1463 97.6004 57.6189C97.6275 58.0916 97.5611 58.565 97.4051 59.012C97.2492 59.459 97.0066 59.8709 96.6913 60.2241Z" fill="#8807F7"/>
<path d="M34.4015 62.1225C34.3839 62.5724 35.8074 63.0012 37.5929 63.075C39.3784 63.1489 40.8335 62.8466 40.8511 62.3967C40.8687 61.9468 39.4452 61.518 37.6632 61.4407C35.8812 61.3633 34.4226 61.6691 34.4015 62.1225Z" fill="#8807F7"/>
<path d="M34.4396 61.3068L34.4049 62.125L40.8558 62.3988L40.8905 61.5805L34.4396 61.3068Z" fill="#8807F7"/>
<path d="M34.4374 61.303C34.4163 61.7564 35.8433 62.1817 37.6288 62.259C39.4144 62.3364 40.8695 62.0306 40.887 61.5772C40.9046 61.1238 39.4811 60.6985 37.6956 60.6247C35.9101 60.5509 34.455 60.8602 34.4374 61.303Z" fill="#8807F7"/>
<path opacity="0.4" d="M34.4374 61.303C34.4163 61.7564 35.8433 62.1817 37.6288 62.259C39.4144 62.3364 40.8695 62.0306 40.887 61.5772C40.9046 61.1238 39.4811 60.6985 37.6956 60.6247C35.9101 60.5509 34.455 60.8602 34.4374 61.303Z" fill="white"/>
<path d="M34.8497 61.2893C34.8499 61.3186 34.8598 61.347 34.8778 61.3702C35.0922 61.1066 36.2837 60.9484 37.6896 61.0187C39.0955 61.089 40.2624 61.335 40.4522 61.6197C40.4723 61.5972 40.4846 61.5689 40.4874 61.5389C40.4874 61.2331 39.2502 60.9273 37.6966 60.864C36.1431 60.8008 34.8637 60.9835 34.8497 61.2893Z" fill="#8807F7"/>
<path opacity="0.4" d="M34.8497 61.2893C34.8499 61.3186 34.8598 61.347 34.8778 61.3702C35.0922 61.1066 36.2837 60.9484 37.6896 61.0187C39.0955 61.089 40.2624 61.335 40.4522 61.6197C40.4723 61.5972 40.4846 61.5689 40.4874 61.5389C40.4874 61.2331 39.2502 60.9273 37.6966 60.864C36.1431 60.8008 34.8637 60.9835 34.8497 61.2893Z" fill="#8807F7"/>
<path opacity="0.4" d="M34.8766 61.3706C35.0699 61.6553 36.2298 61.9083 37.6392 61.9681C39.0486 62.0278 40.2331 61.8732 40.451 61.6166C40.2612 61.3319 39.1013 61.0789 37.6884 61.0156C36.2754 60.9523 35.091 61.107 34.8766 61.3706Z" fill="#8807F7"/>
<path d="M33.7234 60.8851C33.7234 61.335 35.1294 61.7638 36.9149 61.8376C38.7004 61.9114 40.1555 61.6092 40.1731 61.1593C40.1906 60.7094 38.7672 60.2806 36.9852 60.2033C35.2032 60.1259 33.7445 60.4352 33.7234 60.8851Z" fill="#8807F7"/>
<path d="M33.7546 60.0587L33.7199 60.877L40.1707 61.1507L40.2054 60.3325L33.7546 60.0587Z" fill="#8807F7"/>
<path d="M33.7773 60.0664C33.7773 60.5198 35.1832 60.9451 36.9687 61.0224C38.7542 61.0997 40.2093 60.794 40.2269 60.3405C40.2444 59.8871 38.821 59.4619 37.039 59.388C35.257 59.3142 33.7773 59.6165 33.7773 60.0664Z" fill="#8807F7"/>
<path opacity="0.4" d="M33.7773 60.0664C33.7773 60.5198 35.1832 60.9451 36.9687 61.0224C38.7542 61.0997 40.2093 60.794 40.2269 60.3405C40.2444 59.8871 38.821 59.4619 37.039 59.388C35.257 59.3142 33.7773 59.6165 33.7773 60.0664Z" fill="white"/>
<path d="M34.17 60.052C34.1702 60.0813 34.1801 60.1097 34.1981 60.1328C34.4125 59.8692 35.604 59.7145 37.0099 59.7813C38.4159 59.8481 39.5828 60.0941 39.7726 60.3788C39.7926 60.3563 39.805 60.328 39.8077 60.298C39.8077 59.9957 38.5705 59.6864 37.017 59.6231C35.4634 59.5599 34.1841 59.7462 34.17 60.052Z" fill="#8807F7"/>
<path opacity="0.4" d="M34.17 60.052C34.1702 60.0813 34.1801 60.1097 34.1981 60.1328C34.4125 59.8692 35.604 59.7145 37.0099 59.7813C38.4159 59.8481 39.5828 60.0941 39.7726 60.3788C39.7926 60.3563 39.805 60.328 39.8077 60.298C39.8077 59.9957 38.5705 59.6864 37.017 59.6231C35.4634 59.5599 34.1841 59.7462 34.17 60.052Z" fill="#8807F7"/>
<path opacity="0.4" d="M34.1987 60.1332C34.392 60.4179 35.5519 60.671 36.9613 60.7307C38.3707 60.7905 39.5552 60.6358 39.7731 60.3793C39.5833 60.0946 38.4234 59.8415 37.0105 59.7818C35.5976 59.722 34.4131 59.8696 34.1987 60.1332Z" fill="#8807F7"/>
<path d="M33.8113 59.3949C33.8113 59.8448 35.2172 60.2736 37.0027 60.3474C38.7882 60.4212 40.2434 60.1189 40.2609 59.669C40.2785 59.2191 38.855 58.7904 37.073 58.713C35.291 58.6357 33.8324 58.945 33.8113 59.3949Z" fill="#8807F7"/>
<path d="M33.8389 58.5685L33.8042 59.3867L40.255 59.6605L40.2897 58.8423L33.8389 58.5685Z" fill="#8807F7"/>
<path d="M33.8472 58.5757C33.8472 59.0291 35.2531 59.4544 37.0386 59.5317C38.8241 59.609 40.2792 59.3032 40.2968 58.8498C40.3144 58.3964 38.8909 57.9711 37.1089 57.8973C35.3269 57.8235 33.8683 58.1258 33.8472 58.5757Z" fill="#8807F7"/>
<path opacity="0.4" d="M33.8472 58.5757C33.8472 59.0291 35.2531 59.4544 37.0386 59.5317C38.8241 59.609 40.2792 59.3032 40.2968 58.8498C40.3144 58.3964 38.8909 57.9711 37.1089 57.8973C35.3269 57.8235 33.8683 58.1258 33.8472 58.5757Z" fill="white"/>
<path d="M34.2579 58.5616C34.2581 58.5909 34.268 58.6193 34.286 58.6424C34.5004 58.3788 35.6919 58.2241 37.0978 58.2909C38.5037 58.3577 39.6706 58.6037 39.8604 58.8884C39.8805 58.866 39.8928 58.8376 39.8956 58.8076C39.8956 58.5053 38.6584 58.196 37.1048 58.1328C35.5513 58.0695 34.2719 58.2593 34.2579 58.5616Z" fill="#8807F7"/>
<path opacity="0.4" d="M34.2579 58.5616C34.2581 58.5909 34.268 58.6193 34.286 58.6424C34.5004 58.3788 35.6919 58.2241 37.0978 58.2909C38.5037 58.3577 39.6706 58.6037 39.8604 58.8884C39.8805 58.866 39.8928 58.8376 39.8956 58.8076C39.8956 58.5053 38.6584 58.196 37.1048 58.1328C35.5513 58.0695 34.2719 58.2593 34.2579 58.5616Z" fill="#8807F7"/>
<path opacity="0.4" d="M34.2866 58.643C34.4799 58.9277 35.6398 59.1808 37.0492 59.2405C38.4586 59.3003 39.6431 59.1456 39.861 58.889C39.6712 58.6043 38.5113 58.3513 37.0984 58.2915C35.6854 58.2318 34.501 58.3794 34.2866 58.643Z" fill="#8807F7"/>
<path d="M33.1335 58.1574C33.1335 58.6073 34.5394 59.0361 36.3249 59.1099C38.1104 59.1837 39.5655 58.8815 39.5866 58.4316C39.6077 57.9817 38.1807 57.5529 36.3952 57.4755C34.6097 57.3982 33.1545 57.697 33.1335 58.1574Z" fill="#8807F7"/>
<path d="M33.1664 57.3346L33.1317 58.1528L39.5825 58.4266L39.6172 57.6084L33.1664 57.3346Z" fill="#8807F7"/>
<path d="M33.1695 57.3458C33.1519 57.7992 34.5754 58.2245 36.3609 58.3018C38.1464 58.3791 39.6015 58.0734 39.6191 57.6199C39.6367 57.1665 38.2132 56.7448 36.4312 56.6674C34.6492 56.5901 33.1906 56.8889 33.1695 57.3458Z" fill="#8807F7"/>
<path opacity="0.4" d="M33.1695 57.3458C33.1519 57.7992 34.5754 58.2245 36.3609 58.3018C38.1464 58.3791 39.6015 58.0734 39.6191 57.6199C39.6367 57.1665 38.2132 56.7448 36.4312 56.6674C34.6492 56.5901 33.1906 56.8889 33.1695 57.3458Z" fill="white"/>
<path d="M33.58 57.3247C33.5802 57.354 33.5901 57.3825 33.6081 57.4056C33.826 57.142 35.014 56.9873 36.4199 57.0541C37.8258 57.1209 38.9963 57.3669 39.1825 57.6516C39.2033 57.631 39.2158 57.6035 39.2177 57.5743C39.2177 57.2685 37.9805 56.9592 36.427 56.8959C34.8734 56.8327 33.594 57.0225 33.58 57.3247Z" fill="#8807F7"/>
<path opacity="0.4" d="M33.58 57.3247C33.5802 57.354 33.5901 57.3825 33.6081 57.4056C33.826 57.142 35.014 56.9873 36.4199 57.0541C37.8258 57.1209 38.9963 57.3669 39.1825 57.6516C39.2033 57.631 39.2158 57.6035 39.2177 57.5743C39.2177 57.2685 37.9805 56.9592 36.427 56.8959C34.8734 56.8327 33.594 57.0225 33.58 57.3247Z" fill="#8807F7"/>
<path opacity="0.4" d="M33.6069 57.4052C33.8002 57.6899 34.9601 57.943 36.3695 58.0027C37.7789 58.0625 38.9634 57.9078 39.1813 57.6512C38.995 57.3665 37.8317 57.1135 36.4187 57.0537C35.0058 56.994 33.8248 57.1416 33.6069 57.4052Z" fill="#8807F7"/>
<path d="M34.1702 57.1103C34.1491 57.5601 35.5761 57.989 37.3616 58.0628C39.1472 58.1366 40.6023 57.8343 40.6199 57.3844C40.6374 56.9345 39.2139 56.5057 37.4284 56.4284C35.6429 56.3511 34.1878 56.6428 34.1702 57.1103Z" fill="#8807F7"/>
<path d="M34.1975 56.2824L34.1628 57.1006L40.6137 57.3743L40.6484 56.5561L34.1975 56.2824Z" fill="#8807F7"/>
<path d="M34.2043 56.291C34.1832 56.7444 35.6102 57.1697 37.3922 57.247C39.1742 57.3243 40.6328 57.0186 40.6539 56.5652C40.675 56.1117 39.248 55.6865 37.4625 55.6127C35.677 55.5388 34.2219 55.8411 34.2043 56.291Z" fill="#8807F7"/>
<path opacity="0.4" d="M34.2043 56.291C34.1832 56.7444 35.6102 57.1697 37.3922 57.247C39.1742 57.3243 40.6328 57.0186 40.6539 56.5652C40.675 56.1117 39.248 55.6865 37.4625 55.6127C35.677 55.5388 34.2219 55.8411 34.2043 56.291Z" fill="white"/>
<path d="M34.617 56.291C34.6156 56.3057 34.6173 56.3206 34.6222 56.3345C34.627 56.3485 34.6349 56.3612 34.6451 56.3719C34.8595 56.1082 36.0511 55.9501 37.457 56.0204C38.8629 56.0907 40.0333 56.3367 40.2231 56.6179C40.2426 56.5968 40.2538 56.5693 40.2547 56.5406C40.2547 56.2348 39.021 55.929 37.464 55.8622C35.907 55.7954 34.6276 55.9712 34.617 56.291Z" fill="#8807F7"/>
<path opacity="0.4" d="M34.617 56.291C34.6156 56.3057 34.6173 56.3206 34.6222 56.3345C34.627 56.3485 34.6349 56.3612 34.6451 56.3719C34.8595 56.1082 36.0511 55.9501 37.457 56.0204C38.8629 56.0907 40.0333 56.3367 40.2231 56.6179C40.2426 56.5968 40.2538 56.5693 40.2547 56.5406C40.2547 56.2348 39.021 55.929 37.464 55.8622C35.907 55.7954 34.6276 55.9712 34.617 56.291Z" fill="#8807F7"/>
<path opacity="0.4" d="M34.6452 56.3583C34.835 56.6395 35.9984 56.8961 37.4078 56.9558C38.8173 57.0156 39.9982 56.8609 40.2197 56.6044C40.0299 56.3232 38.8665 56.0666 37.4535 56.0069C36.0406 55.9471 34.8596 56.0947 34.6452 56.3583Z" fill="#8807F7"/>
<path d="M29.6213 62.0486C29.7302 62.488 31.224 62.4915 32.9533 62.0486C34.6826 61.6057 35.9936 60.9098 35.8846 60.4705C35.7756 60.0311 34.2854 60.0276 32.5561 60.4705C30.8268 60.9133 29.5123 61.6128 29.6213 62.0486Z" fill="#8807F7"/>
<path d="M35.6881 59.6858L29.4249 61.2544L29.6238 62.0488L35.887 60.4802L35.6881 59.6858Z" fill="#8807F7"/>
<path d="M29.4244 61.2577C29.5334 61.6935 31.0236 61.7005 32.7529 61.2577C34.4822 60.8148 35.7967 60.1189 35.6842 59.683C35.5717 59.2472 34.085 59.2402 32.3557 59.683C30.6265 60.1259 29.3119 60.8183 29.4244 61.2577Z" fill="#8807F7"/>
<path opacity="0.4" d="M29.4244 61.2577C29.5334 61.6935 31.0236 61.7005 32.7529 61.2577C34.4822 60.8148 35.7967 60.1189 35.6842 59.683C35.5717 59.2472 34.085 59.2402 32.3557 59.683C30.6265 60.1259 29.3119 60.8183 29.4244 61.2577Z" fill="white"/>
<path d="M29.8156 61.1279C29.8232 61.1554 29.8407 61.1792 29.8648 61.1946C29.9948 60.8818 31.0809 60.3968 32.4517 60.0523C33.8224 59.7079 35.0069 59.6235 35.2635 59.8414C35.2741 59.8143 35.2741 59.7842 35.2635 59.7571C35.1897 59.4618 33.9033 59.5216 32.3954 59.9012C30.8876 60.2808 29.7418 60.8291 29.8156 61.1279Z" fill="#8807F7"/>
<path opacity="0.4" d="M29.8156 61.1279C29.8232 61.1554 29.8407 61.1792 29.8648 61.1946C29.9948 60.8818 31.0809 60.3968 32.4517 60.0523C33.8224 59.7079 35.0069 59.6235 35.2635 59.8414C35.2741 59.8143 35.2741 59.7842 35.2635 59.7571C35.1897 59.4618 33.9033 59.5216 32.3954 59.9012C30.8876 60.2808 29.7418 60.8291 29.8156 61.1279Z" fill="#8807F7"/>
<path opacity="0.4" d="M29.866 61.2119C30.1296 61.4298 31.3176 61.3455 32.6778 61.001C34.0381 60.6566 35.1382 60.1751 35.2647 59.8587C35.0011 59.6408 33.8166 59.7287 32.4529 60.0696C31.0892 60.4105 29.9961 60.8815 29.866 61.2119Z" fill="#8807F7"/>
<path d="M26.6309 62.1225C26.6309 62.5724 28.0368 63.0012 29.8223 63.075C31.6078 63.1489 33.0629 62.8466 33.0805 62.3967C33.0981 61.9468 31.6746 61.518 29.8926 61.4407C28.1106 61.3633 26.6519 61.6691 26.6309 62.1225Z" fill="#8807F7"/>
<path d="M26.662 61.2961L26.6273 62.1143L33.0781 62.388L33.1128 61.5698L26.662 61.2961Z" fill="#8807F7"/>
<path d="M26.6669 61.303C26.6493 61.7564 28.0728 62.1817 29.8583 62.259C31.6438 62.3364 33.0989 62.0306 33.1165 61.5772C33.1341 61.1238 31.7106 60.6985 29.9286 60.6247C28.1466 60.5509 26.688 60.8602 26.6669 61.303Z" fill="#8807F7"/>
<path opacity="0.4" d="M26.6669 61.303C26.6493 61.7564 28.0728 62.1817 29.8583 62.259C31.6438 62.3364 33.0989 62.0306 33.1165 61.5772C33.1341 61.1238 31.7106 60.6985 29.9286 60.6247C28.1466 60.5509 26.688 60.8602 26.6669 61.303Z" fill="white"/>
<path d="M27.0792 61.2893C27.0794 61.3186 27.0893 61.347 27.1073 61.3702C27.3217 61.1066 28.5132 60.9484 29.9191 61.0187C31.325 61.089 32.492 61.335 32.6818 61.6197C32.7018 61.5972 32.7142 61.5689 32.7169 61.5389C32.7169 61.2331 31.4797 60.9273 29.9262 60.864C28.3726 60.8008 27.1003 60.9835 27.0792 61.2893Z" fill="#8807F7"/>
<path opacity="0.4" d="M27.0792 61.2893C27.0794 61.3186 27.0893 61.347 27.1073 61.3702C27.3217 61.1066 28.5132 60.9484 29.9191 61.0187C31.325 61.089 32.492 61.335 32.6818 61.6197C32.7018 61.5972 32.7142 61.5689 32.7169 61.5389C32.7169 61.2331 31.4797 60.9273 29.9262 60.864C28.3726 60.8008 27.1003 60.9835 27.0792 61.2893Z" fill="#8807F7"/>
<path opacity="0.4" d="M27.0989 61.3706C27.2922 61.6553 28.4521 61.9083 29.8615 61.9681C31.271 62.0278 32.4554 61.8732 32.6734 61.6166C32.4836 61.3319 31.3237 61.0789 29.9107 61.0156C28.4978 60.9523 27.3203 61.107 27.0989 61.3706Z" fill="#8807F7"/>
<path d="M59.9475 62.0841C59.9264 62.5481 61.3956 62.9874 63.2268 63.0647C65.058 63.1421 66.5588 62.8292 66.5798 62.3618C66.6009 61.8943 65.1282 61.462 63.297 61.3812C61.4658 61.3003 59.965 61.6202 59.9475 62.0841Z" fill="#8807F7"/>
<path d="M59.9757 61.233L59.9401 62.0723L66.5735 62.3538L66.6091 61.5145L59.9757 61.233Z" fill="#8807F7"/>
<path d="M59.9833 61.2438C59.9622 61.7077 61.4314 62.1471 63.2626 62.2244C65.0938 62.3017 66.5946 61.9889 66.6157 61.5215C66.6368 61.054 65.1676 60.6217 63.3329 60.5408C61.4982 60.46 60.0009 60.7798 59.9833 61.2438Z" fill="#8807F7"/>
<path opacity="0.4" d="M59.9833 61.2438C59.9622 61.7077 61.4314 62.1471 63.2626 62.2244C65.0938 62.3017 66.5946 61.9889 66.6157 61.5215C66.6368 61.054 65.1676 60.6217 63.3329 60.5408C61.4982 60.46 60.0009 60.7798 59.9833 61.2438Z" fill="white"/>
<path d="M60.4045 61.2297C60.4052 61.26 60.415 61.2893 60.4326 61.314C60.6541 61.0399 61.8667 60.8817 63.3183 60.9414C64.7699 61.0012 65.9649 61.2648 66.1582 61.5565C66.1798 61.5351 66.1924 61.5061 66.1934 61.4757C66.1934 61.1629 64.9245 60.8465 63.3253 60.7727C61.7261 60.6989 60.4186 60.9168 60.4045 61.2297Z" fill="#8807F7"/>
<path opacity="0.4" d="M60.4045 61.2297C60.4052 61.26 60.415 61.2893 60.4326 61.314C60.6541 61.0399 61.8667 60.8817 63.3183 60.9414C64.7699 61.0012 65.9649 61.2648 66.1582 61.5565C66.1798 61.5351 66.1924 61.5061 66.1934 61.4757C66.1934 61.1629 64.9245 60.8465 63.3253 60.7727C61.7261 60.6989 60.4186 60.9168 60.4045 61.2297Z" fill="#8807F7"/>
<path opacity="0.4" d="M60.4332 61.314C60.6336 61.6022 61.8391 61.8658 63.2767 61.9291C64.7142 61.9923 65.9409 61.8306 66.1588 61.5565C65.9655 61.2648 64.7705 61.0047 63.3189 60.9414C61.8672 60.8781 60.6547 61.0398 60.4332 61.314Z" fill="#8807F7"/>
<path d="M59.248 60.8117C59.2304 61.2756 60.6996 61.715 62.5308 61.7958C64.362 61.8766 65.8628 61.5603 65.8804 61.0928C65.898 60.6254 64.4323 60.1895 62.6011 60.1087C60.7699 60.0279 59.2691 60.3477 59.248 60.8117Z" fill="#8807F7"/>
<path d="M59.2834 59.9693L59.2478 60.8086L65.8813 61.0901L65.9169 60.2508L59.2834 59.9693Z" fill="#8807F7"/>
<path d="M59.2857 59.9713C59.2646 60.4353 60.7338 60.8746 62.565 60.9555C64.3962 61.0363 65.897 60.72 65.9181 60.2525C65.9392 59.785 64.4665 59.3492 62.6353 59.2684C60.8041 59.1875 59.3033 59.5074 59.2857 59.9713Z" fill="#8807F7"/>
<path opacity="0.4" d="M59.2857 59.9713C59.2646 60.4353 60.7338 60.8746 62.565 60.9555C64.3962 61.0363 65.897 60.72 65.9181 60.2525C65.9392 59.785 64.4665 59.3492 62.6353 59.2684C60.8041 59.1875 59.3033 59.5074 59.2857 59.9713Z" fill="white"/>
<path d="M59.7087 59.9572C59.7094 59.9875 59.7192 60.0169 59.7368 60.0416C59.9583 59.7674 61.1709 59.6092 62.619 59.669C64.067 59.7287 65.2691 59.9923 65.4624 60.2841C65.4825 60.2616 65.4948 60.2332 65.4976 60.2032C65.4976 59.8904 64.2252 59.5741 62.626 59.5003C61.0268 59.4265 59.7228 59.6444 59.7087 59.9572Z" fill="#8807F7"/>
<path opacity="0.4" d="M59.7087 59.9572C59.7094 59.9875 59.7192 60.0169 59.7368 60.0416C59.9583 59.7674 61.1709 59.6092 62.619 59.669C64.067 59.7287 65.2691 59.9923 65.4624 60.2841C65.4825 60.2616 65.4948 60.2332 65.4976 60.2032C65.4976 59.8904 64.2252 59.5741 62.626 59.5003C61.0268 59.4265 59.7228 59.6444 59.7087 59.9572Z" fill="#8807F7"/>
<path opacity="0.4" d="M59.7374 60.0415C59.9342 60.3297 61.1433 60.5933 62.5774 60.6566C64.0114 60.7199 65.2451 60.5582 65.463 60.284C65.2697 59.9923 64.0747 59.7322 62.6195 59.6689C61.1644 59.6057 59.9588 59.7674 59.7374 60.0415Z" fill="#8807F7"/>
<path d="M60.7455 59.8728C60.7244 60.3332 62.1936 60.7726 64.0248 60.8534C65.856 60.9343 67.3568 60.6179 67.3779 60.1505C67.399 59.683 65.9263 59.2472 64.0951 59.1698C62.2639 59.0925 60.7631 59.4088 60.7455 59.8728Z" fill="#8807F7"/>
<path d="M60.7755 59.0235L60.7399 59.8628L67.3733 60.1443L67.4089 59.305L60.7755 59.0235Z" fill="#8807F7"/>
<path d="M60.7813 59.0294C60.7603 59.4934 62.2294 59.9327 64.0606 60.0136C65.8918 60.0944 67.3927 59.7781 67.4137 59.3106C67.4348 58.8432 65.9621 58.4073 64.1309 58.33C62.2997 58.2527 60.7989 58.569 60.7813 59.0294Z" fill="#8807F7"/>
<path opacity="0.4" d="M60.7813 59.0294C60.7603 59.4934 62.2294 59.9327 64.0606 60.0136C65.8918 60.0944 67.3927 59.7781 67.4137 59.3106C67.4348 58.8432 65.9621 58.4073 64.1309 58.33C62.2997 58.2527 60.7989 58.569 60.7813 59.0294Z" fill="white"/>
<path d="M61.1918 59.0153C61.1925 59.0456 61.2023 59.075 61.2199 59.0996C61.4413 58.8255 62.6539 58.6673 64.102 58.7271C65.5501 58.7868 66.7522 59.0504 66.9455 59.3422C66.9656 59.3197 66.9779 59.2914 66.9806 59.2613C66.9806 58.9485 65.7083 58.6322 64.1091 58.5584C62.5098 58.4846 61.2164 58.7025 61.1918 59.0153Z" fill="#8807F7"/>
<path opacity="0.4" d="M61.1918 59.0153C61.1925 59.0456 61.2023 59.075 61.2199 59.0996C61.4413 58.8255 62.6539 58.6673 64.102 58.7271C65.5501 58.7868 66.7522 59.0504 66.9455 59.3422C66.9656 59.3197 66.9779 59.2914 66.9806 59.2613C66.9806 58.9485 65.7083 58.6322 64.1091 58.5584C62.5098 58.4846 61.2164 58.7025 61.1918 59.0153Z" fill="#8807F7"/>
<path opacity="0.4" d="M61.2295 59.1032C61.4263 59.395 62.6354 59.6551 64.0694 59.7183C65.5034 59.7816 66.7371 59.6199 66.955 59.3458C66.7617 59.054 65.5667 58.7939 64.1116 58.7307C62.6565 58.6674 61.4509 58.8256 61.2295 59.1032Z" fill="#8807F7"/>
<path d="M60.7634 58.6003C60.7423 59.0643 62.2115 59.5036 64.0427 59.581C65.8739 59.6583 67.3747 59.3455 67.3958 58.878C67.4169 58.4105 65.9442 57.9747 64.113 57.8974C62.2818 57.8201 60.781 58.1364 60.7634 58.6003Z" fill="#8807F7"/>
<path d="M60.6713 57.326L60.6377 58.166L67.2771 58.4316L67.3107 57.5916L60.6713 57.326Z" fill="#8807F7"/>
<path d="M60.7975 57.7605C60.7764 58.2244 62.2456 58.6638 64.0768 58.7411C65.908 58.8184 67.4088 58.5056 67.4299 58.0382C67.451 57.5707 65.9783 57.1349 64.1471 57.0575C62.3159 56.9802 60.8151 57.2965 60.7975 57.7605Z" fill="#8807F7"/>
<path opacity="0.4" d="M60.7975 57.7605C60.7764 58.2244 62.2456 58.6638 64.0768 58.7411C65.908 58.8184 67.4088 58.5056 67.4299 58.0382C67.451 57.5707 65.9783 57.1349 64.1471 57.0575C62.3159 56.9802 60.8151 57.2965 60.7975 57.7605Z" fill="white"/>
<path d="M61.2205 57.7464C61.2212 57.7756 61.2311 57.8038 61.2486 57.8272C61.47 57.553 62.6826 57.3949 64.1307 57.4546C65.5788 57.5144 66.7809 57.7815 66.9742 58.0697C66.9958 58.0482 67.0083 58.0193 67.0093 57.9889C67.0093 57.676 65.7405 57.3597 64.1378 57.2859C62.535 57.2121 61.2345 57.43 61.2205 57.7464Z" fill="#8807F7"/>
<path opacity="0.4" d="M61.2205 57.7464C61.2212 57.7756 61.2311 57.8038 61.2486 57.8272C61.47 57.553 62.6826 57.3949 64.1307 57.4546C65.5788 57.5144 66.7809 57.7815 66.9742 58.0697C66.9958 58.0482 67.0083 58.0193 67.0093 57.9889C67.0093 57.676 65.7405 57.3597 64.1378 57.2859C62.535 57.2121 61.2345 57.43 61.2205 57.7464Z" fill="#8807F7"/>
<path opacity="0.4" d="M61.2474 57.8272C61.4442 58.1189 62.6533 58.379 64.0908 58.4422C65.5284 58.5055 66.7551 58.3438 66.973 58.0697C66.7797 57.7815 65.5846 57.5179 64.1295 57.4546C62.6744 57.3913 61.4688 57.553 61.2474 57.8272Z" fill="#8807F7"/>
<path d="M59.3987 57.5603C59.3776 58.0242 60.8468 58.4636 62.678 58.5409C64.5092 58.6182 66.01 58.3054 66.0311 57.838C66.0522 57.3705 64.583 56.9347 62.7518 56.8573C60.9206 56.78 59.4338 57.0963 59.3987 57.5603Z" fill="#8807F7"/>
<path d="M59.4396 56.7281L59.4039 57.5674L66.0373 57.85L66.073 57.0108L59.4396 56.7281Z" fill="#8807F7"/>
<path d="M59.4346 56.72C59.4135 57.1839 60.8826 57.6233 62.7138 57.7006C64.545 57.7779 66.0459 57.4651 66.0669 56.9976C66.088 56.5302 64.6189 56.0943 62.7877 56.017C60.9565 55.9397 59.4557 56.256 59.4346 56.72Z" fill="#8807F7"/>
<path opacity="0.4" d="M59.4346 56.72C59.4135 57.1839 60.8826 57.6233 62.7138 57.7006C64.545 57.7779 66.0459 57.4651 66.0669 56.9976C66.088 56.5302 64.6189 56.0943 62.7877 56.017C60.9565 55.9397 59.4557 56.256 59.4346 56.72Z" fill="white"/>
<path d="M59.8558 56.7064C59.8565 56.7356 59.8663 56.7638 59.8839 56.7872C60.1088 56.5166 61.3214 56.3549 62.7695 56.4182C64.2176 56.4814 65.4161 56.7415 65.6095 57.0297C65.6308 57.0095 65.6435 56.9818 65.6446 56.9524C65.6446 56.6361 64.3758 56.3233 62.7766 56.2495C61.1773 56.1756 59.8698 56.39 59.8558 56.7064Z" fill="#8807F7"/>
<path opacity="0.4" d="M59.8558 56.7064C59.8565 56.7356 59.8663 56.7638 59.8839 56.7872C60.1088 56.5166 61.3214 56.3549 62.7695 56.4182C64.2176 56.4814 65.4161 56.7415 65.6095 57.0297C65.6308 57.0095 65.6435 56.9818 65.6446 56.9524C65.6446 56.6361 64.3758 56.3233 62.7766 56.2495C61.1773 56.1756 59.8698 56.39 59.8558 56.7064Z" fill="#8807F7"/>
<path opacity="0.4" d="M59.8845 56.7869C60.0848 57.0786 61.2904 57.3422 62.7279 57.402C64.1655 57.4617 65.3921 57.3036 65.61 57.0294C65.4167 56.7412 64.2217 56.4776 62.7701 56.4178C61.3185 56.3581 60.1094 56.5163 59.8845 56.7869Z" fill="#8807F7"/>
<path d="M67.9612 60.0909C67.7679 60.5022 68.9208 61.4476 70.534 62.1998C72.1473 62.952 73.613 63.2542 73.8028 62.8325C73.9926 62.4107 72.8433 61.4793 71.23 60.7236C69.6167 59.9679 68.151 59.6832 67.9612 60.0909Z" fill="#8807F7"/>
<path d="M68.3099 59.3628L67.9616 60.104L73.8052 62.8501L74.1535 62.1089L68.3099 59.3628Z" fill="#8807F7"/>
<path d="M68.3091 59.353C68.1158 59.7607 69.2687 60.7062 70.882 61.4619C72.4952 62.2176 73.9609 62.5163 74.1507 62.0946C74.3405 61.6728 73.1912 60.7379 71.5779 59.9857C69.9646 59.2335 68.4989 58.9418 68.3091 59.353Z" fill="#8807F7"/>
<path opacity="0.4" d="M68.3091 59.353C68.1158 59.7607 69.2687 60.7062 70.882 61.4619C72.4952 62.2176 73.9609 62.5163 74.1507 62.0946C74.3405 61.6728 73.1912 60.7379 71.5779 59.9857C69.9646 59.2335 68.4989 58.9418 68.3091 59.353Z" fill="white"/>
<path d="M68.6922 59.4969C68.6817 59.524 68.6817 59.5541 68.6922 59.5812C68.991 59.4231 70.1403 59.7324 71.4162 60.3334C72.6921 60.9344 73.6692 61.6198 73.736 61.9537C73.7623 61.9415 73.7835 61.9203 73.7957 61.894C73.9257 61.6163 72.8924 60.8395 71.483 60.1893C70.0736 59.5391 68.8223 59.2227 68.6922 59.4969Z" fill="#8807F7"/>
<path opacity="0.4" d="M68.6922 59.4969C68.6817 59.524 68.6817 59.5541 68.6922 59.5812C68.991 59.4231 70.1403 59.7324 71.4162 60.3334C72.6921 60.9344 73.6692 61.6198 73.736 61.9537C73.7623 61.9415 73.7835 61.9203 73.7957 61.894C73.9257 61.6163 72.8924 60.8395 71.483 60.1893C70.0736 59.5391 68.8223 59.2227 68.6922 59.4969Z" fill="#8807F7"/>
<path opacity="0.4" d="M68.6897 59.5811C68.7565 59.9325 69.7441 60.6004 71.0059 61.2014C72.2677 61.8024 73.4346 62.1152 73.7334 61.9535C73.6666 61.6196 72.679 60.9343 71.4136 60.3332C70.1483 59.7322 68.9884 59.4229 68.6897 59.5811Z" fill="#8807F7"/>
<path d="M64.5706 61.5425C64.553 61.9924 65.9765 62.4176 67.762 62.495C69.5475 62.5723 71.0026 62.2665 71.0237 61.8166C71.0448 61.3667 69.6178 60.9379 67.8323 60.8606C66.0468 60.7833 64.5917 61.0891 64.5706 61.5425Z" fill="#8807F7"/>
<path d="M64.5998 60.7121L64.565 61.5303L71.0159 61.804L71.0506 60.9858L64.5998 60.7121Z" fill="#8807F7"/>
<path d="M64.6045 60.7236C64.6045 61.1735 66.0104 61.6023 67.7959 61.6796C69.5814 61.757 71.0365 61.4477 71.0541 60.9978C71.0717 60.5479 69.6482 60.1191 67.8662 60.0453C66.0842 59.9715 64.6256 60.2737 64.6045 60.7236Z" fill="#8807F7"/>
<path opacity="0.4" d="M64.6045 60.7236C64.6045 61.1735 66.0104 61.6023 67.7959 61.6796C69.5814 61.757 71.0365 61.4477 71.0541 60.9978C71.0717 60.5479 69.6482 60.1191 67.8662 60.0453C66.0842 59.9715 64.6256 60.2737 64.6045 60.7236Z" fill="white"/>
<path d="M65.017 60.7097C65.0172 60.739 65.0271 60.7674 65.0451 60.7906C65.263 60.5235 66.451 60.3688 67.8569 60.4391C69.2628 60.5094 70.4332 60.7554 70.6195 61.0366C70.6409 61.0164 70.6535 60.9887 70.6547 60.9593C70.6547 60.6535 69.4175 60.3477 67.8639 60.2809C66.3104 60.2142 65.031 60.404 65.017 60.7097Z" fill="#8807F7"/>
<path opacity="0.4" d="M65.017 60.7097C65.0172 60.739 65.0271 60.7674 65.0451 60.7906C65.263 60.5235 66.451 60.3688 67.8569 60.4391C69.2628 60.5094 70.4332 60.7554 70.6195 61.0366C70.6409 61.0164 70.6535 60.9887 70.6547 60.9593C70.6547 60.6535 69.4175 60.3477 67.8639 60.2809C66.3104 60.2142 65.031 60.404 65.017 60.7097Z" fill="#8807F7"/>
<path opacity="0.4" d="M65.0582 60.7901C65.2515 61.0712 66.4114 61.3278 67.8208 61.3876C69.2302 61.4473 70.4147 61.2927 70.6326 61.0361C70.4464 60.7549 69.283 60.4983 67.87 60.4386C66.4571 60.3788 65.2621 60.5089 65.0582 60.7901Z" fill="#8807F7"/>
<path d="M18.4369 44.6441C18.4377 44.9448 18.4377 45.2455 18.4385 45.5462C18.4393 45.8054 18.3543 46.0579 18.1141 46.1902C17.8328 46.3439 17.4341 46.3052 17.1203 46.2728C17.1085 46.272 17.0974 46.2704 17.0864 46.2696C17.0966 46.0531 17.0927 45.8346 17.0824 45.6189C17.069 45.3265 17.2464 44.978 17.5601 44.9286C17.9011 44.8748 18.1975 44.8385 18.3583 44.6504C18.3638 44.6449 18.3686 44.6393 18.3733 44.633C18.397 44.601 18.4223 44.5698 18.4476 44.5386C18.4397 44.5726 18.4369 44.6085 18.4369 44.6441Z" fill="#B86AFA"/>
<path d="M17.4063 48.2307C17.641 48.2457 17.8773 48.2421 18.1124 48.2461C18.3866 48.2508 18.6671 48.2848 18.9319 48.2366C19.3116 48.1675 19.7387 47.9197 19.8798 47.5526C20.0106 47.2128 19.9489 46.807 19.7237 46.5217C19.7079 46.502 19.6913 46.483 19.6731 46.4641C19.4456 46.2151 19.0923 46.0851 18.7568 46.1298C18.3392 46.1851 17.9713 46.5134 17.8631 46.92C17.7955 47.1737 17.8544 47.444 17.8148 47.7024C17.7824 47.9166 17.5999 48.1359 17.4063 48.2307Z" fill="#B86AFA"/>
<path d="M19.7544 43.6748C19.7335 43.7384 19.7587 43.8076 19.786 43.8688C20.1341 44.6456 21.0678 45.1712 21.0358 46.1041C21.0212 46.5261 20.8106 47.022 20.4585 47.2721C20.4328 47.2903 20.4095 47.3065 20.3795 47.3148C20.3123 47.1891 20.3052 47.005 20.2479 46.8663C20.1764 46.6924 20.0816 46.5213 19.9492 46.3866C19.8224 46.2578 19.6635 46.1835 19.5367 46.057C19.2704 45.7911 19.1024 45.4264 19.0803 45.0503C19.0479 44.5137 19.3162 43.9814 19.7544 43.6748Z" fill="#B86AFA"/>
<path d="M17.3311 45.5481C17.3311 45.5481 17.3188 45.3138 17.5587 45.3256C17.5591 45.3256 17.6464 45.5817 17.3311 45.5481Z" fill="#8807F7" stroke="#B86AFA" stroke-width="0.078533" stroke-miterlimit="10"/>
<path d="M17.2514 47.5304C17.471 47.5304 17.6489 47.3524 17.6489 47.1329C17.6489 46.9133 17.471 46.7354 17.2514 46.7354C17.0319 46.7354 16.8539 46.9133 16.8539 47.1329C16.8539 47.3524 17.0319 47.5304 17.2514 47.5304Z" fill="#B86AFA"/>
<path d="M52.1527 31.6226C52.1535 31.9233 52.1535 32.224 52.1543 32.5247C52.155 32.7839 52.0701 33.0364 51.8299 33.1687C51.5485 33.3224 51.1498 33.2837 50.8361 33.2513C50.8242 33.2505 50.8132 33.2489 50.8021 33.2482C50.8124 33.0316 50.8084 32.8131 50.7982 32.5974C50.7847 32.305 50.9621 31.9565 51.2759 31.9071C51.6169 31.8533 51.9132 31.817 52.074 31.6289C52.0796 31.6234 52.0843 31.6178 52.0891 31.6115C52.1128 31.5795 52.1381 31.5483 52.1633 31.5171C52.1554 31.5511 52.1527 31.587 52.1527 31.6226Z" fill="#B86AFA"/>
<path d="M51.1221 35.2097C51.3568 35.2247 51.593 35.2211 51.8282 35.2251C52.1024 35.2298 52.3829 35.2638 52.6477 35.2156C53.0274 35.1465 53.4545 34.8987 53.5956 34.5316C53.7264 34.1918 53.6647 33.786 53.4395 33.5007C53.4237 33.481 53.4071 33.462 53.3889 33.4431C53.1613 33.1941 52.8081 33.0641 52.4726 33.1088C52.055 33.1641 51.6871 33.4925 51.5788 33.899C51.5113 34.1527 51.5701 34.423 51.5306 34.6814C51.4982 34.8956 51.3157 35.1149 51.1221 35.2097Z" fill="#B86AFA"/>
<path d="M53.4702 30.6533C53.4492 30.7169 53.4745 30.7861 53.5018 30.8473C53.8499 31.6242 54.7836 32.1497 54.7516 33.0826C54.7369 33.5046 54.5263 34.0005 54.1743 34.2506C54.1486 34.2688 54.1253 34.285 54.0953 34.2933C54.0281 34.1676 54.021 33.9835 53.9637 33.8448C53.8922 33.6709 53.7973 33.4998 53.665 33.3651C53.5381 33.2363 53.3793 33.162 53.2524 33.0356C52.9861 32.7696 52.8182 32.4049 52.7961 32.0288C52.7637 31.4922 53.032 30.9599 53.4702 30.6533Z" fill="#B86AFA"/>
<path d="M51.0468 32.5266C51.0468 32.5266 51.0346 32.2923 51.2744 32.3041C51.2748 32.3041 51.3621 32.5602 51.0468 32.5266Z" fill="#8807F7" stroke="#B86AFA" stroke-width="0.078533" stroke-miterlimit="10"/>
<path d="M50.9672 34.5089C51.1867 34.5089 51.3647 34.3309 51.3647 34.1114C51.3647 33.8918 51.1867 33.7139 50.9672 33.7139C50.7477 33.7139 50.5697 33.8918 50.5697 34.1114C50.5697 34.3309 50.7477 34.5089 50.9672 34.5089Z" fill="#B86AFA"/>
<path d="M93.537 56.2398C93.5378 56.5405 93.5378 56.8412 93.5386 57.1419C93.5394 57.4011 93.4544 57.6536 93.2142 57.7859C92.9328 57.9396 92.5341 57.9009 92.2204 57.8685C92.2086 57.8677 92.1975 57.8661 92.1864 57.8653C92.1967 57.6488 92.1927 57.4303 92.1825 57.2146C92.169 56.9222 92.3465 56.5737 92.6602 56.5243C93.0012 56.4705 93.2975 56.4342 93.4584 56.2461C93.4639 56.2406 93.4686 56.235 93.4734 56.2287C93.4971 56.1967 93.5224 56.1655 93.5477 56.1343C93.5397 56.1683 93.537 56.2042 93.537 56.2398Z" fill="#B86AFA"/>
<path d="M92.5064 59.8269C92.7411 59.8419 92.9773 59.8383 93.2125 59.8423C93.4867 59.847 93.7672 59.881 94.032 59.8328C94.4117 59.7637 94.8388 59.5159 94.9799 59.1488C95.1107 58.809 95.049 58.4032 94.8238 58.1179C94.808 58.0982 94.7914 58.0792 94.7732 58.0602C94.5456 57.8113 94.1924 57.6813 93.8569 57.726C93.4393 57.7813 93.0714 58.1096 92.9631 58.5162C92.8956 58.7699 92.9544 59.0402 92.9149 59.2986C92.8825 59.5127 92.7 59.732 92.5064 59.8269Z" fill="#B86AFA"/>
<path d="M94.8545 55.2705C94.8335 55.3341 94.8588 55.4033 94.8861 55.4645C95.2342 56.2413 96.1679 56.7669 96.1359 57.6998C96.1213 58.1218 95.9106 58.6177 95.5586 58.8678C95.5329 58.886 95.5096 58.9022 95.4796 58.9105C95.4124 58.7848 95.4053 58.6007 95.348 58.462C95.2765 58.2881 95.1816 58.117 95.0493 57.9823C94.9224 57.8535 94.7636 57.7792 94.6367 57.6528C94.3704 57.3868 94.2025 57.0221 94.1804 56.646C94.148 56.1094 94.4163 55.5771 94.8545 55.2705Z" fill="#B86AFA"/>
<path d="M92.4311 57.1438C92.4311 57.1438 92.4189 56.9095 92.6587 56.9213C92.6591 56.9213 92.7465 57.1774 92.4311 57.1438Z" fill="#8807F7" stroke="#B86AFA" stroke-width="0.078533" stroke-miterlimit="10"/>
<path d="M92.3515 59.1261C92.571 59.1261 92.749 58.9481 92.749 58.7286C92.749 58.509 92.571 58.3311 92.3515 58.3311C92.132 58.3311 91.954 58.509 91.954 58.7286C91.954 58.9481 92.132 59.1261 92.3515 59.1261Z" fill="#B86AFA"/>
</svg>
