<svg width="20" height="19" viewBox="0 0 20 19" fill="none" xmlns="http://www.w3.org/2000/svg">
<path d="M8.69731 12.022C8.69731 10.745 6.17585 10.5689 6.17585 7.36225C6.17585 4.15561 7.9571 3.83736 7.9571 2.59246C7.9571 1.34756 3.02344 2.86163 3.02344 7.63617C3.02344 12.4107 8.69731 13.299 8.69731 12.022Z" stroke="#6B7280" stroke-width="0.989998" stroke-linecap="round" stroke-linejoin="round"/>
<path d="M12.4937 10.7736C11.2167 10.7736 11.0406 13.2951 7.83393 13.2951C4.62729 13.2951 4.30904 11.5138 3.06414 11.5138C1.81924 11.5138 3.33331 16.4479 8.10785 16.4479C12.8824 16.4479 13.7706 10.7736 12.4937 10.7736V10.7736ZM7.50301 8.24068C8.77997 8.24068 8.95612 5.71882 12.1628 5.71882C15.3694 5.71882 15.6877 7.50047 16.9326 7.50047C18.1775 7.50047 16.6634 2.56641 11.8888 2.56641C7.11431 2.56641 6.22606 8.24068 7.50301 8.24068Z" stroke="#6B7280" stroke-width="0.989998" stroke-linecap="round" stroke-linejoin="round"/>
<path d="M11.3008 6.97819C11.3008 8.25515 13.8226 8.43129 13.8226 11.6379C13.8226 14.8446 12.0414 15.1628 12.0414 16.4077C12.0414 17.6526 16.975 16.1386 16.975 11.364C16.975 6.58948 11.3008 5.70123 11.3008 6.97819Z" stroke="#6B7280" stroke-width="0.989998" stroke-linecap="round" stroke-linejoin="round"/>
</svg>
