<svg width="20" height="21" viewBox="0 0 20 21" fill="none" xmlns="http://www.w3.org/2000/svg">
<path d="M9.99999 14.6668C9.55797 14.6668 9.13404 14.4912 8.82148 14.1787C8.50892 13.8661 8.33333 13.4422 8.33333 13.0002C8.33333 12.0752 9.07499 11.3335 9.99999 11.3335C10.442 11.3335 10.8659 11.5091 11.1785 11.8217C11.4911 12.1342 11.6667 12.5581 11.6667 13.0002C11.6667 13.4422 11.4911 13.8661 11.1785 14.1787C10.8659 14.4912 10.442 14.6668 9.99999 14.6668ZM15 17.1668V8.8335H4.99999V17.1668H15ZM15 7.16683C15.442 7.16683 15.8659 7.34242 16.1785 7.65498C16.4911 7.96755 16.6667 8.39147 16.6667 8.8335V17.1668C16.6667 17.6089 16.4911 18.0328 16.1785 18.3453C15.8659 18.6579 15.442 18.8335 15 18.8335H4.99999C4.55797 18.8335 4.13404 18.6579 3.82148 18.3453C3.50892 18.0328 3.33333 17.6089 3.33333 17.1668V8.8335C3.33333 7.9085 4.07499 7.16683 4.99999 7.16683H5.83333V5.50016C5.83333 4.39509 6.27232 3.33529 7.05372 2.55388C7.83512 1.77248 8.89493 1.3335 9.99999 1.3335C10.5472 1.3335 11.089 1.44127 11.5945 1.65066C12.1 1.86006 12.5594 2.16697 12.9463 2.55388C13.3332 2.9408 13.6401 3.40013 13.8495 3.90565C14.0589 4.41117 14.1667 4.95299 14.1667 5.50016V7.16683H15ZM9.99999 3.00016C9.33695 3.00016 8.70107 3.26355 8.23223 3.7324C7.76339 4.20124 7.49999 4.83712 7.49999 5.50016V7.16683H12.5V5.50016C12.5 4.83712 12.2366 4.20124 11.7678 3.7324C11.2989 3.26355 10.663 3.00016 9.99999 3.00016Z" fill="#9CA3AF"/>
</svg>
