<svg width="149" height="49" viewBox="0 0 149 49" fill="none" xmlns="http://www.w3.org/2000/svg">
<g clip-path="url(#clip0_4_6364)">
<path d="M16.9115 10.3512C16.9115 13.5587 16.9115 16.7755 16.9302 19.9829C16.9302 22.7508 16.0325 25.444 13.461 26.8653C10.4592 28.5111 6.19511 28.0903 2.8474 27.7443C2.71649 27.7443 2.60427 27.7163 2.48271 27.7069C2.59492 25.3972 2.54817 23.0594 2.43595 20.759C2.29569 17.6358 4.18462 13.914 7.54168 13.3903C11.1793 12.8199 14.3493 12.4272 16.0699 10.4167C16.126 10.3606 16.1821 10.2951 16.2289 10.2297C16.4814 9.88366 16.7526 9.55637 17.0237 9.21973C16.9396 9.58442 16.9115 9.96782 16.9115 10.3419V10.3512Z" fill="white"/>
<path d="M5.90375 48.6636C8.40985 48.8226 10.9347 48.7852 13.4408 48.8319C16.3677 48.8787 19.3694 49.2434 22.1934 48.7291C26.2518 47.9903 30.8152 45.3439 32.3207 41.4258C33.7141 37.7976 33.0595 33.468 30.6562 30.4195C30.4879 30.2138 30.3102 30.0081 30.1139 29.8023C27.6826 27.1466 23.9141 25.7533 20.3232 26.2302C15.8627 26.8193 11.9352 30.326 10.7757 34.6743C10.0557 37.3861 10.6822 40.2663 10.2614 43.0249C9.91539 45.3065 7.961 47.6443 5.89439 48.6636H5.90375Z" fill="white"/>
<path d="M30.9781 0C30.7537 0.682634 31.0248 1.42137 31.3147 2.07595C35.0365 10.3704 45.0048 15.9811 44.6588 25.9494C44.4998 30.4567 42.2556 35.7494 38.4871 38.4239C38.2159 38.6202 37.9634 38.7886 37.6455 38.8821C36.9254 37.5355 36.8506 35.5718 36.2428 34.0943C35.476 32.2334 34.4661 30.4099 33.054 28.9698C31.6981 27.5952 30.0056 26.8004 28.6497 25.4538C25.8069 22.6111 24.0115 18.721 23.7777 14.7C23.4411 8.9771 26.3025 3.2916 30.9874 0.0187023L30.9781 0Z" fill="white"/>
<path d="M5.09097 20.0118C5.09097 20.0118 4.96005 17.5151 7.52227 17.6366C7.52227 17.6366 8.45738 20.3672 5.09097 20.0118Z" fill="#8807F7" stroke="white" stroke-width="0.393187" stroke-miterlimit="10"/>
<path d="M4.24224 41.1827C6.58692 41.1827 8.48766 39.282 8.48766 36.9373C8.48766 34.5926 6.58692 32.6919 4.24224 32.6919C1.89756 32.6919 -0.00318146 34.5926 -0.00318146 36.9373C-0.00318146 39.282 1.89756 41.1827 4.24224 41.1827Z" fill="white"/>
<path d="M54.6961 41.2478L62.8316 19.5063H67.1893L75.3248 41.2478H71.07L69.0782 35.9737H60.9707L58.979 41.2478H54.6774H54.6961ZM62.336 32.4483H67.7597L65.0198 24.1445L62.336 32.4483Z" fill="white"/>
<path d="M77.5032 41.2477V26.5197H81.3559V29.9702C81.7112 28.7078 82.2723 27.7634 83.0391 27.1368C83.7965 26.5103 84.6288 26.1924 85.5359 26.1924C86.4429 26.1924 87.2565 26.3701 87.9578 26.7347L87.2939 30.1853C86.7047 29.9141 85.966 29.7832 85.0589 29.7832C82.5902 29.7832 81.3652 31.8685 81.3652 36.0298V41.2477H77.5126H77.5032Z" fill="white"/>
<path d="M89.8365 37.0489C89.4438 36.0857 89.2474 35.0291 89.2474 33.8976C89.2474 32.7661 89.4438 31.7094 89.8365 30.7275C90.2293 29.7457 90.7529 28.9321 91.4169 28.2682C92.0808 27.6136 92.8569 27.0993 93.7359 26.7346C94.6243 26.3699 95.5501 26.1829 96.5226 26.1829C97.4951 26.1829 98.4489 26.3886 99.2905 26.7907C100.132 27.1928 100.749 27.7632 101.151 28.4833V18.4775H105.004V41.2382H101.151V39.2371C100.749 39.9571 100.132 40.5275 99.2812 40.9296C98.4396 41.3411 97.5138 41.5375 96.5226 41.5375C95.5314 41.5375 94.6243 41.3504 93.7453 40.9857C92.8663 40.621 92.0901 40.1161 91.4262 39.4615C90.7623 38.8069 90.2293 38.0027 89.8365 37.0302V37.0489ZM93.2871 33.8415C93.2871 35.0291 93.6611 35.9922 94.3999 36.7403C95.148 37.4884 96.0644 37.8625 97.1585 37.8625C98.2526 37.8625 99.169 37.4884 99.9451 36.7497C100.721 36.0109 101.095 35.0384 101.095 33.8508C101.095 32.6632 100.703 31.7001 99.9171 30.98C99.1316 30.26 98.2151 29.9046 97.1585 29.9046C96.1018 29.9046 95.1386 30.2693 94.3999 30.9987C93.6611 31.7281 93.2871 32.6819 93.2871 33.8602V33.8415Z" fill="white"/>
<path d="M108.709 20.7966C108.709 20.1514 108.953 19.5997 109.448 19.1508C109.944 18.702 110.524 18.4775 111.197 18.4775C111.87 18.4775 112.441 18.702 112.927 19.1508C113.413 19.5997 113.647 20.142 113.647 20.7966C113.647 21.4512 113.404 22.0029 112.927 22.4518C112.45 22.9006 111.87 23.1251 111.197 23.1251C110.524 23.1251 109.925 22.9006 109.439 22.4518C108.953 22.0029 108.709 21.4512 108.709 20.7966ZM109.252 41.2476V26.5195H113.104V41.2476H109.252Z" fill="white"/>
<path d="M117.439 41.2475V23.125H121.292V41.2475H117.439Z" fill="white"/>
<path d="M125.63 41.248V18.4873H129.483V41.248H125.63Z" fill="white"/>
<path d="M132.926 33.8603C132.926 32.7101 133.132 31.6535 133.552 30.6716C133.973 29.6991 134.534 28.8855 135.236 28.2403C135.937 27.5951 136.741 27.0901 137.648 26.7347C138.555 26.3794 139.5 26.1924 140.482 26.1924C141.295 26.1924 142.137 26.3607 143.006 26.7067C143.876 27.0527 144.559 27.5951 145.054 28.3338V26.5103H148.907V41.2384H145.054V39.3307C144.624 40.0321 143.96 40.5744 143.063 40.9485C142.165 41.3225 141.304 41.5096 140.491 41.5096C139.172 41.5096 137.947 41.201 136.807 40.5931C135.666 39.9853 134.731 39.0783 134.011 37.8907C133.291 36.7031 132.935 35.3565 132.935 33.8416L132.926 33.8603ZM136.966 33.8603C136.966 35.0105 137.368 35.955 138.181 36.7031C138.995 37.4512 139.939 37.8252 141.024 37.8252C142.109 37.8252 143.062 37.4699 143.857 36.7498C144.652 36.0298 145.045 35.0666 145.045 33.8603C145.045 32.654 144.643 31.6909 143.839 30.9708C143.034 30.2508 142.09 29.8954 141.015 29.8954C139.939 29.8954 138.967 30.2695 138.162 31.0082C137.358 31.7563 136.956 32.7008 136.956 33.8603H136.966Z" fill="white"/>
</g>
<defs>
<clipPath id="clip0_4_6364">
<rect width="148.908" height="49" fill="white"/>
</clipPath>
</defs>
</svg>
