<svg width="182" height="148" viewBox="0 0 182 148" fill="none" xmlns="http://www.w3.org/2000/svg">
<path d="M119.675 43.6142L134.837 47.1241L101.495 188.869L86.3323 185.36C67.7744 180.71 51.8058 168.984 41.8629 152.706C31.9199 136.428 28.7975 116.899 33.1675 98.321C37.5375 79.7431 49.0506 63.6017 65.2292 53.3704C81.4078 43.1391 100.959 39.6357 119.675 43.6142Z" fill="#8807F7"/>
<path opacity="0.1" d="M119.675 43.6142L134.837 47.1241L101.495 188.869L86.3323 185.36C67.7744 180.71 51.8058 168.984 41.8629 152.706C31.9199 136.428 28.7975 116.899 33.1675 98.321C37.5375 79.7431 49.0506 63.6017 65.2292 53.3704C81.4078 43.1391 100.959 39.6357 119.675 43.6142Z" fill="#3D0072"/>
<path opacity="0.3" d="M113.897 136.533L112.387 142.962L30.5543 123.987C30.2288 121.695 30.0343 119.387 29.9717 117.072L113.897 136.533Z" fill="#263238"/>
<path opacity="0.3" d="M37.2805 146.202L107.794 162.53L101.599 188.874L86.3993 185.355C75.7878 182.909 65.8668 178.122 57.3662 171.346C48.8657 164.57 42.0021 155.978 37.2805 146.202Z" fill="#263238"/>
<path d="M162.175 186.512L160.872 184.454C174.58 175.761 185.262 163.063 191.456 148.1L193.685 149.031C187.318 164.462 176.309 177.557 162.175 186.512Z" fill="#8807F7"/>
<path d="M173.901 165.064C200.063 134.419 196.347 88.5254 165.6 62.5587C134.854 36.5919 88.7203 40.3847 62.5582 71.0301C36.3962 101.676 40.1126 147.569 70.8591 173.536C101.606 199.502 147.739 195.709 173.901 165.064Z" fill="#8807F7"/>
<path d="M116.963 143.162L115.401 123.571C110.104 122.792 105.177 120.416 101.282 116.764C98.1111 113.393 96.2129 109.03 95.9098 104.417C95.3848 99.6698 96.7522 94.9035 99.7177 91.1437C102.824 87.3093 107.266 84.7815 112.157 84.0662L111.774 79.341L118.615 78.6793L118.997 83.4045C123.426 83.3888 127.735 84.8234 131.26 87.4875C134.567 90.2492 136.864 94.0237 137.794 98.2246L126.063 100.732C125.721 99.125 124.967 97.6349 123.874 96.4067C122.781 95.1785 121.386 94.2542 119.826 93.724L121.311 111.98C128.963 113.385 134.295 115.596 137.267 118.578C140.374 121.859 142.182 126.152 142.357 130.664C142.929 135.869 141.506 141.101 138.373 145.312C134.976 149.648 130.1 152.593 124.673 153.586L125.055 158.311L118.259 158.886L117.898 154.385C112.902 154.345 108.075 152.599 104.223 149.438C100.266 145.811 97.5921 141.007 96.5974 135.74L108.748 133.427C109.361 135.723 110.495 137.848 112.062 139.637C113.385 141.19 115.066 142.399 116.963 143.162ZM112.994 94.1436C111.278 94.8476 109.831 96.0768 108.863 97.6532C107.906 99.1718 107.485 100.963 107.665 102.745C107.767 104.393 108.392 105.964 109.449 107.233C110.741 108.685 112.419 109.742 114.291 110.282L112.994 94.1436ZM123.82 143.261C126.001 142.726 127.924 141.443 129.252 139.638C130.578 137.829 131.189 135.599 130.97 133.373C130.853 131.41 130.04 129.553 128.677 128.132C126.922 126.537 124.723 125.509 122.368 125.183L123.82 143.261Z" fill="white"/>
<path opacity="0.1" d="M70.6022 82.5605C81.1189 71.6919 95.3888 65.2134 110.509 64.4428C125.63 63.6722 140.465 68.6675 151.998 78.4124C163.531 88.1574 170.894 101.92 172.591 116.901C174.288 131.882 170.191 146.957 161.133 159.058C166.785 153.217 171.177 146.286 174.039 138.694C176.901 131.102 178.172 123.01 177.773 114.916C177.374 106.823 175.314 98.9003 171.72 91.6374C168.126 84.3744 163.074 77.9254 156.876 72.6883C150.678 67.4512 143.466 63.5372 135.684 61.1879C127.903 58.8386 119.717 58.1038 111.633 59.0289C103.548 59.954 95.7364 62.5193 88.6795 66.5666C81.6225 70.6139 75.4702 76.0572 70.6022 82.5605Z" fill="#3D0072"/>
<path opacity="0.4" d="M71.8787 31.782C70.2227 31.8187 68.6062 32.2984 67.1987 33.1708C65.7911 34.0432 64.6442 35.2762 63.8783 36.7406C63.6872 37.041 63.4072 37.275 63.077 37.41C62.7467 37.545 62.3827 37.5743 62.0354 37.4939C61.6882 37.4135 61.3748 37.2274 61.139 36.9614C60.9031 36.6954 60.7563 36.3626 60.7191 36.0094C60.6869 34.3633 60.2117 32.7569 59.343 31.3579C58.4744 29.9588 57.2442 28.8186 55.7808 28.056C55.4752 27.8719 55.2362 27.5961 55.0978 27.2681C54.9595 26.9402 54.9289 26.5768 55.0105 26.23C55.0921 25.8833 55.2816 25.5708 55.552 25.3375C55.8224 25.1041 56.1598 24.9618 56.516 24.9308C58.1674 24.8845 59.7773 24.4 61.1796 23.5274C62.582 22.6548 63.7258 21.4256 64.4932 19.9669C64.6842 19.6664 64.9642 19.4325 65.2945 19.2975C65.6247 19.1625 65.9887 19.1331 66.336 19.2135C66.6832 19.2939 66.9966 19.48 67.2325 19.746C67.4683 20.0121 67.6151 20.3448 67.6523 20.6981C67.6883 22.3469 68.1676 23.955 69.0402 25.3548C69.9129 26.7546 71.147 27.8949 72.6139 28.6568C72.9194 28.8409 73.1584 29.1167 73.2968 29.4447C73.4351 29.7726 73.4657 30.136 73.3842 30.4828C73.3026 30.8295 73.113 31.142 72.8426 31.3753C72.5722 31.6087 72.2348 31.751 71.8787 31.782Z" fill="#8807F7"/>
</svg>
