<svg width="23" height="23" viewBox="0 0 23 23" fill="none" xmlns="http://www.w3.org/2000/svg">
<path d="M11.4998 19.552C10.5067 19.552 9.56787 19.3891 8.68336 19.0632C7.79886 18.7373 6.9997 18.2873 6.28589 17.7132L5.0988 18.9002C4.91258 19.0865 4.69534 19.1755 4.44706 19.1675C4.19877 19.16 3.98153 19.0632 3.79532 18.877C3.6091 18.6908 3.516 18.4695 3.516 18.2131C3.516 17.9574 3.6091 17.7364 3.79532 17.5502L4.95914 16.3864C4.38499 15.6726 3.93498 14.8694 3.60911 13.9768C3.28324 13.0849 3.1203 12.1501 3.1203 11.1725C3.1203 8.84484 3.93901 6.86634 5.57643 5.23699C7.21323 3.60764 9.18769 2.79297 11.4998 2.79297H18.0172C18.5293 2.79297 18.9678 2.97515 19.3328 3.3395C19.6971 3.70447 19.8793 4.143 19.8793 4.65508V11.1725C19.8793 13.4846 19.0646 15.4594 17.4353 17.0968C15.8059 18.7336 13.8275 19.552 11.4998 19.552ZM11.4998 17.6899C13.3154 17.6899 14.8553 17.0537 16.1197 15.7812C17.3847 14.5088 18.0172 12.9725 18.0172 11.1725V4.65508H11.4998C9.69977 4.65508 8.16352 5.28727 6.89108 6.55165C5.61864 7.81664 4.98241 9.35692 4.98241 11.1725C4.98241 12.9725 5.61864 14.5088 6.89108 15.7812C8.16352 17.0537 9.69977 17.6899 11.4998 17.6899ZM10.2662 15.7114L15.0844 11.4052C15.2396 11.2656 15.2861 11.0986 15.224 10.9043C15.162 10.7107 15.0223 10.5983 14.8051 10.5673L11.0343 10.1949L13.2921 7.09911C13.3542 7.02152 13.3812 6.9399 13.3731 6.85424C13.3656 6.7692 13.3309 6.68789 13.2688 6.6103C13.1912 6.53271 13.1022 6.49392 13.0016 6.49392C12.9004 6.49392 12.811 6.53271 12.7335 6.6103L7.93852 10.9164C7.78334 11.0561 7.73679 11.2228 7.79886 11.4164C7.86093 11.6107 8.00059 11.7234 8.21784 11.7544L11.9886 12.1268L9.70753 15.2226C9.66097 15.3002 9.6377 15.3818 9.6377 15.4674C9.6377 15.5525 9.67649 15.6338 9.75408 15.7114C9.83167 15.789 9.91701 15.8278 10.0101 15.8278C10.1032 15.8278 10.1886 15.789 10.2662 15.7114Z" fill="#6B7280"/>
</svg>
