<svg width="62" height="72" viewBox="0 0 62 72" fill="none" xmlns="http://www.w3.org/2000/svg">
<path d="M52.5196 11.3759L30.8672 4.11279L9.42272 11.2774C6.68607 12.4815 4.27233 13.2149 4.27233 15.5903V27.4455C4.25266 35.8375 6.70865 44.0489 11.3329 51.0519C16.1055 58.3426 22.9754 64.0159 31.0368 67.3241C39.7941 64.6641 46.3621 57.5761 50.3412 51.5117C54.9699 44.5125 57.4281 36.302 57.4073 27.9108V17.2433C57.4456 13.8498 55.519 12.1914 52.5196 11.3759Z" fill="#E6356D"/>
<path d="M31.0295 62.6558L30.9419 62.6175C24.0639 59.7976 18.1787 54.9979 14.0332 48.8275C9.88778 42.657 7.66898 35.3941 7.65845 27.9605V17.7254C7.65845 15.7222 9.42633 14.9887 11.4898 14.0966L12.256 13.7627L30.8653 7.53955L49.6223 13.8339C52.6162 14.6494 54.0722 16.3954 54.0722 19.1649V28.3655C54.0837 35.6582 51.9479 42.7928 47.9311 48.8795C45.2656 52.9188 39.535 60.0779 31.1225 62.6339L31.0295 62.6558ZM30.8653 8.11425L12.4804 14.2663L11.7142 14.6001C9.74378 15.4047 8.20578 16.0834 8.20578 17.7254V27.9605C8.21772 35.2728 10.3984 42.4173 14.4718 48.49C18.5453 54.5627 24.3285 59.2906 31.0897 62.0757C39.2997 59.547 44.8879 52.5357 47.5096 48.573C51.4564 42.572 53.5502 35.5425 53.5303 28.36V19.1594C53.5303 16.6362 52.2386 15.1091 49.48 14.3538L30.8653 8.11425Z" fill="white"/>
<path d="M55.3495 8.38759C55.85 8.49633 56.3407 8.64645 56.8163 8.8364C57.3963 9.05791 57.9476 9.34825 58.4583 9.70119C59.168 10.1813 59.7578 10.818 60.1824 11.5621C60.6974 12.5107 60.9753 13.5698 60.9925 14.6491C60.9925 15.8258 60.9925 17.0956 60.9925 18.4804C60.9925 21.217 61.0199 24.3697 60.9925 27.8726C60.9008 36.2324 58.6253 44.4231 54.3917 51.6322C51.8564 55.9629 48.7241 59.9151 45.087 63.3725C41.2557 66.952 36.5979 70.1102 31.1465 71.785H31.0972H31.0535C29.1285 70.9781 27.2501 70.0645 25.4269 69.0483C23.5605 67.9827 21.7635 66.7999 20.0466 65.5071C16.4937 62.8254 13.3293 59.6647 10.6435 56.1149C7.73601 52.2963 5.40506 48.0714 3.7252 43.5755C2.12167 39.272 1.1376 34.7626 0.802453 30.1823C0.632781 27.9492 0.682037 25.7435 0.671091 23.5815C0.660144 21.4196 0.671091 19.285 0.671091 17.1887V14.0579C0.655062 13.5389 0.677015 13.0194 0.736772 12.5035C0.826657 11.979 1.05108 11.4868 1.3881 11.075C2.08282 10.3281 2.92782 9.73678 3.86751 9.33995C4.77061 8.9185 5.67918 8.55179 6.56585 8.16318L30.8345 0.0791016H30.8674L48.8636 6.15995L53.6692 7.80195L54.9062 8.23434C55.1853 8.32739 55.3221 8.38759 55.3221 8.38759C55.3221 8.38759 55.1798 8.34928 54.9007 8.25623L53.6528 7.85121L48.8308 6.26395L30.8072 0.243301H30.8674L6.6589 8.39307C5.76675 8.78715 4.86365 9.15386 3.9715 9.5753C3.06633 9.94595 2.25083 10.5058 1.57966 11.2173C1.26618 11.5991 1.06192 12.0587 0.988544 12.5473C0.928622 13.0485 0.910316 13.5538 0.933812 14.0579V17.1723C0.933812 19.2667 0.933812 21.3977 0.933812 23.5651C0.933812 25.7544 0.895497 27.9437 1.06517 30.1331C1.393 34.6933 2.3717 39.1831 3.9715 43.4661C5.64603 47.9335 7.96779 52.1308 10.8624 55.9233C13.5308 59.4521 16.675 62.5944 20.2054 65.2608C21.9125 66.5462 23.6985 67.7235 25.5528 68.7856C27.3669 69.7975 29.2342 70.711 31.1465 71.5223H31.0918C36.4939 69.8803 41.1298 66.7386 44.9338 63.1809C48.5666 59.7463 51.6988 55.8182 54.2384 51.5118C56.4955 47.6706 58.2103 43.5355 59.3341 39.2242C60.2872 35.5115 60.8016 31.6997 60.8666 27.8671C60.8666 24.3751 60.8666 21.228 60.8994 18.4804C60.8994 17.1066 60.8994 15.8313 60.8994 14.6491C60.8835 13.5919 60.6092 12.5546 60.1003 11.6278C59.686 10.893 59.1117 10.2607 58.42 9.77781C57.9177 9.42262 57.3759 9.1269 56.8054 8.89661C56.4516 8.74727 56.0898 8.61754 55.7217 8.50801L55.3495 8.38759Z" fill="#E6356D"/>
<path d="M34.0546 40.7307C32.2072 42.6977 31.2835 43.6812 30.0864 43.7532C28.8893 43.8251 27.8544 42.9593 25.7847 41.2277L20.0436 36.4247C18.8747 35.4467 18.72 33.7062 19.6982 32.5375C20.6865 31.3567 22.4501 31.2133 23.6161 32.219L29.4932 37.2876L40.3413 25.8883C41.3979 24.7781 43.1523 24.7283 44.2702 25.7768C45.3943 26.8311 45.4503 28.5974 44.3952 29.7209L34.0546 40.7307Z" fill="white"/>
</svg>
