<svg width="428" height="926" fill="none" xmlns="http://www.w3.org/2000/svg">
    <g clip-path="url(#a)">
        <path d="M-13.507 843.534c25.036-12.143 47.814-28.207 66.811-47.117 18.997-18.91 33.776-40.231 43.348-62.537 9.571-22.306 13.716-45.083 12.156-66.808-1.56-21.725-8.789-41.898-21.203-59.169-12.413-17.271-29.726-31.244-50.78-40.982-21.055-9.739-45.366-15.02-71.308-15.49-25.941-.469-52.916 3.883-79.12 12.765-26.204 8.883-51.034 22.092-72.829 38.744l28.813 28.51c15.987-12.215 34.199-21.904 53.42-28.419 19.221-6.516 39.008-9.708 58.036-9.363 19.028.344 36.86 4.218 52.304 11.361 15.444 7.144 28.143 17.392 37.248 30.061 9.106 12.669 14.408 27.466 15.552 43.401 1.145 15.936-1.895 32.643-8.916 49.004-7.021 16.362-17.861 32.001-31.796 45.871-13.934 13.871-30.642 25.654-49.006 34.561l17.27 35.607Z" fill="url(#b)" fill-opacity=".1"/>
        <path d="M380.775-89c-1.856 5.618.387 11.698 2.785 17.085C414.342-3.65 496.789 42.525 493.927 124.564c-1.314 37.095-19.877 80.654-51.046 102.665-2.243 1.616-4.331 3.001-6.961 3.771-5.955-11.082-6.574-27.244-11.601-39.404-6.342-15.315-14.695-30.322-26.374-42.174-11.214-11.313-25.213-17.854-36.428-28.937-23.512-23.396-38.362-55.41-40.295-88.504-2.785-47.1 20.882-93.891 59.631-120.827l-.078-.154Z" fill="url(#c)" fill-opacity=".15"/>
        <path d="M421.071-55c-1.856 5.618.386 11.698 2.784 17.085 30.782 68.264 113.23 114.44 110.368 196.479-1.315 37.095-19.877 80.654-51.046 102.665-2.243 1.616-4.331 3.001-6.961 3.771-5.955-11.082-6.574-27.244-11.601-39.404-6.343-15.315-14.696-30.322-26.374-42.174-11.215-11.313-25.214-17.854-36.429-28.937-23.512-23.396-38.361-55.41-40.295-88.504-2.784-47.1 20.882-93.891 59.631-120.827l-.077-.154Z" fill="url(#d)" fill-opacity=".15"/>
        <path d="M456.201 728.195c0 51.578 0 103.307.3 154.885 0 44.511-14.393 87.818-55.622 110.675-48.126 26.465-116.492 19.695-170.165 14.135-2.099 0-3.898-.45-5.847-.6 1.799-37.143 1.049-74.737-.75-111.729-2.249-50.225 28.036-110.073 81.859-118.494 58.321-9.173 109.145-15.489 136.732-47.819a24.468 24.468 0 0 0 2.548-3.008c4.048-5.563 8.396-10.827 12.744-16.24-1.349 5.865-1.799 12.03-1.799 18.045v.15Z" fill="url(#e)" fill-opacity=".1"/>
        <path d="M483.201 750.195c0 51.578 0 103.307.3 154.885 0 44.511-14.393 87.818-55.622 110.68-48.126 26.46-116.492 19.69-170.165 14.13-2.099 0-3.898-.45-5.847-.6 1.799-37.143 1.049-74.737-.75-111.729-2.249-50.225 28.036-110.073 81.859-118.494 58.321-9.173 109.145-15.489 136.732-47.819a24.468 24.468 0 0 0 2.548-3.008c4.048-5.563 8.396-10.827 12.744-16.24-1.349 5.865-1.799 12.03-1.799 18.045v.15Z" fill="url(#f)" fill-opacity=".1"/>
    </g>
    <defs>
        <linearGradient id="b" x1="-13.507" y1="843.534" x2="-143.119" y2="576.308" gradientUnits="userSpaceOnUse">
            <stop stop-color="#fff"/>
            <stop offset="1" stop-color="#fff" stop-opacity="0"/>
        </linearGradient>
        <linearGradient id="c" x1="407.5" y1="-89" x2="407.5" y2="231" gradientUnits="userSpaceOnUse">
            <stop stop-color="#fff"/>
            <stop offset="1" stop-color="#fff" stop-opacity="0"/>
        </linearGradient>
        <linearGradient id="d" x1="407.5" y1="-89" x2="407.5" y2="231" gradientUnits="userSpaceOnUse">
            <stop stop-color="#fff"/>
            <stop offset="1" stop-color="#fff" stop-opacity="0"/>
        </linearGradient>
        <linearGradient id="e" x1="341" y1="710" x2="341" y2="1013" gradientUnits="userSpaceOnUse">
            <stop stop-color="#fff"/>
            <stop offset="1" stop-color="#fff" stop-opacity="0"/>
        </linearGradient>
        <linearGradient id="f" x1="368" y1="732" x2="368" y2="1035" gradientUnits="userSpaceOnUse">
            <stop stop-color="#fff"/>
            <stop offset="1" stop-color="#fff" stop-opacity="0"/>
        </linearGradient>
        <clipPath id="a">
            <path fill="#fff" d="M0 0h428v926H0z"/>
        </clipPath>
    </defs>
</svg>
