<svg width="33" height="40" viewBox="0 0 33 40" fill="none" xmlns="http://www.w3.org/2000/svg">
<g filter="url(#filter0_i_2_3855)">
<path d="M8.00187 29.294L5.30397 30.9192C5.18479 30.9951 5.06019 31.0276 4.93017 31.0168C4.80015 31.0059 4.68638 30.9626 4.58887 30.8867C4.49135 30.8109 4.41551 30.7162 4.36133 30.6026C4.30716 30.4887 4.29632 30.3612 4.32883 30.2204L5.04393 27.1487L2.65483 25.0846C2.54648 24.9871 2.47887 24.876 2.452 24.7511C2.4247 24.6268 2.43272 24.505 2.47606 24.3858C2.5194 24.2666 2.5844 24.1691 2.67108 24.0932C2.75776 24.0174 2.87695 23.9686 3.02864 23.947L6.1816 23.6707L7.40053 20.7778C7.4547 20.6477 7.53878 20.5502 7.65277 20.4852C7.76632 20.4202 7.88268 20.3877 8.00187 20.3877C8.12105 20.3877 8.23764 20.4202 8.35162 20.4852C8.46517 20.5502 8.54903 20.6477 8.60321 20.7778L9.82214 23.6707L12.9751 23.947C13.1268 23.9686 13.246 24.0174 13.3327 24.0932C13.4193 24.1691 13.4843 24.2666 13.5277 24.3858C13.571 24.505 13.5793 24.6268 13.5524 24.7511C13.5251 24.876 13.4573 24.9871 13.3489 25.0846L10.9598 27.1487L11.6749 30.2204C11.7074 30.3612 11.6966 30.4887 11.6424 30.6026C11.5882 30.7162 11.5124 30.8109 11.4149 30.8867C11.3174 30.9626 11.2036 31.0059 11.0736 31.0168C10.9436 31.0276 10.8189 30.9951 10.6998 30.9192L8.00187 29.294Z" fill="white"/>
<path d="M20.0737 19.8342L15.659 22.4937C15.464 22.6178 15.2601 22.671 15.0473 22.6533C14.8345 22.6355 14.6484 22.5646 14.4888 22.4405C14.3292 22.3164 14.2051 22.1614 14.1165 21.9756C14.0278 21.7891 14.0101 21.5806 14.0633 21.3501L15.2335 16.3237L11.324 12.9462C11.1467 12.7866 11.0361 12.6047 10.9921 12.4004C10.9474 12.1969 10.9606 11.9976 11.0315 11.8026C11.1024 11.6076 11.2088 11.448 11.3506 11.3239C11.4925 11.1998 11.6875 11.12 11.9357 11.0845L17.0951 10.6324L19.0897 5.89853C19.1784 5.68577 19.3159 5.5262 19.5025 5.41982C19.6883 5.31344 19.8787 5.26025 20.0737 5.26025C20.2687 5.26025 20.4595 5.31344 20.646 5.41982C20.8319 5.5262 20.9691 5.68577 21.0577 5.89853L23.0523 10.6324L28.2117 11.0845C28.46 11.12 28.655 11.1998 28.7968 11.3239C28.9387 11.448 29.045 11.6076 29.116 11.8026C29.1869 11.9976 29.2004 12.1969 29.1564 12.4004C29.1117 12.6047 29.0007 12.7866 28.8234 12.9462L24.914 16.3237L26.0842 21.3501C26.1373 21.5806 26.1196 21.7891 26.031 21.9756C25.9423 22.1614 25.8182 22.3164 25.6586 22.4405C25.4991 22.5646 25.3129 22.6355 25.1001 22.6533C24.8874 22.671 24.6835 22.6178 24.4885 22.4937L20.0737 19.8342Z" fill="white"/>
<path d="M19.3651 33.5484L16.6672 35.1736C16.548 35.2495 16.4234 35.282 16.2934 35.2712C16.1634 35.2603 16.0496 35.217 15.9521 35.1411C15.8546 35.0653 15.7788 34.9706 15.7246 34.857C15.6704 34.7431 15.6596 34.6156 15.6921 34.4748L16.4072 31.4031L14.0181 29.339C13.9097 29.2415 13.8421 29.1304 13.8153 29.0055C13.7879 28.8811 13.796 28.7594 13.8393 28.6402C13.8826 28.521 13.9477 28.4235 14.0343 28.3476C14.121 28.2718 14.2402 28.223 14.3919 28.2014L17.5449 27.9251L18.7638 25.0321C18.818 24.9021 18.902 24.8046 19.016 24.7396C19.1296 24.6746 19.2459 24.6421 19.3651 24.6421C19.4843 24.6421 19.6009 24.6746 19.7149 24.7396C19.8284 24.8046 19.9123 24.9021 19.9665 25.0321L21.1854 27.9251L24.3384 28.2014C24.49 28.223 24.6092 28.2718 24.6959 28.3476C24.7826 28.4235 24.8476 28.521 24.8909 28.6402C24.9343 28.7594 24.9425 28.8811 24.9156 29.0055C24.8883 29.1304 24.8205 29.2415 24.7122 29.339L22.3231 31.4031L23.0382 34.4748C23.0707 34.6156 23.0598 34.7431 23.0057 34.857C22.9515 34.9706 22.8756 35.0653 22.7781 35.1411C22.6806 35.217 22.5668 35.2603 22.4368 35.2712C22.3068 35.282 22.1822 35.2495 22.063 35.1736L19.3651 33.5484Z" fill="white"/>
</g>
<defs>
<filter id="filter0_i_2_3855" x="0.204483" y="-9.50542" width="32.6387" height="48.8497" filterUnits="userSpaceOnUse" color-interpolation-filters="sRGB">
<feFlood flood-opacity="0" result="BackgroundImageFix"/>
<feBlend mode="normal" in="SourceGraphic" in2="BackgroundImageFix" result="shape"/>
<feColorMatrix in="SourceAlpha" type="matrix" values="0 0 0 0 0 0 0 0 0 0 0 0 0 0 0 0 0 0 127 0" result="hardAlpha"/>
<feOffset dy="-9.89898"/>
<feGaussianBlur stdDeviation="4.94949"/>
<feComposite in2="hardAlpha" operator="arithmetic" k2="-1" k3="1"/>
<feColorMatrix type="matrix" values="0 0 0 0 0.791667 0 0 0 0 0.791667 0 0 0 0 0.791667 0 0 0 0.25 0"/>
<feBlend mode="normal" in2="shape" result="effect1_innerShadow_2_3855"/>
</filter>
</defs>
</svg>
