<svg width="36" height="36" viewBox="0 0 36 36" fill="none" xmlns="http://www.w3.org/2000/svg">
<circle cx="18" cy="17.8967" r="17.2356" fill="#3D0072"/>
<path d="M6.88066 20.7247C6.87139 20.6531 6.90874 20.5836 6.97354 20.552C7.8801 20.1093 8.08863 19.8389 8.28581 18.8495C8.29993 18.7788 8.35761 18.7249 8.42915 18.7156C8.5007 18.7064 8.57013 18.7437 8.60175 18.8085C9.04437 19.715 9.31496 19.9235 10.3043 20.1208C10.375 20.1349 10.4288 20.1925 10.4381 20.264C10.4474 20.3356 10.41 20.4051 10.3452 20.4367C9.4387 20.8793 9.23012 21.1498 9.03294 22.1392C9.01881 22.2099 8.96124 22.2638 8.8897 22.2731C8.81816 22.2823 8.74866 22.2449 8.71698 22.1801C8.27436 21.2736 8.00384 21.0651 7.01444 20.8679C6.94372 20.8539 6.88992 20.7962 6.88066 20.7247Z" fill="#8807F7"/>
<path d="M27.1136 17.0255C27.1043 16.9539 27.1417 16.8844 27.2065 16.8528C28.113 16.4101 28.3216 16.1397 28.5187 15.1503C28.5329 15.0795 28.5906 15.0257 28.6621 15.0164C28.7336 15.0071 28.8031 15.0445 28.8347 15.1093C29.2773 16.0158 29.5479 16.2243 30.5372 16.4216C30.608 16.4357 30.6618 16.4933 30.671 16.5648C30.6803 16.6363 30.6429 16.7058 30.5781 16.7375C29.6716 17.1801 29.4631 17.4506 29.2659 18.44C29.2518 18.5107 29.1942 18.5646 29.1226 18.5739C29.0511 18.5831 28.9816 18.5457 28.9499 18.4809C28.5073 17.5743 28.2368 17.3659 27.2474 17.1687C27.1767 17.1546 27.1229 17.097 27.1136 17.0255Z" fill="#D09CFC"/>
<path d="M10.8727 7.6715C10.8685 7.63853 10.8857 7.60649 10.9155 7.59192C11.3333 7.38794 11.4294 7.26333 11.5202 6.80746C11.5267 6.77484 11.5533 6.75002 11.5863 6.74575C11.6192 6.74148 11.6512 6.7587 11.6658 6.78856C11.8698 7.20626 11.9944 7.30234 12.4503 7.39323C12.4829 7.39974 12.5077 7.42627 12.512 7.45923C12.5162 7.4922 12.499 7.52422 12.4692 7.53879C12.0515 7.74277 11.9553 7.8674 11.8645 8.32328C11.858 8.35586 11.8314 8.38071 11.7985 8.38497C11.7655 8.38924 11.7335 8.37201 11.7189 8.34212C11.5149 7.92442 11.3903 7.82836 10.9344 7.73748C10.9018 7.73102 10.877 7.70446 10.8727 7.6715Z" fill="#F0EEF2"/>
<path d="M25.9751 7.89168C25.9733 7.87767 25.9806 7.86405 25.9933 7.85785C26.1709 7.77116 26.2117 7.7182 26.2503 7.52445C26.2531 7.51058 26.2644 7.50003 26.2784 7.49822C26.2924 7.49641 26.306 7.50372 26.3122 7.51641C26.3989 7.69394 26.4519 7.73478 26.6456 7.77341C26.6595 7.77617 26.67 7.78745 26.6718 7.80146C26.6736 7.81547 26.6663 7.82908 26.6536 7.83527C26.4761 7.92197 26.4353 7.97494 26.3966 8.16869C26.3939 8.18254 26.3826 8.1931 26.3686 8.19491C26.3546 8.19673 26.341 8.1894 26.3348 8.1767C26.2481 7.99917 26.1951 7.95835 26.0013 7.91972C25.9875 7.91697 25.977 7.90569 25.9751 7.89168Z" fill="#F0EEF2"/>
<path d="M18.802 24.5228V22.4346C18.7142 22.4543 18.6226 22.4649 18.5282 22.4649H17.5885C17.4942 22.4649 17.4025 22.4543 17.3148 22.4346V24.5228H18.802Z" fill="#FFAE10"/>
<path d="M18.0827 24.5387V22.4949H17.6242C17.5118 22.4949 17.4026 22.4844 17.298 22.4648V24.5387H18.0827Z" fill="#EE9513"/>
<path d="M18.0641 21.4257C17.4982 21.4257 16.9563 21.3208 16.4562 21.1299V21.3394C16.4562 21.9736 16.9671 22.4878 17.5973 22.4878H18.5309C19.1611 22.4878 19.672 21.9736 19.672 21.3394V21.1299C19.1718 21.3208 18.6299 21.4257 18.0641 21.4257Z" fill="#FFD00D"/>
<path d="M19.7129 25.3928V24.6705C19.7129 24.5536 19.6173 24.458 19.5004 24.458H16.611C16.4941 24.458 16.3985 24.5536 16.3985 24.6705V25.3928H19.7129Z" fill="#EE8317"/>
<path d="M17.6733 25.3928V24.6705C17.6733 24.5536 17.7689 24.458 17.8857 24.458H16.611C16.4941 24.458 16.3985 24.5536 16.3985 24.6705V25.3928H17.6733Z" fill="#DB712C"/>
<path d="M22.0691 27.3232V25.4382C22.0691 25.375 21.9735 25.3232 21.8566 25.3232H14.2505C14.1337 25.3232 14.0381 25.375 14.0381 25.4382V27.3232H22.0691Z" fill="#9F5F33"/>
<path d="M14.6967 27.3232V25.4382C14.6967 25.375 14.7923 25.3232 14.9092 25.3232H14.2505C14.1337 25.3232 14.0381 25.375 14.0381 25.4382V27.3232H14.6967Z" fill="#86502A"/>
<path d="M22.964 27.2812H13.1484C13.0315 27.2812 12.9359 27.3769 12.9359 27.4937V27.8911C14.4478 28.7468 16.1948 29.2359 18.0562 29.2359C19.9175 29.2359 21.6645 28.7468 23.1765 27.8911V27.4937C23.1765 27.3769 23.0808 27.2812 22.964 27.2812Z" fill="#BE7D52"/>
<path d="M14.2319 27.4937C14.2319 27.3769 14.3275 27.2812 14.4444 27.2812H13.1484C13.0315 27.2812 12.9359 27.3769 12.9359 27.4937V27.8911C13.351 28.126 13.7839 28.3331 14.2319 28.5102V27.4937Z" fill="#AA6B3E"/>
<path d="M25.2051 10.3828H23.5583V10.7402C23.5583 10.8339 23.4821 10.9101 23.3883 10.9101H22.6753C22.6518 10.9101 22.6328 10.9292 22.6328 10.9526V11.4451H24.8602C24.7692 13.3064 23.9278 14.9737 22.6328 16.1503V16.8286C22.6328 17.0754 22.6128 17.3176 22.575 17.5539C24.6029 16.1278 25.9307 13.7704 25.9307 11.1085C25.9307 10.7083 25.6052 10.3828 25.2051 10.3828Z" fill="#FFAE10"/>
<path d="M13.4788 16.8393V16.1611C12.1839 14.9844 11.3423 13.3171 11.2514 11.4559H13.4788V10.9633C13.4788 10.9399 13.4598 10.9208 13.4364 10.9208H12.7232C12.6295 10.9208 12.5532 10.8446 12.5532 10.7509V10.3936H10.9065C10.5064 10.3936 10.1808 10.7191 10.1808 11.1192C10.1808 13.7811 11.5087 16.1385 13.5365 17.5647C13.4987 17.3283 13.4788 17.0861 13.4788 16.8393Z" fill="#FFD00D"/>
<path d="M13.4376 10.9424V16.8609C13.4376 19.4122 15.5059 21.4805 18.0572 21.4805C20.6086 21.4805 22.6769 19.4122 22.6769 16.8609V10.9424H13.4376Z" fill="#EE8317"/>
<path d="M14.3605 16.8612V10.9004H13.4376V16.8612C13.4376 19.4126 15.5059 21.4809 18.0573 21.4809C18.212 21.4809 18.3647 21.4726 18.5154 21.4577C16.1823 21.2247 14.3605 19.2557 14.3605 16.8612Z" fill="#DB712C"/>
<path d="M18.0556 12.7852C19.7922 12.7852 21.2 14.193 21.2 15.9296C21.2 17.6662 19.7922 19.074 18.0556 19.074C16.319 19.074 14.9112 17.6662 14.9112 15.9296C14.9112 14.193 16.319 12.7852 18.0556 12.7852Z" fill="#DB712C"/>
<path d="M15.7185 15.9296C15.7185 14.3298 16.9135 13.0101 18.4593 12.8118C18.327 12.7949 18.1925 12.7852 18.0556 12.7852C16.319 12.7852 14.9112 14.193 14.9112 15.9296C14.9112 17.6662 16.319 19.074 18.0556 19.074C18.1925 19.074 18.327 19.0642 18.4593 19.0473C16.9135 18.8491 15.7185 17.5293 15.7185 15.9296Z" fill="#C85E22"/>
<path d="M23.5982 10.7533C23.5982 10.8702 23.5026 10.9658 23.3858 10.9658H12.7203C12.6034 10.9658 12.5078 10.8702 12.5078 10.7533V9.52105C12.5078 9.4042 12.6034 9.30859 12.7203 9.30859H23.3858C23.5026 9.30859 23.5982 9.4042 23.5982 9.52105V10.7533Z" fill="#FFD00D"/>
<path d="M13.8038 10.7377V9.50543C13.8038 9.38858 13.8995 9.29297 14.0163 9.29297H12.7203C12.6034 9.29297 12.5078 9.38858 12.5078 9.50543V10.7377C12.5078 10.8545 12.6034 10.9502 12.7203 10.9502H14.0163C13.8995 10.9502 13.8038 10.8545 13.8038 10.7377Z" fill="#FFAE10"/>
<g filter="url(#filter0_d_954_1344)">
<path d="M17.7534 14.7679C17.754 15.0056 17.754 15.2432 17.7547 15.4809C17.7553 15.6857 17.6859 15.8852 17.4895 15.9899C17.2595 16.1113 16.9336 16.0807 16.6771 16.0551C16.6674 16.0545 16.6584 16.0532 16.6493 16.0526C16.6577 15.8815 16.6545 15.7088 16.6461 15.5383C16.6351 15.3072 16.7802 15.0318 17.0366 14.9928C17.3154 14.9503 17.5577 14.9216 17.6891 14.7729C17.6936 14.7686 17.6975 14.7642 17.7014 14.7592C17.7208 14.7339 17.7415 14.7092 17.7621 14.6846C17.7557 14.7114 17.7534 14.7398 17.7534 14.7679Z" fill="#FFD00D"/>
<path d="M16.9114 17.6027C17.1033 17.6146 17.2965 17.6118 17.4887 17.6149C17.7128 17.6187 17.9422 17.6455 18.1586 17.6074C18.469 17.5528 18.8182 17.357 18.9335 17.0669C19.0404 16.7983 18.99 16.4776 18.8059 16.2522C18.793 16.2366 18.7794 16.2216 18.7646 16.2066C18.5785 16.0099 18.2897 15.9071 18.0155 15.9424C17.6741 15.9861 17.3733 16.2456 17.2848 16.5669C17.2296 16.7674 17.2777 16.981 17.2454 17.1852C17.2189 17.3545 17.0697 17.5278 16.9114 17.6027Z" fill="#FFD00D"/>
<path d="M18.8287 14.002C18.8116 14.0522 18.8323 14.1069 18.8546 14.1553C19.1391 14.7692 19.9024 15.1845 19.8763 15.9218C19.8643 16.2553 19.6921 16.6472 19.4043 16.8448C19.3833 16.8592 19.3643 16.872 19.3397 16.8786C19.2848 16.7793 19.279 16.6338 19.2322 16.5241C19.1737 16.3867 19.0962 16.2515 18.988 16.1451C18.8843 16.0433 18.7544 15.9845 18.6507 15.8846C18.433 15.6745 18.2957 15.3862 18.2777 15.089C18.2512 14.6649 18.4705 14.2443 18.8287 14.002Z" fill="#FFD00D"/>
<path d="M16.8484 15.4828C16.8484 15.4828 16.8384 15.2976 17.0345 15.307C17.0348 15.307 17.1062 15.5093 16.8484 15.4828Z" fill="white"/>
<path d="M16.7837 17.0492C16.9632 17.0492 17.1087 16.9085 17.1087 16.735C17.1087 16.5615 16.9632 16.4209 16.7837 16.4209C16.6043 16.4209 16.4588 16.5615 16.4588 16.735C16.4588 16.9085 16.6043 17.0492 16.7837 17.0492Z" fill="#FFD00D"/>
</g>
<path d="M22.6805 30.5928L22.3523 30.898L22.7208 31.3944L23.0491 31.0958L22.6805 30.5928Z" fill="#30D6AF"/>
<path d="M16.4686 30.0791C16.4067 30.2001 16.3395 30.3185 16.2803 30.4342C16.4525 30.6252 16.8478 30.6924 17.0792 30.6305C17.0819 30.5014 17.0873 30.3723 17.09 30.227C16.8855 30.2539 16.6462 30.2082 16.4686 30.0791Z" fill="#FFD700"/>
<g opacity="0.301471">
<path d="M21.2427 32.0498C21.1028 32.1897 20.8849 32.3941 20.7235 32.5529C20.7316 32.7707 20.9172 32.9752 21.2427 32.986C21.388 32.8434 21.6086 32.612 21.77 32.4398C21.4337 32.5125 21.2427 32.3377 21.2427 32.0498Z" fill="#FF8164"/>
</g>
<path d="M13.3582 29.6328L12.7233 30.1977L13.065 30.6173L13.6999 30.0659L13.3582 29.6328Z" fill="#3F67F2"/>
<path d="M9.6768 28.5596C9.56377 28.6753 9.39711 28.8474 9.28409 28.955C9.32446 29.1837 9.59071 29.399 9.81134 29.4339C9.9378 29.3316 10.1019 29.1595 10.2014 29.0653C9.95656 28.99 9.74403 28.8232 9.6768 28.5596Z" fill="#30D6AF"/>
<g opacity="0.801471">
<path d="M9.96619 29.6465L9.3717 30.5934L10.1276 30.9162L10.7086 29.9801L9.96619 29.6465Z" fill="#FFD700"/>
</g>
<path d="M11.5809 28.8545L11.5298 29.3145L12.1781 29.4194L12.1969 28.9648L11.5809 28.8545Z" fill="#FA7697"/>
<path d="M29.0214 28.4072C29.0868 28.4072 29.1398 28.4603 29.1398 28.5256C29.1398 28.5909 29.0868 28.644 29.0214 28.644C28.9561 28.644 28.9031 28.5909 28.9031 28.5256C28.9031 28.4603 28.9561 28.4072 29.0214 28.4072Z" fill="#FA7697"/>
<path d="M26.7343 27.3125C26.8174 27.3125 26.8849 27.38 26.8849 27.4631C26.8849 27.5463 26.8174 27.6138 26.7343 27.6138C26.6511 27.6138 26.5836 27.5463 26.5836 27.4631C26.5836 27.38 26.6511 27.3125 26.7343 27.3125Z" stroke="#7DDCFF" stroke-width="0.129123"/>
<path d="M21.156 29.1387C21.2214 29.1387 21.2744 29.1917 21.2744 29.257C21.2744 29.3224 21.2214 29.3754 21.156 29.3754C21.0907 29.3754 21.0377 29.3224 21.0377 29.257C21.0377 29.1917 21.0907 29.1387 21.156 29.1387Z" fill="#3568F9"/>
<path d="M26.7187 30.3125C26.8434 30.3125 26.9447 30.4138 26.9447 30.5385C26.9447 30.6632 26.8434 30.7644 26.7187 30.7644C26.594 30.7644 26.4928 30.6632 26.4928 30.5385C26.4928 30.4138 26.594 30.3125 26.7187 30.3125Z" stroke="#7DFFAE" stroke-width="0.193685"/>
<path d="M17.6837 32.0498L17.3555 32.3551L17.724 32.8514L18.0523 32.5528L17.6837 32.0498Z" fill="#30D6AF"/>
<path d="M22.9857 32.2188C22.9238 32.3398 22.8566 32.4581 22.7973 32.5738C22.9695 32.7649 23.3649 32.8321 23.5963 32.7702C23.5989 32.6411 23.6044 32.5119 23.607 32.3666C23.4026 32.3936 23.1633 32.3479 22.9857 32.2188Z" fill="#FFD700"/>
<g opacity="0.301471">
<path d="M18.6402 29.8672C18.5003 30.0071 18.2824 30.2115 18.121 30.3703C18.1291 30.5881 18.3147 30.7926 18.6402 30.8033C18.7855 30.6608 19.006 30.4294 19.1674 30.2572C18.8312 30.3299 18.6402 30.155 18.6402 29.8672Z" fill="#FF8164"/>
</g>
<path d="M11.7698 30.6494L11.1349 31.2143L11.4766 31.6339L12.1115 31.0825L11.7698 30.6494Z" fill="#3F67F2"/>
<path d="M25.0376 30.0322C24.9246 30.1479 24.7579 30.3201 24.6449 30.4277C24.6853 30.6563 24.9515 30.8716 25.1722 30.9066C25.2986 30.8043 25.4627 30.6321 25.5622 30.538C25.3174 30.4626 25.1048 30.2959 25.0376 30.0322Z" fill="#30D6AF"/>
<g opacity="0.801471">
<path d="M15.5427 31.209L14.9482 32.1559L15.7041 32.4787L16.2851 31.5426L15.5427 31.209Z" fill="#FFD700"/>
</g>
<path d="M24.3724 28.6973L24.3213 29.1573L24.9696 29.2621L24.9884 28.8075L24.3724 28.6973Z" fill="#FA7697"/>
<defs>
<filter id="filter0_d_954_1344" x="15.8983" y="13.7777" width="4.53915" height="4.74699" filterUnits="userSpaceOnUse" color-interpolation-filters="sRGB">
<feFlood flood-opacity="0" result="BackgroundImageFix"/>
<feColorMatrix in="SourceAlpha" type="matrix" values="0 0 0 0 0 0 0 0 0 0 0 0 0 0 0 0 0 0 127 0" result="hardAlpha"/>
<feOffset dy="0.336305"/>
<feGaussianBlur stdDeviation="0.280254"/>
<feComposite in2="hardAlpha" operator="out"/>
<feColorMatrix type="matrix" values="0 0 0 0 0.316667 0 0 0 0 0.255165 0 0 0 0 0 0 0 0 0.1 0"/>
<feBlend mode="normal" in2="BackgroundImageFix" result="effect1_dropShadow_954_1344"/>
<feBlend mode="normal" in="SourceGraphic" in2="effect1_dropShadow_954_1344" result="shape"/>
</filter>
</defs>
</svg>
