<svg width="22" height="21" viewBox="0 0 22 21" fill="none" xmlns="http://www.w3.org/2000/svg">
<path d="M17.5625 5.90625H4.4375C3.35019 5.90625 2.46875 6.78769 2.46875 7.875V15.75C2.46875 16.8373 3.35019 17.7188 4.4375 17.7188H17.5625C18.6498 17.7188 19.5312 16.8373 19.5312 15.75V7.875C19.5312 6.78769 18.6498 5.90625 17.5625 5.90625Z" stroke="#6B7280" stroke-width="1.3125" stroke-linejoin="round"/>
<path d="M17.3722 5.90608V4.67561C17.3721 4.37382 17.3054 4.07577 17.1768 3.80273C17.0483 3.52968 16.8611 3.28838 16.6285 3.09603C16.396 2.90367 16.1238 2.76502 15.8315 2.68995C15.5392 2.61488 15.234 2.60525 14.9375 2.66174L4.13563 4.50539C3.66654 4.59479 3.24335 4.84508 2.93905 5.21309C2.63476 5.58111 2.46843 6.04378 2.46875 6.52131V8.53108" stroke="#6B7280" stroke-width="1.3125" stroke-linejoin="round"/>
<path d="M15.5938 13.125C15.3342 13.125 15.0804 13.048 14.8646 12.9038C14.6487 12.7596 14.4805 12.5546 14.3812 12.3148C14.2818 12.0749 14.2558 11.811 14.3065 11.5564C14.3571 11.3018 14.4821 11.068 14.6657 10.8844C14.8492 10.7009 15.0831 10.5759 15.3377 10.5252C15.5923 10.4746 15.8562 10.5006 16.096 10.5999C16.3359 10.6992 16.5408 10.8675 16.6851 11.0833C16.8293 11.2992 16.9063 11.5529 16.9063 11.8125C16.9063 12.1606 16.768 12.4944 16.5218 12.7406C16.2757 12.9867 15.9418 13.125 15.5938 13.125Z" fill="#6B7280"/>
</svg>
